<svg width="170" height="54" viewBox="0 0 170 54" fill="none" xmlns="http://www.w3.org/2000/svg">
<rect width="170" height="54" rx="27" fill="#142D71"/>
<path d="M30.2857 27.9554H39.9955C40.1027 28.5536 40.1563 29.125 40.1563 29.6696C40.1563 31.6071 39.75 33.3393 38.9375 34.8661C38.125 36.3839 36.9643 37.5714 35.4554 38.4286C33.9554 39.2857 32.2321 39.7143 30.2857 39.7143C28.8839 39.7143 27.5491 39.442 26.2812 38.8973C25.0134 38.3616 23.9196 37.6339 23 36.7143C22.0804 35.7946 21.3482 34.7009 20.8036 33.433C20.2679 32.1652 20 30.8304 20 29.4286C20 28.0268 20.2679 26.692 20.8036 25.4241C21.3482 24.1562 22.0804 23.0625 23 22.1429C23.9196 21.2232 25.0134 20.4955 26.2812 19.9598C27.5491 19.4152 28.8839 19.1429 30.2857 19.1429C32.9643 19.1429 35.2634 20.0402 37.183 21.8348L34.3839 24.5268C33.2857 23.4643 31.9196 22.933 30.2857 22.933C29.1339 22.933 28.067 23.2232 27.0848 23.8036C26.1116 24.3839 25.3393 25.1741 24.7679 26.1741C24.1964 27.1652 23.9107 28.25 23.9107 29.4286C23.9107 30.6071 24.1964 31.6964 24.7679 32.6964C25.3393 33.6875 26.1116 34.4732 27.0848 35.0536C28.067 35.6339 29.1339 35.9241 30.2857 35.9241C31.0625 35.9241 31.7768 35.817 32.4286 35.6027C33.0804 35.3884 33.6161 35.1205 34.0357 34.7991C34.4554 34.4777 34.8214 34.1116 35.1339 33.7009C35.4464 33.2902 35.6741 32.9018 35.817 32.5357C35.9688 32.1696 36.0714 31.8214 36.125 31.4911H30.2857V27.9554Z" fill="white"/>
<path d="M58.332 14.596C58.452 14.596 58.548 14.632 58.62 14.704C58.7 14.776 58.74 14.876 58.74 15.004V17.992C58.74 18.184 58.708 18.328 58.644 18.424C58.588 18.52 58.48 18.596 58.32 18.652C58 18.788 57.612 18.896 57.156 18.976C56.7 19.056 56.244 19.096 55.788 19.096C54.948 19.096 54.224 18.924 53.616 18.58C53.008 18.236 52.54 17.74 52.212 17.092C51.892 16.444 51.732 15.668 51.732 14.764C51.732 13.876 51.892 13.108 52.212 12.46C52.532 11.812 52.992 11.316 53.592 10.972C54.192 10.62 54.896 10.444 55.704 10.444C56.264 10.444 56.784 10.532 57.264 10.708C57.744 10.876 58.148 11.12 58.476 11.44C58.612 11.576 58.68 11.716 58.68 11.86C58.68 11.972 58.648 12.072 58.584 12.16C58.52 12.24 58.44 12.28 58.344 12.28C58.248 12.28 58.136 12.232 58.008 12.136C57.592 11.816 57.216 11.596 56.88 11.476C56.544 11.348 56.156 11.284 55.716 11.284C54.764 11.284 54.032 11.584 53.52 12.184C53.016 12.784 52.764 13.644 52.764 14.764C52.764 15.908 53.02 16.78 53.532 17.38C54.052 17.972 54.812 18.268 55.812 18.268C56.556 18.268 57.232 18.156 57.84 17.932V15.364H56.088C55.952 15.364 55.844 15.328 55.764 15.256C55.684 15.184 55.644 15.092 55.644 14.98C55.644 14.86 55.684 14.768 55.764 14.704C55.844 14.632 55.952 14.596 56.088 14.596H58.332ZM65.5311 17.644C65.6191 17.644 65.6951 17.68 65.7591 17.752C65.8231 17.824 65.8551 17.916 65.8551 18.028C65.8551 18.228 65.7151 18.412 65.4351 18.58C65.1471 18.748 64.8431 18.876 64.5231 18.964C64.2031 19.044 63.8911 19.084 63.5871 19.084C62.6831 19.084 61.9671 18.816 61.4391 18.28C60.9191 17.744 60.6591 17.004 60.6591 16.06C60.6591 15.46 60.7751 14.932 61.0071 14.476C61.2391 14.012 61.5631 13.652 61.9791 13.396C62.4031 13.14 62.8831 13.012 63.4191 13.012C64.1791 13.012 64.7831 13.26 65.2311 13.756C65.6791 14.252 65.9031 14.924 65.9031 15.772C65.9031 15.932 65.8711 16.048 65.8071 16.12C65.7431 16.192 65.6391 16.228 65.4951 16.228H61.6311C61.7031 17.604 62.3551 18.292 63.5871 18.292C63.8991 18.292 64.1671 18.252 64.3911 18.172C64.6151 18.084 64.8551 17.968 65.1111 17.824C65.3191 17.704 65.4591 17.644 65.5311 17.644ZM63.4311 13.768C62.9191 13.768 62.5071 13.928 62.1951 14.248C61.8911 14.568 61.7111 15.02 61.6551 15.604H65.0511C65.0351 15.012 64.8871 14.56 64.6071 14.248C64.3271 13.928 63.9351 13.768 63.4311 13.768ZM70.4236 18.292C70.7036 18.316 70.8436 18.444 70.8436 18.676C70.8436 18.812 70.7916 18.916 70.6876 18.988C70.5916 19.052 70.4436 19.076 70.2436 19.06L69.9196 19.036C69.2796 18.988 68.8076 18.796 68.5036 18.46C68.1996 18.124 68.0476 17.616 68.0476 16.936V13.924H67.2436C67.1076 13.924 66.9996 13.892 66.9196 13.828C66.8476 13.756 66.8116 13.664 66.8116 13.552C66.8116 13.432 66.8476 13.336 66.9196 13.264C66.9996 13.192 67.1076 13.156 67.2436 13.156H68.0476V11.8C68.0476 11.648 68.0916 11.532 68.1796 11.452C68.2676 11.364 68.3876 11.32 68.5396 11.32C68.6836 11.32 68.7996 11.364 68.8876 11.452C68.9756 11.532 69.0196 11.648 69.0196 11.8V13.156H70.3516C70.4796 13.156 70.5796 13.192 70.6516 13.264C70.7316 13.336 70.7716 13.432 70.7716 13.552C70.7716 13.664 70.7316 13.756 70.6516 13.828C70.5796 13.892 70.4796 13.924 70.3516 13.924H69.0196V16.984C69.0196 17.424 69.1076 17.744 69.2836 17.944C69.4676 18.136 69.7396 18.244 70.0996 18.268L70.4236 18.292ZM76.2346 19.06C76.0906 19.06 75.9706 19.02 75.8746 18.94C75.7866 18.852 75.7426 18.732 75.7426 18.58V13.516C75.7426 13.364 75.7866 13.248 75.8746 13.168C75.9706 13.08 76.0906 13.036 76.2346 13.036C76.3786 13.036 76.4946 13.08 76.5826 13.168C76.6706 13.248 76.7146 13.364 76.7146 13.516V18.58C76.7146 18.74 76.6706 18.86 76.5826 18.94C76.4946 19.02 76.3786 19.06 76.2346 19.06ZM76.2346 11.776C76.0426 11.776 75.8866 11.72 75.7666 11.608C75.6466 11.496 75.5866 11.348 75.5866 11.164C75.5866 10.988 75.6466 10.844 75.7666 10.732C75.8866 10.62 76.0426 10.564 76.2346 10.564C76.4266 10.564 76.5826 10.62 76.7026 10.732C76.8226 10.844 76.8826 10.988 76.8826 11.164C76.8826 11.348 76.8226 11.496 76.7026 11.608C76.5826 11.72 76.4266 11.776 76.2346 11.776ZM81.7489 18.292C82.0289 18.316 82.1689 18.444 82.1689 18.676C82.1689 18.812 82.1169 18.916 82.0129 18.988C81.9169 19.052 81.7689 19.076 81.5689 19.06L81.2449 19.036C80.6049 18.988 80.1329 18.796 79.8289 18.46C79.5249 18.124 79.3729 17.616 79.3729 16.936V13.924H78.5689C78.4329 13.924 78.3249 13.892 78.2449 13.828C78.1729 13.756 78.1369 13.664 78.1369 13.552C78.1369 13.432 78.1729 13.336 78.2449 13.264C78.3249 13.192 78.4329 13.156 78.5689 13.156H79.3729V11.8C79.3729 11.648 79.4169 11.532 79.5049 11.452C79.5929 11.364 79.7129 11.32 79.8649 11.32C80.0089 11.32 80.1249 11.364 80.2129 11.452C80.3009 11.532 80.3449 11.648 80.3449 11.8V13.156H81.6769C81.8049 13.156 81.9049 13.192 81.9769 13.264C82.0569 13.336 82.0969 13.432 82.0969 13.552C82.0969 13.664 82.0569 13.756 81.9769 13.828C81.9049 13.892 81.8049 13.924 81.6769 13.924H80.3449V16.984C80.3449 17.424 80.4329 17.744 80.6089 17.944C80.7929 18.136 81.0649 18.244 81.4249 18.268L81.7489 18.292ZM89.4918 19.084C88.9398 19.084 88.4518 18.96 88.0278 18.712C87.6118 18.464 87.2878 18.112 87.0558 17.656C86.8318 17.192 86.7198 16.656 86.7198 16.048C86.7198 15.44 86.8318 14.908 87.0558 14.452C87.2878 13.988 87.6118 13.632 88.0278 13.384C88.4518 13.136 88.9398 13.012 89.4918 13.012C90.0438 13.012 90.5318 13.136 90.9558 13.384C91.3798 13.632 91.7038 13.988 91.9278 14.452C92.1598 14.908 92.2758 15.44 92.2758 16.048C92.2758 16.656 92.1598 17.192 91.9278 17.656C91.7038 18.112 91.3798 18.464 90.9558 18.712C90.5318 18.96 90.0438 19.084 89.4918 19.084ZM89.4918 18.28C90.0678 18.28 90.5078 18.092 90.8118 17.716C91.1238 17.332 91.2798 16.776 91.2798 16.048C91.2798 15.336 91.1238 14.788 90.8118 14.404C90.4998 14.012 90.0598 13.816 89.4918 13.816C88.9238 13.816 88.4838 14.012 88.1718 14.404C87.8598 14.788 87.7038 15.336 87.7038 16.048C87.7038 16.768 87.8558 17.32 88.1598 17.704C88.4718 18.088 88.9158 18.28 89.4918 18.28ZM97.0876 13.012C98.4876 13.012 99.1876 13.784 99.1876 15.328V18.58C99.1876 18.732 99.1436 18.852 99.0556 18.94C98.9756 19.02 98.8596 19.06 98.7076 19.06C98.5556 19.06 98.4356 19.02 98.3476 18.94C98.2596 18.852 98.2156 18.732 98.2156 18.58V15.388C98.2156 14.844 98.1076 14.448 97.8916 14.2C97.6836 13.952 97.3476 13.828 96.8836 13.828C96.3476 13.828 95.9196 13.992 95.5996 14.32C95.2796 14.648 95.1196 15.092 95.1196 15.652V18.58C95.1196 18.732 95.0756 18.852 94.9876 18.94C94.9076 19.02 94.7916 19.06 94.6396 19.06C94.4876 19.06 94.3676 19.02 94.2796 18.94C94.1916 18.852 94.1476 18.732 94.1476 18.58V13.516C94.1476 13.372 94.1916 13.256 94.2796 13.168C94.3676 13.08 94.4876 13.036 94.6396 13.036C94.7836 13.036 94.8956 13.08 94.9756 13.168C95.0636 13.256 95.1076 13.368 95.1076 13.504V14.116C95.2996 13.756 95.5676 13.484 95.9116 13.3C96.2556 13.108 96.6476 13.012 97.0876 13.012Z" fill="white"/>
<path d="M60.776 34.128C60.936 34.128 61.064 34.176 61.16 34.272C61.2667 34.368 61.32 34.5013 61.32 34.672V38.656C61.32 38.912 61.2773 39.104 61.192 39.232C61.1173 39.36 60.9733 39.4613 60.76 39.536C60.3333 39.7173 59.816 39.8613 59.208 39.968C58.6 40.0747 57.992 40.128 57.384 40.128C56.264 40.128 55.2987 39.8987 54.488 39.44C53.6773 38.9813 53.0533 38.32 52.616 37.456C52.1893 36.592 51.976 35.5573 51.976 34.352C51.976 33.168 52.1893 32.144 52.616 31.28C53.0427 30.416 53.656 29.7547 54.456 29.296C55.256 28.8267 56.1947 28.592 57.272 28.592C58.0187 28.592 58.712 28.7093 59.352 28.944C59.992 29.168 60.5307 29.4933 60.968 29.92C61.1493 30.1013 61.24 30.288 61.24 30.48C61.24 30.6293 61.1973 30.7627 61.112 30.88C61.0267 30.9867 60.92 31.04 60.792 31.04C60.664 31.04 60.5147 30.976 60.344 30.848C59.7893 30.4213 59.288 30.128 58.84 29.968C58.392 29.7973 57.8747 29.712 57.288 29.712C56.0187 29.712 55.0427 30.112 54.36 30.912C53.688 31.712 53.352 32.8587 53.352 34.352C53.352 35.8773 53.6933 37.04 54.376 37.84C55.0693 38.6293 56.0827 39.024 57.416 39.024C58.408 39.024 59.3093 38.8747 60.12 38.576V35.152H57.784C57.6027 35.152 57.4587 35.104 57.352 35.008C57.2453 34.912 57.192 34.7893 57.192 34.64C57.192 34.48 57.2453 34.3573 57.352 34.272C57.4587 34.176 57.6027 34.128 57.784 34.128H60.776ZM67.6101 40.112C66.8741 40.112 66.2235 39.9467 65.6581 39.616C65.1035 39.2853 64.6715 38.816 64.3621 38.208C64.0635 37.5893 63.9141 36.8747 63.9141 36.064C63.9141 35.2533 64.0635 34.544 64.3621 33.936C64.6715 33.3173 65.1035 32.8427 65.6581 32.512C66.2235 32.1813 66.8741 32.016 67.6101 32.016C68.3461 32.016 68.9968 32.1813 69.5621 32.512C70.1275 32.8427 70.5595 33.3173 70.8581 33.936C71.1675 34.544 71.3221 35.2533 71.3221 36.064C71.3221 36.8747 71.1675 37.5893 70.8581 38.208C70.5595 38.816 70.1275 39.2853 69.5621 39.616C68.9968 39.9467 68.3461 40.112 67.6101 40.112ZM67.6101 39.04C68.3781 39.04 68.9648 38.7893 69.3701 38.288C69.7861 37.776 69.9941 37.0347 69.9941 36.064C69.9941 35.1147 69.7861 34.384 69.3701 33.872C68.9541 33.3493 68.3675 33.088 67.6101 33.088C66.8528 33.088 66.2661 33.3493 65.8501 33.872C65.4341 34.384 65.2261 35.1147 65.2261 36.064C65.2261 37.024 65.4288 37.76 65.8341 38.272C66.2501 38.784 66.8421 39.04 67.6101 39.04ZM77.0851 40.112C76.3491 40.112 75.6985 39.9467 75.1331 39.616C74.5785 39.2853 74.1465 38.816 73.8371 38.208C73.5385 37.5893 73.3891 36.8747 73.3891 36.064C73.3891 35.2533 73.5385 34.544 73.8371 33.936C74.1465 33.3173 74.5785 32.8427 75.1331 32.512C75.6985 32.1813 76.3491 32.016 77.0851 32.016C77.8211 32.016 78.4718 32.1813 79.0371 32.512C79.6025 32.8427 80.0345 33.3173 80.3331 33.936C80.6425 34.544 80.7971 35.2533 80.7971 36.064C80.7971 36.8747 80.6425 37.5893 80.3331 38.208C80.0345 38.816 79.6025 39.2853 79.0371 39.616C78.4718 39.9467 77.8211 40.112 77.0851 40.112ZM77.0851 39.04C77.8531 39.04 78.4398 38.7893 78.8451 38.288C79.2611 37.776 79.4691 37.0347 79.4691 36.064C79.4691 35.1147 79.2611 34.384 78.8451 33.872C78.4291 33.3493 77.8425 33.088 77.0851 33.088C76.3278 33.088 75.7411 33.3493 75.3251 33.872C74.9091 34.384 74.7011 35.1147 74.7011 36.064C74.7011 37.024 74.9038 37.76 75.3091 38.272C75.7251 38.784 76.3171 39.04 77.0851 39.04ZM89.6481 32.048C89.8508 32.048 90.0108 32.1067 90.1281 32.224C90.2455 32.3413 90.3041 32.496 90.3041 32.688V39.472C90.3041 40.6347 90.0055 41.5093 89.4081 42.096C88.8108 42.6933 87.9255 42.992 86.7521 42.992C85.6108 42.992 84.6615 42.768 83.9041 42.32C83.5201 42.1067 83.3281 41.8613 83.3281 41.584C83.3281 41.4347 83.3655 41.312 83.4401 41.216C83.5255 41.12 83.6321 41.072 83.7601 41.072C83.8668 41.072 84.0588 41.1467 84.3361 41.296C84.7095 41.488 85.0775 41.6427 85.4401 41.76C85.8028 41.8773 86.2348 41.936 86.7361 41.936C87.4935 41.936 88.0641 41.7333 88.4481 41.328C88.8321 40.9333 89.0241 40.352 89.0241 39.584V38.208C88.8001 38.7093 88.4535 39.0933 87.9841 39.36C87.5255 39.6267 86.9815 39.76 86.3521 39.76C85.6695 39.76 85.0615 39.6 84.5281 39.28C84.0055 38.96 83.5948 38.5067 83.2961 37.92C83.0081 37.3333 82.8641 36.656 82.8641 35.888C82.8641 35.12 83.0081 34.4427 83.2961 33.856C83.5948 33.2693 84.0055 32.816 84.5281 32.496C85.0615 32.176 85.6695 32.016 86.3521 32.016C86.9708 32.016 87.5095 32.1493 87.9681 32.416C88.4268 32.6827 88.7735 33.0613 89.0081 33.552V32.688C89.0081 32.496 89.0615 32.3413 89.1681 32.224C89.2855 32.1067 89.4455 32.048 89.6481 32.048ZM86.6081 38.688C87.3548 38.688 87.9415 38.4427 88.3681 37.952C88.7948 37.4507 89.0081 36.7627 89.0081 35.888C89.0081 35.024 88.7948 34.3467 88.3681 33.856C87.9521 33.3547 87.3655 33.104 86.6081 33.104C85.8508 33.104 85.2535 33.3547 84.8161 33.856C84.3895 34.3467 84.1761 35.024 84.1761 35.888C84.1761 36.7627 84.3895 37.4507 84.8161 37.952C85.2535 38.4427 85.8508 38.688 86.6081 38.688ZM93.9591 40.08C93.7671 40.08 93.6071 40.0267 93.4791 39.92C93.3618 39.8027 93.3031 39.6427 93.3031 39.44V29.28C93.3031 29.0773 93.3618 28.9227 93.4791 28.816C93.6071 28.6987 93.7671 28.64 93.9591 28.64C94.1405 28.64 94.2898 28.6987 94.4071 28.816C94.5351 28.9227 94.5991 29.0773 94.5991 29.28V39.44C94.5991 39.6427 94.5351 39.8027 94.4071 39.92C94.2898 40.0267 94.1405 40.08 93.9591 40.08ZM103.654 38.192C103.771 38.192 103.873 38.24 103.958 38.336C104.043 38.432 104.086 38.5547 104.086 38.704C104.086 38.9707 103.899 39.216 103.526 39.44C103.142 39.664 102.737 39.8347 102.31 39.952C101.883 40.0587 101.467 40.112 101.062 40.112C99.8565 40.112 98.9019 39.7547 98.1979 39.04C97.5045 38.3253 97.1579 37.3387 97.1579 36.08C97.1579 35.28 97.3125 34.576 97.6219 33.968C97.9312 33.3493 98.3632 32.8693 98.9179 32.528C99.4832 32.1867 100.123 32.016 100.838 32.016C101.851 32.016 102.657 32.3467 103.254 33.008C103.851 33.6693 104.15 34.5653 104.15 35.696C104.15 35.9093 104.107 36.064 104.022 36.16C103.937 36.256 103.798 36.304 103.606 36.304H98.4539C98.5499 38.1387 99.4192 39.056 101.062 39.056C101.478 39.056 101.835 39.0027 102.134 38.896C102.433 38.7787 102.753 38.624 103.094 38.432C103.371 38.272 103.558 38.192 103.654 38.192ZM100.854 33.024C100.171 33.024 99.6219 33.2373 99.2059 33.664C98.8005 34.0907 98.5605 34.6933 98.4859 35.472H103.014C102.993 34.6827 102.795 34.08 102.422 33.664C102.049 33.2373 101.526 33.024 100.854 33.024ZM112.232 40.08C112.03 40.08 111.87 40.0213 111.752 39.904C111.635 39.776 111.576 39.6107 111.576 39.408V29.36C111.576 29.168 111.635 29.0133 111.752 28.896C111.88 28.7787 112.046 28.72 112.248 28.72H116.04C117.224 28.72 118.142 29.008 118.792 29.584C119.454 30.16 119.784 30.976 119.784 32.032C119.784 33.088 119.454 33.9093 118.792 34.496C118.131 35.0827 117.214 35.376 116.04 35.376H112.888V39.408C112.888 39.6107 112.83 39.776 112.712 39.904C112.595 40.0213 112.435 40.08 112.232 40.08ZM115.912 34.288C117.63 34.288 118.488 33.536 118.488 32.032C118.488 30.5493 117.63 29.808 115.912 29.808H112.888V34.288H115.912ZM122.953 40.08C122.761 40.08 122.601 40.0267 122.473 39.92C122.356 39.8027 122.297 39.6427 122.297 39.44V29.28C122.297 29.0773 122.356 28.9227 122.473 28.816C122.601 28.6987 122.761 28.64 122.953 28.64C123.134 28.64 123.284 28.6987 123.401 28.816C123.529 28.9227 123.593 29.0773 123.593 29.28V39.44C123.593 39.6427 123.529 39.8027 123.401 39.92C123.284 40.0267 123.134 40.08 122.953 40.08ZM129.8 32.016C131.752 32.016 132.728 33.04 132.728 35.088V39.44C132.728 39.632 132.669 39.7867 132.552 39.904C132.445 40.0213 132.296 40.08 132.104 40.08C131.912 40.08 131.757 40.0213 131.64 39.904C131.522 39.7867 131.464 39.632 131.464 39.44V38.672C131.261 39.1307 130.952 39.488 130.536 39.744C130.12 39.9893 129.64 40.112 129.096 40.112C128.594 40.112 128.13 40.0107 127.704 39.808C127.288 39.6053 126.957 39.3227 126.712 38.96C126.466 38.5973 126.344 38.1973 126.344 37.76C126.344 37.1733 126.493 36.72 126.792 36.4C127.09 36.0693 127.581 35.8347 128.264 35.696C128.946 35.5467 129.896 35.472 131.112 35.472H131.464V34.944C131.464 34.304 131.33 33.8347 131.064 33.536C130.808 33.2373 130.386 33.088 129.8 33.088C129.074 33.088 128.338 33.2853 127.592 33.68C127.304 33.8613 127.101 33.952 126.984 33.952C126.856 33.952 126.749 33.904 126.664 33.808C126.578 33.712 126.536 33.5893 126.536 33.44C126.536 33.2907 126.578 33.1627 126.664 33.056C126.76 32.9387 126.909 32.8213 127.112 32.704C127.485 32.4907 127.906 32.3253 128.376 32.208C128.856 32.08 129.33 32.016 129.8 32.016ZM129.272 39.088C129.912 39.088 130.434 38.8747 130.84 38.448C131.256 38.0107 131.464 37.4507 131.464 36.768V36.304H131.176C130.237 36.304 129.522 36.3467 129.032 36.432C128.541 36.5067 128.189 36.64 127.976 36.832C127.773 37.0133 127.672 37.2853 127.672 37.648C127.672 38.064 127.821 38.4107 128.12 38.688C128.429 38.9547 128.813 39.088 129.272 39.088ZM141.316 32.448C141.433 32.192 141.62 32.064 141.876 32.064C142.036 32.064 142.18 32.1173 142.308 32.224C142.436 32.3307 142.5 32.464 142.5 32.624C142.5 32.72 142.479 32.8053 142.436 32.88L137.94 42.576C137.887 42.6933 137.807 42.784 137.7 42.848C137.604 42.912 137.503 42.944 137.396 42.944C137.236 42.944 137.092 42.8907 136.964 42.784C136.847 42.688 136.788 42.56 136.788 42.4C136.788 42.3147 136.809 42.2293 136.852 42.144L137.972 39.728L134.804 32.88C134.761 32.8053 134.74 32.7253 134.74 32.64C134.74 32.48 134.809 32.3413 134.948 32.224C135.097 32.1067 135.257 32.048 135.428 32.048C135.535 32.048 135.636 32.08 135.732 32.144C135.839 32.208 135.919 32.2987 135.972 32.416L138.644 38.416L141.316 32.448Z" fill="white"/>
</svg>
