<svg width="457" height="41" viewBox="0 0 457 41" fill="none" xmlns="http://www.w3.org/2000/svg">
<g clip-path="url(#clip0_0_52)">
<g filter="url(#filter0_d_0_52)">
<rect width="457" height="41" rx="4" fill="white"/>
</g>
<path fill-rule="evenodd" clip-rule="evenodd" d="M0 4C0 1.79086 1.79086 0 4 0H57V41H4C1.79086 41 0 39.2091 0 37V4Z" fill="url(#paint0_linear_0_52)"/>
<path d="M72.368 26.112C71.668 26.112 70.996 26.0093 70.352 25.804C69.7173 25.5893 69.2087 25.3047 68.826 24.95C68.686 24.8193 68.616 24.656 68.616 24.46C68.616 24.3293 68.6533 24.2173 68.728 24.124C68.8027 24.0213 68.8913 23.97 68.994 23.97C69.1153 23.97 69.246 24.0213 69.386 24.124C70.254 24.796 71.2433 25.132 72.354 25.132C73.1567 25.132 73.7727 24.978 74.202 24.67C74.6313 24.362 74.846 23.9233 74.846 23.354C74.846 23.0273 74.7433 22.766 74.538 22.57C74.3327 22.3647 74.062 22.2013 73.726 22.08C73.39 21.9587 72.9373 21.8327 72.368 21.702C71.6027 21.5247 70.9727 21.338 70.478 21.142C69.9927 20.946 69.596 20.666 69.288 20.302C68.9893 19.938 68.84 19.462 68.84 18.874C68.84 18.314 68.9893 17.8193 69.288 17.39C69.596 16.9513 70.0207 16.6153 70.562 16.382C71.1127 16.1393 71.738 16.018 72.438 16.018C73.0913 16.018 73.698 16.1207 74.258 16.326C74.8273 16.522 75.3033 16.8067 75.686 17.18C75.8353 17.3293 75.91 17.4927 75.91 17.67C75.91 17.8007 75.8727 17.9173 75.798 18.02C75.7233 18.1133 75.6347 18.16 75.532 18.16C75.4293 18.16 75.294 18.1087 75.126 18.006C74.6687 17.6327 74.244 17.3713 73.852 17.222C73.46 17.0727 72.9887 16.998 72.438 16.998C71.6633 16.998 71.0613 17.1613 70.632 17.488C70.2027 17.8053 69.988 18.2533 69.988 18.832C69.988 19.3267 70.1747 19.7 70.548 19.952C70.9307 20.1947 71.514 20.4093 72.298 20.596C73.1473 20.8013 73.8147 20.9927 74.3 21.17C74.7853 21.338 75.1867 21.5947 75.504 21.94C75.8307 22.2853 75.994 22.7473 75.994 23.326C75.994 23.8767 75.84 24.362 75.532 24.782C75.2333 25.202 74.8087 25.5287 74.258 25.762C73.7073 25.9953 73.0773 26.112 72.368 26.112ZM83.4627 24.418C83.5654 24.418 83.6541 24.46 83.7287 24.544C83.8034 24.628 83.8407 24.7353 83.8407 24.866C83.8407 25.0993 83.6774 25.314 83.3507 25.51C83.0147 25.706 82.6601 25.8553 82.2867 25.958C81.9134 26.0513 81.5494 26.098 81.1947 26.098C80.1401 26.098 79.3047 25.7853 78.6887 25.16C78.0821 24.5347 77.7787 23.6713 77.7787 22.57C77.7787 21.87 77.9141 21.254 78.1847 20.722C78.4554 20.1807 78.8334 19.7607 79.3187 19.462C79.8134 19.1633 80.3734 19.014 80.9987 19.014C81.8854 19.014 82.5901 19.3033 83.1127 19.882C83.6354 20.4607 83.8967 21.2447 83.8967 22.234C83.8967 22.4207 83.8594 22.556 83.7847 22.64C83.7101 22.724 83.5887 22.766 83.4207 22.766H78.9127C78.9967 24.3713 79.7574 25.174 81.1947 25.174C81.5587 25.174 81.8714 25.1273 82.1327 25.034C82.3941 24.9313 82.6741 24.796 82.9727 24.628C83.2154 24.488 83.3787 24.418 83.4627 24.418ZM81.0127 19.896C80.4154 19.896 79.9347 20.0827 79.5707 20.456C79.2161 20.8293 79.0061 21.3567 78.9407 22.038H82.9027C82.8841 21.3473 82.7114 20.82 82.3847 20.456C82.0581 20.0827 81.6007 19.896 81.0127 19.896ZM91.5357 16.06C91.713 16.06 91.853 16.1113 91.9557 16.214C92.0583 16.3167 92.1097 16.4473 92.1097 16.606V25.51C92.1097 25.678 92.0583 25.8133 91.9557 25.916C91.853 26.0187 91.713 26.07 91.5357 26.07C91.3583 26.07 91.2183 26.0187 91.1157 25.916C91.0223 25.8133 90.9757 25.678 90.9757 25.51V24.754C90.7703 25.1833 90.467 25.5147 90.0657 25.748C89.6737 25.9813 89.2117 26.098 88.6797 26.098C88.0823 26.098 87.555 25.9487 87.0977 25.65C86.6403 25.3513 86.2857 24.936 86.0337 24.404C85.7817 23.8627 85.6557 23.2373 85.6557 22.528C85.6557 21.828 85.7817 21.212 86.0337 20.68C86.2857 20.148 86.6403 19.7373 87.0977 19.448C87.555 19.1587 88.0823 19.014 88.6797 19.014C89.2117 19.014 89.6737 19.1307 90.0657 19.364C90.467 19.5973 90.7703 19.9287 90.9757 20.358V16.606C90.9757 16.438 91.0223 16.3073 91.1157 16.214C91.2183 16.1113 91.3583 16.06 91.5357 16.06ZM88.9037 25.16C89.5663 25.16 90.075 24.936 90.4297 24.488C90.7937 24.0307 90.9757 23.3867 90.9757 22.556C90.9757 21.7253 90.7937 21.086 90.4297 20.638C90.075 20.19 89.5663 19.966 88.9037 19.966C88.241 19.966 87.723 20.19 87.3497 20.638C86.9857 21.086 86.8037 21.716 86.8037 22.528C86.8037 23.3587 86.9857 24.0073 87.3497 24.474C87.723 24.9313 88.241 25.16 88.9037 25.16ZM104.086 24.418C104.188 24.418 104.277 24.46 104.352 24.544C104.426 24.628 104.464 24.7353 104.464 24.866C104.464 25.0993 104.3 25.314 103.974 25.51C103.638 25.706 103.283 25.8553 102.91 25.958C102.536 26.0513 102.172 26.098 101.818 26.098C100.763 26.098 99.9277 25.7853 99.3117 25.16C98.7051 24.5347 98.4017 23.6713 98.4017 22.57C98.4017 21.87 98.5371 21.254 98.8077 20.722C99.0784 20.1807 99.4564 19.7607 99.9417 19.462C100.436 19.1633 100.996 19.014 101.622 19.014C102.508 19.014 103.213 19.3033 103.736 19.882C104.258 20.4607 104.52 21.2447 104.52 22.234C104.52 22.4207 104.482 22.556 104.408 22.64C104.333 22.724 104.212 22.766 104.044 22.766H99.5357C99.6197 24.3713 100.38 25.174 101.818 25.174C102.182 25.174 102.494 25.1273 102.756 25.034C103.017 24.9313 103.297 24.796 103.596 24.628C103.838 24.488 104.002 24.418 104.086 24.418ZM101.636 19.896C101.038 19.896 100.558 20.0827 100.194 20.456C99.8391 20.8293 99.6291 21.3567 99.5637 22.038H103.526C103.507 21.3473 103.334 20.82 103.008 20.456C102.681 20.0827 102.224 19.896 101.636 19.896ZM107.259 26.07C107.091 26.07 106.951 26.0233 106.839 25.93C106.736 25.8273 106.685 25.6873 106.685 25.51V16.62C106.685 16.4427 106.736 16.3073 106.839 16.214C106.951 16.1113 107.091 16.06 107.259 16.06C107.417 16.06 107.548 16.1113 107.651 16.214C107.763 16.3073 107.819 16.4427 107.819 16.62V25.51C107.819 25.6873 107.763 25.8273 107.651 25.93C107.548 26.0233 107.417 26.07 107.259 26.07ZM115.711 24.418C115.813 24.418 115.902 24.46 115.977 24.544C116.051 24.628 116.089 24.7353 116.089 24.866C116.089 25.0993 115.925 25.314 115.599 25.51C115.263 25.706 114.908 25.8553 114.535 25.958C114.161 26.0513 113.797 26.098 113.443 26.098C112.388 26.098 111.553 25.7853 110.937 25.16C110.33 24.5347 110.027 23.6713 110.027 22.57C110.027 21.87 110.162 21.254 110.433 20.722C110.703 20.1807 111.081 19.7607 111.567 19.462C112.061 19.1633 112.621 19.014 113.247 19.014C114.133 19.014 114.838 19.3033 115.361 19.882C115.883 20.4607 116.145 21.2447 116.145 22.234C116.145 22.4207 116.107 22.556 116.033 22.64C115.958 22.724 115.837 22.766 115.669 22.766H111.161C111.245 24.3713 112.005 25.174 113.443 25.174C113.807 25.174 114.119 25.1273 114.381 25.034C114.642 24.9313 114.922 24.796 115.221 24.628C115.463 24.488 115.627 24.418 115.711 24.418ZM113.261 19.896C112.663 19.896 112.183 20.0827 111.819 20.456C111.464 20.8293 111.254 21.3567 111.189 22.038H115.151C115.132 21.3473 114.959 20.82 114.633 20.456C114.306 20.0827 113.849 19.896 113.261 19.896ZM118.884 26.07C118.716 26.07 118.576 26.0233 118.464 25.93C118.361 25.8273 118.31 25.6873 118.31 25.51V19.602C118.31 19.4247 118.361 19.2893 118.464 19.196C118.576 19.0933 118.716 19.042 118.884 19.042C119.052 19.042 119.187 19.0933 119.29 19.196C119.392 19.2893 119.444 19.4247 119.444 19.602V25.51C119.444 25.6967 119.392 25.8367 119.29 25.93C119.187 26.0233 119.052 26.07 118.884 26.07ZM118.884 17.572C118.66 17.572 118.478 17.5067 118.338 17.376C118.198 17.2453 118.128 17.0727 118.128 16.858C118.128 16.6527 118.198 16.4847 118.338 16.354C118.478 16.2233 118.66 16.158 118.884 16.158C119.108 16.158 119.29 16.2233 119.43 16.354C119.57 16.4847 119.64 16.6527 119.64 16.858C119.64 17.0727 119.57 17.2453 119.43 17.376C119.29 17.5067 119.108 17.572 118.884 17.572ZM125.068 17.026C124.573 17.0633 124.2 17.222 123.948 17.502C123.696 17.7727 123.57 18.1833 123.57 18.734V19.182H125.124C125.282 19.182 125.404 19.224 125.488 19.308C125.572 19.392 125.614 19.504 125.614 19.644C125.614 19.784 125.572 19.8913 125.488 19.966C125.404 20.0407 125.282 20.078 125.124 20.078H123.57V25.51C123.57 25.6873 123.514 25.8273 123.402 25.93C123.299 26.0233 123.168 26.07 123.01 26.07C122.842 26.07 122.702 26.0233 122.59 25.93C122.487 25.8273 122.436 25.6873 122.436 25.51V20.078H121.498C121.339 20.078 121.213 20.0407 121.12 19.966C121.036 19.882 120.994 19.7747 120.994 19.644C120.994 19.504 121.036 19.392 121.12 19.308C121.213 19.224 121.339 19.182 121.498 19.182H122.436V18.93C122.436 18.09 122.646 17.432 123.066 16.956C123.486 16.4707 124.088 16.2 124.872 16.144L125.236 16.116C125.478 16.0973 125.651 16.1207 125.754 16.186C125.866 16.2513 125.922 16.368 125.922 16.536C125.922 16.8067 125.758 16.9607 125.432 16.998L125.068 17.026ZM132.355 24.418C132.458 24.418 132.546 24.46 132.621 24.544C132.696 24.628 132.733 24.7353 132.733 24.866C132.733 25.0993 132.57 25.314 132.243 25.51C131.907 25.706 131.552 25.8553 131.179 25.958C130.806 26.0513 130.442 26.098 130.087 26.098C129.032 26.098 128.197 25.7853 127.581 25.16C126.974 24.5347 126.671 23.6713 126.671 22.57C126.671 21.87 126.806 21.254 127.077 20.722C127.348 20.1807 127.726 19.7607 128.211 19.462C128.706 19.1633 129.266 19.014 129.891 19.014C130.778 19.014 131.482 19.3033 132.005 19.882C132.528 20.4607 132.789 21.2447 132.789 22.234C132.789 22.4207 132.752 22.556 132.677 22.64C132.602 22.724 132.481 22.766 132.313 22.766H127.805C127.889 24.3713 128.65 25.174 130.087 25.174C130.451 25.174 130.764 25.1273 131.025 25.034C131.286 24.9313 131.566 24.796 131.865 24.628C132.108 24.488 132.271 24.418 132.355 24.418ZM129.905 19.896C129.308 19.896 128.827 20.0827 128.463 20.456C128.108 20.8293 127.898 21.3567 127.833 22.038H131.795C131.776 21.3473 131.604 20.82 131.277 20.456C130.95 20.0827 130.493 19.896 129.905 19.896ZM138.384 19.014C140.017 19.014 140.834 19.9147 140.834 21.716V25.51C140.834 25.6873 140.783 25.8273 140.68 25.93C140.587 26.0233 140.451 26.07 140.274 26.07C140.097 26.07 139.957 26.0233 139.854 25.93C139.751 25.8273 139.7 25.6873 139.7 25.51V21.786C139.7 21.1513 139.574 20.6893 139.322 20.4C139.079 20.1107 138.687 19.966 138.146 19.966C137.521 19.966 137.021 20.1573 136.648 20.54C136.275 20.9227 136.088 21.4407 136.088 22.094V25.51C136.088 25.6873 136.037 25.8273 135.934 25.93C135.841 26.0233 135.705 26.07 135.528 26.07C135.351 26.07 135.211 26.0233 135.108 25.93C135.005 25.8273 134.954 25.6873 134.954 25.51V19.602C134.954 19.434 135.005 19.2987 135.108 19.196C135.211 19.0933 135.351 19.042 135.528 19.042C135.696 19.042 135.827 19.0933 135.92 19.196C136.023 19.2987 136.074 19.4293 136.074 19.588V20.302C136.298 19.882 136.611 19.5647 137.012 19.35C137.413 19.126 137.871 19.014 138.384 19.014ZM148.879 16.06C149.057 16.06 149.197 16.1113 149.299 16.214C149.402 16.3167 149.453 16.4473 149.453 16.606V25.51C149.453 25.678 149.402 25.8133 149.299 25.916C149.197 26.0187 149.057 26.07 148.879 26.07C148.702 26.07 148.562 26.0187 148.459 25.916C148.366 25.8133 148.319 25.678 148.319 25.51V24.754C148.114 25.1833 147.811 25.5147 147.409 25.748C147.017 25.9813 146.555 26.098 146.023 26.098C145.426 26.098 144.899 25.9487 144.441 25.65C143.984 25.3513 143.629 24.936 143.377 24.404C143.125 23.8627 142.999 23.2373 142.999 22.528C142.999 21.828 143.125 21.212 143.377 20.68C143.629 20.148 143.984 19.7373 144.441 19.448C144.899 19.1587 145.426 19.014 146.023 19.014C146.555 19.014 147.017 19.1307 147.409 19.364C147.811 19.5973 148.114 19.9287 148.319 20.358V16.606C148.319 16.438 148.366 16.3073 148.459 16.214C148.562 16.1113 148.702 16.06 148.879 16.06ZM146.247 25.16C146.91 25.16 147.419 24.936 147.773 24.488C148.137 24.0307 148.319 23.3867 148.319 22.556C148.319 21.7253 148.137 21.086 147.773 20.638C147.419 20.19 146.91 19.966 146.247 19.966C145.585 19.966 145.067 20.19 144.693 20.638C144.329 21.086 144.147 21.716 144.147 22.528C144.147 23.3587 144.329 24.0073 144.693 24.474C145.067 24.9313 145.585 25.16 146.247 25.16ZM161.429 24.418C161.532 24.418 161.621 24.46 161.695 24.544C161.77 24.628 161.807 24.7353 161.807 24.866C161.807 25.0993 161.644 25.314 161.317 25.51C160.981 25.706 160.627 25.8553 160.253 25.958C159.88 26.0513 159.516 26.098 159.161 26.098C158.107 26.098 157.271 25.7853 156.655 25.16C156.049 24.5347 155.745 23.6713 155.745 22.57C155.745 21.87 155.881 21.254 156.151 20.722C156.422 20.1807 156.8 19.7607 157.285 19.462C157.78 19.1633 158.34 19.014 158.965 19.014C159.852 19.014 160.557 19.3033 161.079 19.882C161.602 20.4607 161.863 21.2447 161.863 22.234C161.863 22.4207 161.826 22.556 161.751 22.64C161.677 22.724 161.555 22.766 161.387 22.766H156.879C156.963 24.3713 157.724 25.174 159.161 25.174C159.525 25.174 159.838 25.1273 160.099 25.034C160.361 24.9313 160.641 24.796 160.939 24.628C161.182 24.488 161.345 24.418 161.429 24.418ZM158.979 19.896C158.382 19.896 157.901 20.0827 157.537 20.456C157.183 20.8293 156.973 21.3567 156.907 22.038H160.869C160.851 21.3473 160.678 20.82 160.351 20.456C160.025 20.0827 159.567 19.896 158.979 19.896ZM166.324 26.098C165.895 26.098 165.484 26.0467 165.092 25.944C164.71 25.8413 164.369 25.6967 164.07 25.51C163.902 25.398 163.781 25.2953 163.706 25.202C163.641 25.0993 163.608 24.978 163.608 24.838C163.608 24.7167 163.641 24.6187 163.706 24.544C163.781 24.46 163.874 24.418 163.986 24.418C164.098 24.418 164.262 24.488 164.476 24.628C164.756 24.796 165.032 24.9313 165.302 25.034C165.582 25.1273 165.928 25.174 166.338 25.174C166.842 25.174 167.234 25.0853 167.514 24.908C167.794 24.7307 167.934 24.474 167.934 24.138C167.934 23.9327 167.883 23.7693 167.78 23.648C167.678 23.5173 167.5 23.4053 167.248 23.312C166.996 23.2093 166.628 23.1067 166.142 23.004C165.321 22.8267 164.733 22.5887 164.378 22.29C164.024 21.9913 163.846 21.5853 163.846 21.072C163.846 20.6707 163.958 20.316 164.182 20.008C164.406 19.7 164.714 19.4573 165.106 19.28C165.508 19.1027 165.96 19.014 166.464 19.014C166.828 19.014 167.178 19.0653 167.514 19.168C167.86 19.2613 168.163 19.3967 168.424 19.574C168.742 19.798 168.9 20.0313 168.9 20.274C168.9 20.3953 168.863 20.498 168.788 20.582C168.714 20.666 168.625 20.708 168.522 20.708C168.41 20.708 168.242 20.6287 168.018 20.47C167.757 20.302 167.51 20.1713 167.276 20.078C167.043 19.9847 166.754 19.938 166.408 19.938C165.97 19.938 165.615 20.036 165.344 20.232C165.083 20.428 164.952 20.6893 164.952 21.016C164.952 21.2213 164.999 21.3893 165.092 21.52C165.195 21.6413 165.358 21.7533 165.582 21.856C165.816 21.9493 166.147 22.0427 166.576 22.136C167.211 22.276 167.701 22.43 168.046 22.598C168.401 22.766 168.653 22.9713 168.802 23.214C168.952 23.4567 169.026 23.7647 169.026 24.138C169.026 24.726 168.779 25.202 168.284 25.566C167.79 25.9207 167.136 26.098 166.324 26.098ZM174.331 25.174C174.657 25.202 174.821 25.3513 174.821 25.622C174.821 25.7807 174.76 25.902 174.639 25.986C174.527 26.0607 174.354 26.0887 174.121 26.07L173.743 26.042C172.996 25.986 172.445 25.762 172.091 25.37C171.736 24.978 171.559 24.3853 171.559 23.592V20.078H170.621C170.462 20.078 170.336 20.0407 170.243 19.966C170.159 19.882 170.117 19.7747 170.117 19.644C170.117 19.504 170.159 19.392 170.243 19.308C170.336 19.224 170.462 19.182 170.621 19.182H171.559V17.6C171.559 17.4227 171.61 17.2873 171.713 17.194C171.815 17.0913 171.955 17.04 172.133 17.04C172.301 17.04 172.436 17.0913 172.539 17.194C172.641 17.2873 172.693 17.4227 172.693 17.6V19.182H174.247C174.396 19.182 174.513 19.224 174.597 19.308C174.69 19.392 174.737 19.504 174.737 19.644C174.737 19.7747 174.69 19.882 174.597 19.966C174.513 20.0407 174.396 20.078 174.247 20.078H172.693V23.648C172.693 24.1613 172.795 24.5347 173.001 24.768C173.215 24.992 173.533 25.118 173.953 25.146L174.331 25.174ZM183.322 19.014C185.03 19.014 185.884 19.91 185.884 21.702V25.51C185.884 25.678 185.833 25.8133 185.73 25.916C185.637 26.0187 185.506 26.07 185.338 26.07C185.17 26.07 185.035 26.0187 184.932 25.916C184.829 25.8133 184.778 25.678 184.778 25.51V24.838C184.601 25.2393 184.33 25.552 183.966 25.776C183.602 25.9907 183.182 26.098 182.706 26.098C182.267 26.098 181.861 26.0093 181.488 25.832C181.124 25.6547 180.835 25.4073 180.62 25.09C180.405 24.7727 180.298 24.4227 180.298 24.04C180.298 23.5267 180.429 23.13 180.69 22.85C180.951 22.5607 181.381 22.3553 181.978 22.234C182.575 22.1033 183.406 22.038 184.47 22.038H184.778V21.576C184.778 21.016 184.661 20.6053 184.428 20.344C184.204 20.0827 183.835 19.952 183.322 19.952C182.687 19.952 182.043 20.1247 181.39 20.47C181.138 20.6287 180.961 20.708 180.858 20.708C180.746 20.708 180.653 20.666 180.578 20.582C180.503 20.498 180.466 20.3907 180.466 20.26C180.466 20.1293 180.503 20.0173 180.578 19.924C180.662 19.8213 180.793 19.7187 180.97 19.616C181.297 19.4293 181.665 19.2847 182.076 19.182C182.496 19.07 182.911 19.014 183.322 19.014ZM182.86 25.202C183.42 25.202 183.877 25.0153 184.232 24.642C184.596 24.2593 184.778 23.7693 184.778 23.172V22.766H184.526C183.705 22.766 183.079 22.8033 182.65 22.878C182.221 22.9433 181.913 23.06 181.726 23.228C181.549 23.3867 181.46 23.6247 181.46 23.942C181.46 24.306 181.591 24.6093 181.852 24.852C182.123 25.0853 182.459 25.202 182.86 25.202ZM191.268 26.098C190.633 26.098 190.069 25.9533 189.574 25.664C189.089 25.3747 188.711 24.964 188.44 24.432C188.179 23.9 188.048 23.284 188.048 22.584C188.048 21.884 188.183 21.2633 188.454 20.722C188.734 20.1807 189.121 19.7607 189.616 19.462C190.111 19.1633 190.68 19.014 191.324 19.014C191.679 19.014 192.029 19.0653 192.374 19.168C192.729 19.2613 193.037 19.4013 193.298 19.588C193.466 19.7 193.583 19.812 193.648 19.924C193.723 20.0267 193.76 20.1433 193.76 20.274C193.76 20.4047 193.723 20.512 193.648 20.596C193.583 20.68 193.494 20.722 193.382 20.722C193.317 20.722 193.247 20.7033 193.172 20.666C193.097 20.6287 193.032 20.5913 192.976 20.554C192.929 20.5167 192.897 20.4933 192.878 20.484C192.635 20.3253 192.402 20.1993 192.178 20.106C191.963 20.0127 191.697 19.966 191.38 19.966C190.699 19.966 190.167 20.1993 189.784 20.666C189.411 21.1233 189.224 21.7627 189.224 22.584C189.224 23.4053 189.411 24.04 189.784 24.488C190.167 24.936 190.699 25.16 191.38 25.16C191.697 25.16 191.968 25.1133 192.192 25.02C192.425 24.9267 192.659 24.8007 192.892 24.642C192.995 24.5767 193.093 24.5207 193.186 24.474C193.279 24.4273 193.359 24.404 193.424 24.404C193.527 24.404 193.611 24.446 193.676 24.53C193.751 24.614 193.788 24.7213 193.788 24.852C193.788 24.9733 193.755 25.0853 193.69 25.188C193.625 25.2813 193.503 25.3887 193.326 25.51C193.065 25.6873 192.747 25.832 192.374 25.944C192.01 26.0467 191.641 26.098 191.268 26.098ZM207.339 19.014C208.851 19.014 209.607 19.9147 209.607 21.716V25.51C209.607 25.6873 209.555 25.8273 209.453 25.93C209.35 26.0233 209.215 26.07 209.047 26.07C208.879 26.07 208.739 26.0233 208.627 25.93C208.524 25.8273 208.473 25.6873 208.473 25.51V21.744C208.473 21.1187 208.361 20.666 208.137 20.386C207.913 20.106 207.563 19.966 207.087 19.966C206.517 19.966 206.069 20.1573 205.743 20.54C205.416 20.9227 205.253 21.4407 205.253 22.094V25.51C205.253 25.6873 205.197 25.8273 205.085 25.93C204.982 26.0233 204.847 26.07 204.679 26.07C204.511 26.07 204.375 26.0233 204.273 25.93C204.17 25.8273 204.119 25.6873 204.119 25.51V21.744C204.119 21.1187 204.007 20.666 203.783 20.386C203.559 20.106 203.204 19.966 202.719 19.966C202.159 19.966 201.711 20.1573 201.375 20.54C201.048 20.9227 200.885 21.4407 200.885 22.094V25.51C200.885 25.6873 200.833 25.8273 200.731 25.93C200.628 26.0233 200.493 26.07 200.325 26.07C200.157 26.07 200.017 26.0233 199.905 25.93C199.802 25.8273 199.751 25.6873 199.751 25.51V19.602C199.751 19.434 199.802 19.2987 199.905 19.196C200.017 19.0933 200.157 19.042 200.325 19.042C200.483 19.042 200.614 19.0933 200.717 19.196C200.819 19.2893 200.871 19.42 200.871 19.588V20.26C201.076 19.8587 201.361 19.5507 201.725 19.336C202.089 19.1213 202.509 19.014 202.985 19.014C204.049 19.014 204.744 19.462 205.071 20.358C205.267 19.9473 205.565 19.6207 205.967 19.378C206.368 19.1353 206.825 19.014 207.339 19.014ZM212.741 26.07C212.573 26.07 212.433 26.0233 212.321 25.93C212.218 25.8273 212.167 25.6873 212.167 25.51V19.602C212.167 19.4247 212.218 19.2893 212.321 19.196C212.433 19.0933 212.573 19.042 212.741 19.042C212.909 19.042 213.044 19.0933 213.147 19.196C213.249 19.2893 213.301 19.4247 213.301 19.602V25.51C213.301 25.6967 213.249 25.8367 213.147 25.93C213.044 26.0233 212.909 26.07 212.741 26.07ZM212.741 17.572C212.517 17.572 212.335 17.5067 212.195 17.376C212.055 17.2453 211.985 17.0727 211.985 16.858C211.985 16.6527 212.055 16.4847 212.195 16.354C212.335 16.2233 212.517 16.158 212.741 16.158C212.965 16.158 213.147 16.2233 213.287 16.354C213.427 16.4847 213.497 16.6527 213.497 16.858C213.497 17.0727 213.427 17.2453 213.287 17.376C213.147 17.5067 212.965 17.572 212.741 17.572ZM220.592 26.07C220.424 26.07 220.284 26.0233 220.172 25.93C220.07 25.8273 220.018 25.6873 220.018 25.51V19.602C220.018 19.4247 220.07 19.2893 220.172 19.196C220.284 19.0933 220.424 19.042 220.592 19.042C220.76 19.042 220.896 19.0933 220.998 19.196C221.101 19.2893 221.152 19.4247 221.152 19.602V25.51C221.152 25.6967 221.101 25.8367 220.998 25.93C220.896 26.0233 220.76 26.07 220.592 26.07ZM220.592 17.572C220.368 17.572 220.186 17.5067 220.046 17.376C219.906 17.2453 219.836 17.0727 219.836 16.858C219.836 16.6527 219.906 16.4847 220.046 16.354C220.186 16.2233 220.368 16.158 220.592 16.158C220.816 16.158 220.998 16.2233 221.138 16.354C221.278 16.4847 221.348 16.6527 221.348 16.858C221.348 17.0727 221.278 17.2453 221.138 17.376C220.998 17.5067 220.816 17.572 220.592 17.572ZM231.354 19.014C232.866 19.014 233.622 19.9147 233.622 21.716V25.51C233.622 25.6873 233.571 25.8273 233.468 25.93C233.366 26.0233 233.23 26.07 233.062 26.07C232.894 26.07 232.754 26.0233 232.642 25.93C232.54 25.8273 232.488 25.6873 232.488 25.51V21.744C232.488 21.1187 232.376 20.666 232.152 20.386C231.928 20.106 231.578 19.966 231.102 19.966C230.533 19.966 230.085 20.1573 229.758 20.54C229.432 20.9227 229.268 21.4407 229.268 22.094V25.51C229.268 25.6873 229.212 25.8273 229.1 25.93C228.998 26.0233 228.862 26.07 228.694 26.07C228.526 26.07 228.391 26.0233 228.288 25.93C228.186 25.8273 228.134 25.6873 228.134 25.51V21.744C228.134 21.1187 228.022 20.666 227.798 20.386C227.574 20.106 227.22 19.966 226.734 19.966C226.174 19.966 225.726 20.1573 225.39 20.54C225.064 20.9227 224.9 21.4407 224.9 22.094V25.51C224.9 25.6873 224.849 25.8273 224.746 25.93C224.644 26.0233 224.508 26.07 224.34 26.07C224.172 26.07 224.032 26.0233 223.92 25.93C223.818 25.8273 223.766 25.6873 223.766 25.51V19.602C223.766 19.434 223.818 19.2987 223.92 19.196C224.032 19.0933 224.172 19.042 224.34 19.042C224.499 19.042 224.63 19.0933 224.732 19.196C224.835 19.2893 224.886 19.42 224.886 19.588V20.26C225.092 19.8587 225.376 19.5507 225.74 19.336C226.104 19.1213 226.524 19.014 227 19.014C228.064 19.014 228.76 19.462 229.086 20.358C229.282 19.9473 229.581 19.6207 229.982 19.378C230.384 19.1353 230.841 19.014 231.354 19.014ZM239.612 19.014C240.21 19.014 240.737 19.1633 241.194 19.462C241.652 19.7607 242.006 20.1807 242.258 20.722C242.51 21.254 242.636 21.8747 242.636 22.584C242.636 23.2933 242.51 23.914 242.258 24.446C242.006 24.9687 241.652 25.3747 241.194 25.664C240.746 25.9533 240.219 26.098 239.612 26.098C239.08 26.098 238.614 25.9813 238.212 25.748C237.82 25.5147 237.522 25.1833 237.316 24.754V28.044C237.316 28.212 237.265 28.3427 237.162 28.436C237.069 28.5387 236.934 28.59 236.756 28.59C236.579 28.59 236.439 28.5387 236.336 28.436C236.234 28.3333 236.182 28.2027 236.182 28.044V19.602C236.182 19.434 236.234 19.2987 236.336 19.196C236.439 19.0933 236.579 19.042 236.756 19.042C236.934 19.042 237.069 19.0933 237.162 19.196C237.265 19.2987 237.316 19.434 237.316 19.602V20.358C237.522 19.9287 237.82 19.5973 238.212 19.364C238.614 19.1307 239.08 19.014 239.612 19.014ZM239.388 25.16C240.051 25.16 240.564 24.936 240.928 24.488C241.292 24.04 241.474 23.4053 241.474 22.584C241.474 21.7627 241.292 21.1233 240.928 20.666C240.564 20.1993 240.051 19.966 239.388 19.966C238.726 19.966 238.212 20.19 237.848 20.638C237.494 21.086 237.316 21.7253 237.316 22.556C237.316 23.3867 237.494 24.0307 237.848 24.488C238.212 24.936 238.726 25.16 239.388 25.16ZM250.103 24.418C250.205 24.418 250.294 24.46 250.369 24.544C250.443 24.628 250.481 24.7353 250.481 24.866C250.481 25.0993 250.317 25.314 249.991 25.51C249.655 25.706 249.3 25.8553 248.927 25.958C248.553 26.0513 248.189 26.098 247.835 26.098C246.78 26.098 245.945 25.7853 245.329 25.16C244.722 24.5347 244.419 23.6713 244.419 22.57C244.419 21.87 244.554 21.254 244.825 20.722C245.095 20.1807 245.473 19.7607 245.959 19.462C246.453 19.1633 247.013 19.014 247.639 19.014C248.525 19.014 249.23 19.3033 249.753 19.882C250.275 20.4607 250.537 21.2447 250.537 22.234C250.537 22.4207 250.499 22.556 250.425 22.64C250.35 22.724 250.229 22.766 250.061 22.766H245.553C245.637 24.3713 246.397 25.174 247.835 25.174C248.199 25.174 248.511 25.1273 248.773 25.034C249.034 24.9313 249.314 24.796 249.613 24.628C249.855 24.488 250.019 24.418 250.103 24.418ZM247.653 19.896C247.055 19.896 246.575 20.0827 246.211 20.456C245.856 20.8293 245.646 21.3567 245.581 22.038H249.543C249.524 21.3473 249.351 20.82 249.025 20.456C248.698 20.0827 248.241 19.896 247.653 19.896ZM256.076 19.042C256.468 19.014 256.664 19.1727 256.664 19.518C256.664 19.6673 256.622 19.7887 256.538 19.882C256.454 19.966 256.309 20.0173 256.104 20.036L255.684 20.078C255.058 20.134 254.592 20.358 254.284 20.75C253.985 21.1327 253.836 21.5853 253.836 22.108V25.51C253.836 25.6967 253.784 25.8367 253.682 25.93C253.579 26.0233 253.444 26.07 253.276 26.07C253.108 26.07 252.968 26.0233 252.856 25.93C252.753 25.8273 252.702 25.6873 252.702 25.51V19.602C252.702 19.4247 252.758 19.2893 252.87 19.196C252.982 19.0933 253.117 19.042 253.276 19.042C253.425 19.042 253.551 19.0933 253.654 19.196C253.756 19.2893 253.808 19.42 253.808 19.588V20.372C254.004 19.9613 254.279 19.6487 254.634 19.434C254.998 19.2193 255.413 19.0933 255.88 19.056L256.076 19.042ZM263.469 16.06C263.646 16.06 263.786 16.1113 263.889 16.214C263.991 16.3167 264.043 16.4473 264.043 16.606V25.51C264.043 25.678 263.991 25.8133 263.889 25.916C263.786 26.0187 263.646 26.07 263.469 26.07C263.291 26.07 263.151 26.0187 263.049 25.916C262.955 25.8133 262.909 25.678 262.909 25.51V24.754C262.703 25.1833 262.4 25.5147 261.999 25.748C261.607 25.9813 261.145 26.098 260.613 26.098C260.015 26.098 259.488 25.9487 259.031 25.65C258.573 25.3513 258.219 24.936 257.967 24.404C257.715 23.8627 257.589 23.2373 257.589 22.528C257.589 21.828 257.715 21.212 257.967 20.68C258.219 20.148 258.573 19.7373 259.031 19.448C259.488 19.1587 260.015 19.014 260.613 19.014C261.145 19.014 261.607 19.1307 261.999 19.364C262.4 19.5973 262.703 19.9287 262.909 20.358V16.606C262.909 16.438 262.955 16.3073 263.049 16.214C263.151 16.1113 263.291 16.06 263.469 16.06ZM260.837 25.16C261.499 25.16 262.008 24.936 262.363 24.488C262.727 24.0307 262.909 23.3867 262.909 22.556C262.909 21.7253 262.727 21.086 262.363 20.638C262.008 20.19 261.499 19.966 260.837 19.966C260.174 19.966 259.656 20.19 259.283 20.638C258.919 21.086 258.737 21.716 258.737 22.528C258.737 23.3587 258.919 24.0073 259.283 24.474C259.656 24.9313 260.174 25.16 260.837 25.16ZM267.211 26.07C267.043 26.07 266.903 26.0233 266.791 25.93C266.689 25.8273 266.637 25.6873 266.637 25.51V19.602C266.637 19.4247 266.689 19.2893 266.791 19.196C266.903 19.0933 267.043 19.042 267.211 19.042C267.379 19.042 267.515 19.0933 267.617 19.196C267.72 19.2893 267.771 19.4247 267.771 19.602V25.51C267.771 25.6967 267.72 25.8367 267.617 25.93C267.515 26.0233 267.379 26.07 267.211 26.07ZM267.211 17.572C266.987 17.572 266.805 17.5067 266.665 17.376C266.525 17.2453 266.455 17.0727 266.455 16.858C266.455 16.6527 266.525 16.4847 266.665 16.354C266.805 16.2233 266.987 16.158 267.211 16.158C267.435 16.158 267.617 16.2233 267.757 16.354C267.897 16.4847 267.967 16.6527 267.967 16.858C267.967 17.0727 267.897 17.2453 267.757 17.376C267.617 17.5067 267.435 17.572 267.211 17.572ZM275.663 24.418C275.766 24.418 275.855 24.46 275.929 24.544C276.004 24.628 276.041 24.7353 276.041 24.866C276.041 25.0993 275.878 25.314 275.551 25.51C275.215 25.706 274.861 25.8553 274.487 25.958C274.114 26.0513 273.75 26.098 273.395 26.098C272.341 26.098 271.505 25.7853 270.889 25.16C270.283 24.5347 269.979 23.6713 269.979 22.57C269.979 21.87 270.115 21.254 270.385 20.722C270.656 20.1807 271.034 19.7607 271.519 19.462C272.014 19.1633 272.574 19.014 273.199 19.014C274.086 19.014 274.791 19.3033 275.313 19.882C275.836 20.4607 276.097 21.2447 276.097 22.234C276.097 22.4207 276.06 22.556 275.985 22.64C275.911 22.724 275.789 22.766 275.621 22.766H271.113C271.197 24.3713 271.958 25.174 273.395 25.174C273.759 25.174 274.072 25.1273 274.333 25.034C274.595 24.9313 274.875 24.796 275.173 24.628C275.416 24.488 275.579 24.418 275.663 24.418ZM273.213 19.896C272.616 19.896 272.135 20.0827 271.771 20.456C271.417 20.8293 271.207 21.3567 271.141 22.038H275.103C275.085 21.3473 274.912 20.82 274.585 20.456C274.259 20.0827 273.801 19.896 273.213 19.896ZM281.371 25.174C281.698 25.202 281.861 25.3513 281.861 25.622C281.861 25.7807 281.8 25.902 281.679 25.986C281.567 26.0607 281.394 26.0887 281.161 26.07L280.783 26.042C280.036 25.986 279.486 25.762 279.131 25.37C278.776 24.978 278.599 24.3853 278.599 23.592V20.078H277.661C277.502 20.078 277.376 20.0407 277.283 19.966C277.199 19.882 277.157 19.7747 277.157 19.644C277.157 19.504 277.199 19.392 277.283 19.308C277.376 19.224 277.502 19.182 277.661 19.182H278.599V17.6C278.599 17.4227 278.65 17.2873 278.753 17.194C278.856 17.0913 278.996 17.04 279.173 17.04C279.341 17.04 279.476 17.0913 279.579 17.194C279.682 17.2873 279.733 17.4227 279.733 17.6V19.182H281.287C281.436 19.182 281.553 19.224 281.637 19.308C281.73 19.392 281.777 19.504 281.777 19.644C281.777 19.7747 281.73 19.882 281.637 19.966C281.553 20.0407 281.436 20.078 281.287 20.078H279.733V23.648C279.733 24.1613 279.836 24.5347 280.041 24.768C280.256 24.992 280.573 25.118 280.993 25.146L281.371 25.174ZM291.007 19.014C291.604 19.014 292.131 19.1633 292.589 19.462C293.046 19.7607 293.401 20.1807 293.653 20.722C293.905 21.254 294.031 21.8747 294.031 22.584C294.031 23.2933 293.905 23.914 293.653 24.446C293.401 24.9687 293.046 25.3747 292.589 25.664C292.141 25.9533 291.613 26.098 291.007 26.098C290.475 26.098 290.008 25.9813 289.607 25.748C289.215 25.5147 288.916 25.1833 288.711 24.754V28.044C288.711 28.212 288.659 28.3427 288.557 28.436C288.463 28.5387 288.328 28.59 288.151 28.59C287.973 28.59 287.833 28.5387 287.731 28.436C287.628 28.3333 287.577 28.2027 287.577 28.044V19.602C287.577 19.434 287.628 19.2987 287.731 19.196C287.833 19.0933 287.973 19.042 288.151 19.042C288.328 19.042 288.463 19.0933 288.557 19.196C288.659 19.2987 288.711 19.434 288.711 19.602V20.358C288.916 19.9287 289.215 19.5973 289.607 19.364C290.008 19.1307 290.475 19.014 291.007 19.014ZM290.783 25.16C291.445 25.16 291.959 24.936 292.323 24.488C292.687 24.04 292.869 23.4053 292.869 22.584C292.869 21.7627 292.687 21.1233 292.323 20.666C291.959 20.1993 291.445 19.966 290.783 19.966C290.12 19.966 289.607 20.19 289.243 20.638C288.888 21.086 288.711 21.7253 288.711 22.556C288.711 23.3867 288.888 24.0307 289.243 24.488C289.607 24.936 290.12 25.16 290.783 25.16ZM301.497 24.418C301.6 24.418 301.688 24.46 301.763 24.544C301.838 24.628 301.875 24.7353 301.875 24.866C301.875 25.0993 301.712 25.314 301.385 25.51C301.049 25.706 300.694 25.8553 300.321 25.958C299.948 26.0513 299.584 26.098 299.229 26.098C298.174 26.098 297.339 25.7853 296.723 25.16C296.116 24.5347 295.813 23.6713 295.813 22.57C295.813 21.87 295.948 21.254 296.219 20.722C296.49 20.1807 296.868 19.7607 297.353 19.462C297.848 19.1633 298.408 19.014 299.033 19.014C299.92 19.014 300.624 19.3033 301.147 19.882C301.67 20.4607 301.931 21.2447 301.931 22.234C301.931 22.4207 301.894 22.556 301.819 22.64C301.744 22.724 301.623 22.766 301.455 22.766H296.947C297.031 24.3713 297.792 25.174 299.229 25.174C299.593 25.174 299.906 25.1273 300.167 25.034C300.428 24.9313 300.708 24.796 301.007 24.628C301.25 24.488 301.413 24.418 301.497 24.418ZM299.047 19.896C298.45 19.896 297.969 20.0827 297.605 20.456C297.25 20.8293 297.04 21.3567 296.975 22.038H300.937C300.918 21.3473 300.746 20.82 300.419 20.456C300.092 20.0827 299.635 19.896 299.047 19.896ZM304.67 26.07C304.502 26.07 304.362 26.0233 304.25 25.93C304.147 25.8273 304.096 25.6873 304.096 25.51V16.62C304.096 16.4427 304.147 16.3073 304.25 16.214C304.362 16.1113 304.502 16.06 304.67 16.06C304.829 16.06 304.959 16.1113 305.062 16.214C305.174 16.3073 305.23 16.4427 305.23 16.62V25.51C305.23 25.6873 305.174 25.8273 305.062 25.93C304.959 26.0233 304.829 26.07 304.67 26.07ZM308.418 26.07C308.25 26.07 308.11 26.0233 307.998 25.93C307.895 25.8273 307.844 25.6873 307.844 25.51V16.62C307.844 16.4427 307.895 16.3073 307.998 16.214C308.11 16.1113 308.25 16.06 308.418 16.06C308.577 16.06 308.707 16.1113 308.81 16.214C308.922 16.3073 308.978 16.4427 308.978 16.62V25.51C308.978 25.6873 308.922 25.8273 308.81 25.93C308.707 26.0233 308.577 26.07 308.418 26.07ZM316.87 24.418C316.973 24.418 317.061 24.46 317.136 24.544C317.211 24.628 317.248 24.7353 317.248 24.866C317.248 25.0993 317.085 25.314 316.758 25.51C316.422 25.706 316.067 25.8553 315.694 25.958C315.321 26.0513 314.957 26.098 314.602 26.098C313.547 26.098 312.712 25.7853 312.096 25.16C311.489 24.5347 311.186 23.6713 311.186 22.57C311.186 21.87 311.321 21.254 311.592 20.722C311.863 20.1807 312.241 19.7607 312.726 19.462C313.221 19.1633 313.781 19.014 314.406 19.014C315.293 19.014 315.997 19.3033 316.52 19.882C317.043 20.4607 317.304 21.2447 317.304 22.234C317.304 22.4207 317.267 22.556 317.192 22.64C317.117 22.724 316.996 22.766 316.828 22.766H312.32C312.404 24.3713 313.165 25.174 314.602 25.174C314.966 25.174 315.279 25.1273 315.54 25.034C315.801 24.9313 316.081 24.796 316.38 24.628C316.623 24.488 316.786 24.418 316.87 24.418ZM314.42 19.896C313.823 19.896 313.342 20.0827 312.978 20.456C312.623 20.8293 312.413 21.3567 312.348 22.038H316.31C316.291 21.3473 316.119 20.82 315.792 20.456C315.465 20.0827 315.008 19.896 314.42 19.896ZM322.899 19.014C324.532 19.014 325.349 19.9147 325.349 21.716V25.51C325.349 25.6873 325.298 25.8273 325.195 25.93C325.102 26.0233 324.966 26.07 324.789 26.07C324.612 26.07 324.472 26.0233 324.369 25.93C324.266 25.8273 324.215 25.6873 324.215 25.51V21.786C324.215 21.1513 324.089 20.6893 323.837 20.4C323.594 20.1107 323.202 19.966 322.661 19.966C322.036 19.966 321.536 20.1573 321.163 20.54C320.79 20.9227 320.603 21.4407 320.603 22.094V25.51C320.603 25.6873 320.552 25.8273 320.449 25.93C320.356 26.0233 320.22 26.07 320.043 26.07C319.866 26.07 319.726 26.0233 319.623 25.93C319.52 25.8273 319.469 25.6873 319.469 25.51V19.602C319.469 19.434 319.52 19.2987 319.623 19.196C319.726 19.0933 319.866 19.042 320.043 19.042C320.211 19.042 320.342 19.0933 320.435 19.196C320.538 19.2987 320.589 19.4293 320.589 19.588V20.302C320.813 19.882 321.126 19.5647 321.527 19.35C321.928 19.126 322.386 19.014 322.899 19.014ZM331.07 25.174C331.397 25.202 331.56 25.3513 331.56 25.622C331.56 25.7807 331.5 25.902 331.378 25.986C331.266 26.0607 331.094 26.0887 330.86 26.07L330.482 26.042C329.736 25.986 329.185 25.762 328.83 25.37C328.476 24.978 328.298 24.3853 328.298 23.592V20.078H327.36C327.202 20.078 327.076 20.0407 326.982 19.966C326.898 19.882 326.856 19.7747 326.856 19.644C326.856 19.504 326.898 19.392 326.982 19.308C327.076 19.224 327.202 19.182 327.36 19.182H328.298V17.6C328.298 17.4227 328.35 17.2873 328.452 17.194C328.555 17.0913 328.695 17.04 328.872 17.04C329.04 17.04 329.176 17.0913 329.278 17.194C329.381 17.2873 329.432 17.4227 329.432 17.6V19.182H330.986C331.136 19.182 331.252 19.224 331.336 19.308C331.43 19.392 331.476 19.504 331.476 19.644C331.476 19.7747 331.43 19.882 331.336 19.966C331.252 20.0407 331.136 20.078 330.986 20.078H329.432V23.648C329.432 24.1613 329.535 24.5347 329.74 24.768C329.955 24.992 330.272 25.118 330.692 25.146L331.07 25.174ZM338.45 24.418C338.553 24.418 338.641 24.46 338.716 24.544C338.791 24.628 338.828 24.7353 338.828 24.866C338.828 25.0993 338.665 25.314 338.338 25.51C338.002 25.706 337.647 25.8553 337.274 25.958C336.901 26.0513 336.537 26.098 336.182 26.098C335.127 26.098 334.292 25.7853 333.676 25.16C333.069 24.5347 332.766 23.6713 332.766 22.57C332.766 21.87 332.901 21.254 333.172 20.722C333.443 20.1807 333.821 19.7607 334.306 19.462C334.801 19.1633 335.361 19.014 335.986 19.014C336.873 19.014 337.577 19.3033 338.1 19.882C338.623 20.4607 338.884 21.2447 338.884 22.234C338.884 22.4207 338.847 22.556 338.772 22.64C338.697 22.724 338.576 22.766 338.408 22.766H333.9C333.984 24.3713 334.745 25.174 336.182 25.174C336.546 25.174 336.859 25.1273 337.12 25.034C337.381 24.9313 337.661 24.796 337.96 24.628C338.203 24.488 338.366 24.418 338.45 24.418ZM336 19.896C335.403 19.896 334.922 20.0827 334.558 20.456C334.203 20.8293 333.993 21.3567 333.928 22.038H337.89C337.871 21.3473 337.699 20.82 337.372 20.456C337.045 20.0827 336.588 19.896 336 19.896ZM343.345 26.098C342.916 26.098 342.505 26.0467 342.113 25.944C341.73 25.8413 341.39 25.6967 341.091 25.51C340.923 25.398 340.802 25.2953 340.727 25.202C340.662 25.0993 340.629 24.978 340.629 24.838C340.629 24.7167 340.662 24.6187 340.727 24.544C340.802 24.46 340.895 24.418 341.007 24.418C341.119 24.418 341.282 24.488 341.497 24.628C341.777 24.796 342.052 24.9313 342.323 25.034C342.603 25.1273 342.948 25.174 343.359 25.174C343.863 25.174 344.255 25.0853 344.535 24.908C344.815 24.7307 344.955 24.474 344.955 24.138C344.955 23.9327 344.904 23.7693 344.801 23.648C344.698 23.5173 344.521 23.4053 344.269 23.312C344.017 23.2093 343.648 23.1067 343.163 23.004C342.342 22.8267 341.754 22.5887 341.399 22.29C341.044 21.9913 340.867 21.5853 340.867 21.072C340.867 20.6707 340.979 20.316 341.203 20.008C341.427 19.7 341.735 19.4573 342.127 19.28C342.528 19.1027 342.981 19.014 343.485 19.014C343.849 19.014 344.199 19.0653 344.535 19.168C344.88 19.2613 345.184 19.3967 345.445 19.574C345.762 19.798 345.921 20.0313 345.921 20.274C345.921 20.3953 345.884 20.498 345.809 20.582C345.734 20.666 345.646 20.708 345.543 20.708C345.431 20.708 345.263 20.6287 345.039 20.47C344.778 20.302 344.53 20.1713 344.297 20.078C344.064 19.9847 343.774 19.938 343.429 19.938C342.99 19.938 342.636 20.036 342.365 20.232C342.104 20.428 341.973 20.6893 341.973 21.016C341.973 21.2213 342.02 21.3893 342.113 21.52C342.216 21.6413 342.379 21.7533 342.603 21.856C342.836 21.9493 343.168 22.0427 343.597 22.136C344.232 22.276 344.722 22.43 345.067 22.598C345.422 22.766 345.674 22.9713 345.823 23.214C345.972 23.4567 346.047 23.7647 346.047 24.138C346.047 24.726 345.8 25.202 345.305 25.566C344.81 25.9207 344.157 26.098 343.345 26.098ZM353.744 19.042C353.921 19.042 354.061 19.0933 354.164 19.196C354.266 19.2987 354.318 19.434 354.318 19.602V28.044C354.318 28.2027 354.266 28.3333 354.164 28.436C354.061 28.5387 353.921 28.59 353.744 28.59C353.566 28.59 353.426 28.5387 353.324 28.436C353.23 28.3427 353.184 28.212 353.184 28.044V24.754C352.978 25.1833 352.675 25.5147 352.274 25.748C351.882 25.9813 351.42 26.098 350.888 26.098C350.281 26.098 349.749 25.9533 349.292 25.664C348.844 25.3747 348.494 24.9687 348.242 24.446C347.99 23.914 347.864 23.2933 347.864 22.584C347.864 21.8747 347.99 21.254 348.242 20.722C348.494 20.1807 348.848 19.7607 349.306 19.462C349.763 19.1633 350.29 19.014 350.888 19.014C351.42 19.014 351.882 19.1307 352.274 19.364C352.675 19.5973 352.978 19.9287 353.184 20.358V19.602C353.184 19.434 353.23 19.2987 353.324 19.196C353.426 19.0933 353.566 19.042 353.744 19.042ZM351.112 25.16C351.774 25.16 352.283 24.936 352.638 24.488C353.002 24.0307 353.184 23.3867 353.184 22.556C353.184 21.7253 353.002 21.086 352.638 20.638C352.283 20.19 351.774 19.966 351.112 19.966C350.449 19.966 349.931 20.1993 349.558 20.666C349.194 21.1233 349.012 21.7627 349.012 22.584C349.012 23.4053 349.194 24.04 349.558 24.488C349.931 24.936 350.449 25.16 351.112 25.16ZM362.092 19.042C362.27 19.042 362.405 19.0933 362.498 19.196C362.601 19.2987 362.652 19.434 362.652 19.602V25.524C362.652 25.6827 362.601 25.8133 362.498 25.916C362.405 26.0187 362.27 26.07 362.092 26.07C361.924 26.07 361.789 26.0233 361.686 25.93C361.593 25.8273 361.546 25.6967 361.546 25.538V24.838C361.332 25.2487 361.028 25.5613 360.636 25.776C360.254 25.9907 359.82 26.098 359.334 26.098C358.522 26.098 357.911 25.874 357.5 25.426C357.09 24.9687 356.884 24.2967 356.884 23.41V19.602C356.884 19.434 356.936 19.2987 357.038 19.196C357.141 19.0933 357.281 19.042 357.458 19.042C357.636 19.042 357.771 19.0933 357.864 19.196C357.967 19.2987 358.018 19.434 358.018 19.602V23.382C358.018 23.9887 358.14 24.4367 358.382 24.726C358.625 25.006 359.008 25.146 359.53 25.146C360.128 25.146 360.608 24.9547 360.972 24.572C361.336 24.18 361.518 23.6667 361.518 23.032V19.602C361.518 19.434 361.57 19.2987 361.672 19.196C361.775 19.0933 361.915 19.042 362.092 19.042ZM370.532 24.418C370.635 24.418 370.723 24.46 370.798 24.544C370.873 24.628 370.91 24.7353 370.91 24.866C370.91 25.0993 370.747 25.314 370.42 25.51C370.084 25.706 369.729 25.8553 369.356 25.958C368.983 26.0513 368.619 26.098 368.264 26.098C367.209 26.098 366.374 25.7853 365.758 25.16C365.151 24.5347 364.848 23.6713 364.848 22.57C364.848 21.87 364.983 21.254 365.254 20.722C365.525 20.1807 365.903 19.7607 366.388 19.462C366.883 19.1633 367.443 19.014 368.068 19.014C368.955 19.014 369.659 19.3033 370.182 19.882C370.705 20.4607 370.966 21.2447 370.966 22.234C370.966 22.4207 370.929 22.556 370.854 22.64C370.779 22.724 370.658 22.766 370.49 22.766H365.982C366.066 24.3713 366.827 25.174 368.264 25.174C368.628 25.174 368.941 25.1273 369.202 25.034C369.463 24.9313 369.743 24.796 370.042 24.628C370.285 24.488 370.448 24.418 370.532 24.418ZM368.082 19.896C367.485 19.896 367.004 20.0827 366.64 20.456C366.285 20.8293 366.075 21.3567 366.01 22.038H369.972C369.953 21.3473 369.781 20.82 369.454 20.456C369.127 20.0827 368.67 19.896 368.082 19.896ZM373.691 26.07C373.467 26.07 373.28 26 373.131 25.86C372.982 25.7107 372.907 25.5193 372.907 25.286C372.907 25.0527 372.982 24.8613 373.131 24.712C373.28 24.5627 373.467 24.488 373.691 24.488C373.906 24.488 374.083 24.5627 374.223 24.712C374.372 24.8613 374.447 25.0527 374.447 25.286C374.447 25.5193 374.372 25.7107 374.223 25.86C374.083 26 373.906 26.07 373.691 26.07Z" fill="#77838F"/>
<path d="M30.2232 22.6518C30.2827 22.7113 30.3125 22.7798 30.3125 22.8571C30.3125 22.9345 30.2827 23.003 30.2232 23.0625L26.0625 27.2232C26.003 27.2827 25.9345 27.3125 25.8571 27.3125C25.7798 27.3125 25.7113 27.2827 25.6518 27.2232L25.2054 26.7768C25.1458 26.7173 25.1161 26.6488 25.1161 26.5714C25.1161 26.494 25.1458 26.4256 25.2054 26.3661L28.7143 22.8571L25.2054 19.3482C25.1458 19.2887 25.1161 19.2202 25.1161 19.1429C25.1161 19.0655 25.1458 18.997 25.2054 18.9375L25.6518 18.4911C25.7113 18.4315 25.7798 18.4018 25.8571 18.4018C25.9345 18.4018 26.003 18.4315 26.0625 18.4911L30.2232 22.6518Z" fill="white"/>
</g>
<defs>
<filter id="filter0_d_0_52" x="-48" y="-46" width="553" height="137" filterUnits="userSpaceOnUse" color-interpolation-filters="sRGB">
<feFlood flood-opacity="0" result="BackgroundImageFix"/>
<feColorMatrix in="SourceAlpha" type="matrix" values="0 0 0 0 0 0 0 0 0 0 0 0 0 0 0 0 0 0 127 0" result="hardAlpha"/>
<feOffset dy="2"/>
<feGaussianBlur stdDeviation="24"/>
<feColorMatrix type="matrix" values="0 0 0 0 0 0 0 0 0 0 0 0 0 0 0 0 0 0 0.06 0"/>
<feBlend mode="normal" in2="BackgroundImageFix" result="effect1_dropShadow_0_52"/>
<feBlend mode="normal" in="SourceGraphic" in2="effect1_dropShadow_0_52" result="shape"/>
</filter>
<linearGradient id="paint0_linear_0_52" x1="-28.1395" y1="20.5864" x2="10.5676" y2="74.3988" gradientUnits="userSpaceOnUse">
<stop stop-color="#192B74"/>
<stop offset="1" stop-color="#2946A1"/>
</linearGradient>
<clipPath id="clip0_0_52">
<rect width="457" height="41" fill="white"/>
</clipPath>
</defs>
</svg>
