<svg width="457" height="41" viewBox="0 0 457 41" fill="none" xmlns="http://www.w3.org/2000/svg">
<g clip-path="url(#clip0_0_57)">
<g filter="url(#filter0_d_0_57)">
<rect width="457" height="41" rx="4" fill="white"/>
</g>
<path fill-rule="evenodd" clip-rule="evenodd" d="M0 4C0 1.79086 1.79086 0 4 0H47V41H4C1.79086 41 0 39.2091 0 37V4Z" fill="#EDF3FF"/>
<path d="M66.456 16.354C66.5027 16.2513 66.568 16.172 66.652 16.116C66.7453 16.06 66.8433 16.032 66.946 16.032C67.0953 16.032 67.226 16.0833 67.338 16.186C67.4593 16.2793 67.52 16.396 67.52 16.536C67.52 16.6107 67.5013 16.6853 67.464 16.76L63.446 25.692C63.39 25.8133 63.306 25.9067 63.194 25.972C63.082 26.0373 62.9607 26.07 62.83 26.07C62.6993 26.07 62.578 26.0373 62.466 25.972C62.354 25.9067 62.27 25.8133 62.214 25.692L58.21 16.76C58.182 16.6853 58.168 16.6153 58.168 16.55C58.168 16.4007 58.2287 16.2793 58.35 16.186C58.4713 16.0833 58.6067 16.032 58.756 16.032C58.98 16.032 59.1433 16.1393 59.246 16.354L62.858 24.516L66.456 16.354ZM73.7225 24.418C73.8252 24.418 73.9138 24.46 73.9885 24.544C74.0632 24.628 74.1005 24.7353 74.1005 24.866C74.1005 25.0993 73.9372 25.314 73.6105 25.51C73.2745 25.706 72.9198 25.8553 72.5465 25.958C72.1732 26.0513 71.8092 26.098 71.4545 26.098C70.3998 26.098 69.5645 25.7853 68.9485 25.16C68.3418 24.5347 68.0385 23.6713 68.0385 22.57C68.0385 21.87 68.1738 21.254 68.4445 20.722C68.7152 20.1807 69.0932 19.7607 69.5785 19.462C70.0732 19.1633 70.6332 19.014 71.2585 19.014C72.1452 19.014 72.8498 19.3033 73.3725 19.882C73.8952 20.4607 74.1565 21.2447 74.1565 22.234C74.1565 22.4207 74.1192 22.556 74.0445 22.64C73.9698 22.724 73.8485 22.766 73.6805 22.766H69.1725C69.2565 24.3713 70.0172 25.174 71.4545 25.174C71.8185 25.174 72.1312 25.1273 72.3925 25.034C72.6538 24.9313 72.9338 24.796 73.2325 24.628C73.4752 24.488 73.6385 24.418 73.7225 24.418ZM71.2725 19.896C70.6752 19.896 70.1945 20.0827 69.8305 20.456C69.4758 20.8293 69.2658 21.3567 69.2005 22.038H73.1625C73.1438 21.3473 72.9712 20.82 72.6445 20.456C72.3178 20.0827 71.8605 19.896 71.2725 19.896ZM78.6174 26.098C78.1881 26.098 77.7774 26.0467 77.3854 25.944C77.0028 25.8413 76.6621 25.6967 76.3634 25.51C76.1954 25.398 76.0741 25.2953 75.9994 25.202C75.9341 25.0993 75.9014 24.978 75.9014 24.838C75.9014 24.7167 75.9341 24.6187 75.9994 24.544C76.0741 24.46 76.1674 24.418 76.2794 24.418C76.3914 24.418 76.5548 24.488 76.7694 24.628C77.0494 24.796 77.3248 24.9313 77.5954 25.034C77.8754 25.1273 78.2208 25.174 78.6314 25.174C79.1354 25.174 79.5274 25.0853 79.8074 24.908C80.0874 24.7307 80.2274 24.474 80.2274 24.138C80.2274 23.9327 80.1761 23.7693 80.0734 23.648C79.9708 23.5173 79.7934 23.4053 79.5414 23.312C79.2894 23.2093 78.9208 23.1067 78.4354 23.004C77.6141 22.8267 77.0261 22.5887 76.6714 22.29C76.3168 21.9913 76.1394 21.5853 76.1394 21.072C76.1394 20.6707 76.2514 20.316 76.4754 20.008C76.6994 19.7 77.0074 19.4573 77.3994 19.28C77.8008 19.1027 78.2534 19.014 78.7574 19.014C79.1214 19.014 79.4714 19.0653 79.8074 19.168C80.1528 19.2613 80.4561 19.3967 80.7174 19.574C81.0348 19.798 81.1934 20.0313 81.1934 20.274C81.1934 20.3953 81.1561 20.498 81.0814 20.582C81.0068 20.666 80.9181 20.708 80.8154 20.708C80.7034 20.708 80.5354 20.6287 80.3114 20.47C80.0501 20.302 79.8028 20.1713 79.5694 20.078C79.3361 19.9847 79.0468 19.938 78.7014 19.938C78.2628 19.938 77.9081 20.036 77.6374 20.232C77.3761 20.428 77.2454 20.6893 77.2454 21.016C77.2454 21.2213 77.2921 21.3893 77.3854 21.52C77.4881 21.6413 77.6514 21.7533 77.8754 21.856C78.1088 21.9493 78.4401 22.0427 78.8694 22.136C79.5041 22.276 79.9941 22.43 80.3394 22.598C80.6941 22.766 80.9461 22.9713 81.0954 23.214C81.2448 23.4567 81.3194 23.7647 81.3194 24.138C81.3194 24.726 81.0721 25.202 80.5774 25.566C80.0828 25.9207 79.4294 26.098 78.6174 26.098ZM86.6238 25.174C86.9504 25.202 87.1138 25.3513 87.1138 25.622C87.1138 25.7807 87.0531 25.902 86.9318 25.986C86.8198 26.0607 86.6471 26.0887 86.4138 26.07L86.0358 26.042C85.2891 25.986 84.7384 25.762 84.3838 25.37C84.0291 24.978 83.8518 24.3853 83.8518 23.592V20.078H82.9138C82.7551 20.078 82.6291 20.0407 82.5358 19.966C82.4518 19.882 82.4098 19.7747 82.4098 19.644C82.4098 19.504 82.4518 19.392 82.5358 19.308C82.6291 19.224 82.7551 19.182 82.9138 19.182H83.8518V17.6C83.8518 17.4227 83.9031 17.2873 84.0058 17.194C84.1084 17.0913 84.2484 17.04 84.4258 17.04C84.5938 17.04 84.7291 17.0913 84.8318 17.194C84.9344 17.2873 84.9858 17.4227 84.9858 17.6V19.182H86.5398C86.6891 19.182 86.8058 19.224 86.8898 19.308C86.9831 19.392 87.0298 19.504 87.0298 19.644C87.0298 19.7747 86.9831 19.882 86.8898 19.966C86.8058 20.0407 86.6891 20.078 86.5398 20.078H84.9858V23.648C84.9858 24.1613 85.0884 24.5347 85.2938 24.768C85.5084 24.992 85.8258 25.118 86.2458 25.146L86.6238 25.174ZM89.2997 26.07C89.1317 26.07 88.9917 26.0233 88.8797 25.93C88.777 25.8273 88.7257 25.6873 88.7257 25.51V19.602C88.7257 19.4247 88.777 19.2893 88.8797 19.196C88.9917 19.0933 89.1317 19.042 89.2997 19.042C89.4677 19.042 89.603 19.0933 89.7057 19.196C89.8084 19.2893 89.8597 19.4247 89.8597 19.602V25.51C89.8597 25.6967 89.8084 25.8367 89.7057 25.93C89.603 26.0233 89.4677 26.07 89.2997 26.07ZM89.2997 17.572C89.0757 17.572 88.8937 17.5067 88.7537 17.376C88.6137 17.2453 88.5437 17.0727 88.5437 16.858C88.5437 16.6527 88.6137 16.4847 88.7537 16.354C88.8937 16.2233 89.0757 16.158 89.2997 16.158C89.5237 16.158 89.7057 16.2233 89.8457 16.354C89.9857 16.4847 90.0557 16.6527 90.0557 16.858C90.0557 17.0727 89.9857 17.2453 89.8457 17.376C89.7057 17.5067 89.5237 17.572 89.2997 17.572ZM95.9037 19.014C96.501 19.014 97.0284 19.1587 97.4857 19.448C97.943 19.7373 98.2977 20.148 98.5497 20.68C98.8017 21.212 98.9277 21.828 98.9277 22.528C98.9277 23.2373 98.8017 23.8627 98.5497 24.404C98.2977 24.936 97.943 25.3513 97.4857 25.65C97.0284 25.9487 96.501 26.098 95.9037 26.098C95.3717 26.098 94.905 25.9813 94.5037 25.748C94.1117 25.5147 93.813 25.1833 93.6077 24.754V25.51C93.6077 25.678 93.5564 25.8133 93.4537 25.916C93.3604 26.0187 93.225 26.07 93.0477 26.07C92.8704 26.07 92.7304 26.0187 92.6277 25.916C92.525 25.8133 92.4737 25.678 92.4737 25.51V16.606C92.4737 16.4473 92.525 16.3167 92.6277 16.214C92.7304 16.1113 92.8704 16.06 93.0477 16.06C93.225 16.06 93.3604 16.1113 93.4537 16.214C93.5564 16.3073 93.6077 16.438 93.6077 16.606V20.358C93.813 19.9287 94.1117 19.5973 94.5037 19.364C94.905 19.1307 95.3717 19.014 95.9037 19.014ZM95.6797 25.16C96.3424 25.16 96.8557 24.9313 97.2197 24.474C97.5837 24.0073 97.7657 23.3587 97.7657 22.528C97.7657 21.716 97.5837 21.086 97.2197 20.638C96.8557 20.19 96.3424 19.966 95.6797 19.966C95.017 19.966 94.5037 20.19 94.1397 20.638C93.785 21.086 93.6077 21.7253 93.6077 22.556C93.6077 23.3867 93.785 24.0307 94.1397 24.488C94.5037 24.936 95.017 25.16 95.6797 25.16ZM106.296 19.042C106.474 19.042 106.609 19.0933 106.702 19.196C106.805 19.2987 106.856 19.434 106.856 19.602V25.524C106.856 25.6827 106.805 25.8133 106.702 25.916C106.609 26.0187 106.474 26.07 106.296 26.07C106.128 26.07 105.993 26.0233 105.89 25.93C105.797 25.8273 105.75 25.6967 105.75 25.538V24.838C105.536 25.2487 105.232 25.5613 104.84 25.776C104.458 25.9907 104.024 26.098 103.538 26.098C102.726 26.098 102.115 25.874 101.704 25.426C101.294 24.9687 101.088 24.2967 101.088 23.41V19.602C101.088 19.434 101.14 19.2987 101.242 19.196C101.345 19.0933 101.485 19.042 101.662 19.042C101.84 19.042 101.975 19.0933 102.068 19.196C102.171 19.2987 102.222 19.434 102.222 19.602V23.382C102.222 23.9887 102.344 24.4367 102.586 24.726C102.829 25.006 103.212 25.146 103.734 25.146C104.332 25.146 104.812 24.9547 105.176 24.572C105.54 24.18 105.722 23.6667 105.722 23.032V19.602C105.722 19.434 105.774 19.2987 105.876 19.196C105.979 19.0933 106.119 19.042 106.296 19.042ZM110.032 26.07C109.864 26.07 109.724 26.0233 109.612 25.93C109.509 25.8273 109.458 25.6873 109.458 25.51V16.62C109.458 16.4427 109.509 16.3073 109.612 16.214C109.724 16.1113 109.864 16.06 110.032 16.06C110.191 16.06 110.321 16.1113 110.424 16.214C110.536 16.3073 110.592 16.4427 110.592 16.62V25.51C110.592 25.6873 110.536 25.8273 110.424 25.93C110.321 26.0233 110.191 26.07 110.032 26.07ZM118.386 19.042C118.563 19.042 118.699 19.0933 118.792 19.196C118.895 19.2987 118.946 19.434 118.946 19.602V25.524C118.946 25.6827 118.895 25.8133 118.792 25.916C118.699 26.0187 118.563 26.07 118.386 26.07C118.218 26.07 118.083 26.0233 117.98 25.93C117.887 25.8273 117.84 25.6967 117.84 25.538V24.838C117.625 25.2487 117.322 25.5613 116.93 25.776C116.547 25.9907 116.113 26.098 115.628 26.098C114.816 26.098 114.205 25.874 113.794 25.426C113.383 24.9687 113.178 24.2967 113.178 23.41V19.602C113.178 19.434 113.229 19.2987 113.332 19.196C113.435 19.0933 113.575 19.042 113.752 19.042C113.929 19.042 114.065 19.0933 114.158 19.196C114.261 19.2987 114.312 19.434 114.312 19.602V23.382C114.312 23.9887 114.433 24.4367 114.676 24.726C114.919 25.006 115.301 25.146 115.824 25.146C116.421 25.146 116.902 24.9547 117.266 24.572C117.63 24.18 117.812 23.6667 117.812 23.032V19.602C117.812 19.434 117.863 19.2987 117.966 19.196C118.069 19.0933 118.209 19.042 118.386 19.042ZM129.136 19.014C130.648 19.014 131.404 19.9147 131.404 21.716V25.51C131.404 25.6873 131.353 25.8273 131.25 25.93C131.147 26.0233 131.012 26.07 130.844 26.07C130.676 26.07 130.536 26.0233 130.424 25.93C130.321 25.8273 130.27 25.6873 130.27 25.51V21.744C130.27 21.1187 130.158 20.666 129.934 20.386C129.71 20.106 129.36 19.966 128.884 19.966C128.315 19.966 127.867 20.1573 127.54 20.54C127.213 20.9227 127.05 21.4407 127.05 22.094V25.51C127.05 25.6873 126.994 25.8273 126.882 25.93C126.779 26.0233 126.644 26.07 126.476 26.07C126.308 26.07 126.173 26.0233 126.07 25.93C125.967 25.8273 125.916 25.6873 125.916 25.51V21.744C125.916 21.1187 125.804 20.666 125.58 20.386C125.356 20.106 125.001 19.966 124.516 19.966C123.956 19.966 123.508 20.1573 123.172 20.54C122.845 20.9227 122.682 21.4407 122.682 22.094V25.51C122.682 25.6873 122.631 25.8273 122.528 25.93C122.425 26.0233 122.29 26.07 122.122 26.07C121.954 26.07 121.814 26.0233 121.702 25.93C121.599 25.8273 121.548 25.6873 121.548 25.51V19.602C121.548 19.434 121.599 19.2987 121.702 19.196C121.814 19.0933 121.954 19.042 122.122 19.042C122.281 19.042 122.411 19.0933 122.514 19.196C122.617 19.2893 122.668 19.42 122.668 19.588V20.26C122.873 19.8587 123.158 19.5507 123.522 19.336C123.886 19.1213 124.306 19.014 124.782 19.014C125.846 19.014 126.541 19.462 126.868 20.358C127.064 19.9473 127.363 19.6207 127.764 19.378C128.165 19.1353 128.623 19.014 129.136 19.014ZM142.981 19.392C143.084 19.168 143.247 19.056 143.471 19.056C143.611 19.056 143.737 19.1027 143.849 19.196C143.961 19.2893 144.017 19.406 144.017 19.546C144.017 19.63 143.999 19.7047 143.961 19.77L141.231 25.65C141.175 25.7713 141.091 25.8693 140.979 25.944C140.867 26.0093 140.746 26.042 140.615 26.042C140.494 26.042 140.377 26.0093 140.265 25.944C140.153 25.8693 140.065 25.7713 139.999 25.65L137.283 19.77C137.246 19.7047 137.227 19.6347 137.227 19.56C137.227 19.42 137.288 19.2987 137.409 19.196C137.54 19.0933 137.68 19.042 137.829 19.042C137.923 19.042 138.011 19.07 138.095 19.126C138.189 19.182 138.259 19.2613 138.305 19.364L140.643 24.614L142.981 19.392ZM146.505 26.07C146.337 26.07 146.197 26.0233 146.085 25.93C145.982 25.8273 145.931 25.6873 145.931 25.51V19.602C145.931 19.4247 145.982 19.2893 146.085 19.196C146.197 19.0933 146.337 19.042 146.505 19.042C146.673 19.042 146.808 19.0933 146.911 19.196C147.013 19.2893 147.065 19.4247 147.065 19.602V25.51C147.065 25.6967 147.013 25.8367 146.911 25.93C146.808 26.0233 146.673 26.07 146.505 26.07ZM146.505 17.572C146.281 17.572 146.099 17.5067 145.959 17.376C145.819 17.2453 145.749 17.0727 145.749 16.858C145.749 16.6527 145.819 16.4847 145.959 16.354C146.099 16.2233 146.281 16.158 146.505 16.158C146.729 16.158 146.911 16.2233 147.051 16.354C147.191 16.4847 147.261 16.6527 147.261 16.858C147.261 17.0727 147.191 17.2453 147.051 17.376C146.911 17.5067 146.729 17.572 146.505 17.572ZM152.938 25.174C153.265 25.202 153.428 25.3513 153.428 25.622C153.428 25.7807 153.367 25.902 153.246 25.986C153.134 26.0607 152.961 26.0887 152.728 26.07L152.35 26.042C151.603 25.986 151.053 25.762 150.698 25.37C150.343 24.978 150.166 24.3853 150.166 23.592V20.078H149.228C149.069 20.078 148.943 20.0407 148.85 19.966C148.766 19.882 148.724 19.7747 148.724 19.644C148.724 19.504 148.766 19.392 148.85 19.308C148.943 19.224 149.069 19.182 149.228 19.182H150.166V17.6C150.166 17.4227 150.217 17.2873 150.32 17.194C150.423 17.0913 150.563 17.04 150.74 17.04C150.908 17.04 151.043 17.0913 151.146 17.194C151.249 17.2873 151.3 17.4227 151.3 17.6V19.182H152.854C153.003 19.182 153.12 19.224 153.204 19.308C153.297 19.392 153.344 19.504 153.344 19.644C153.344 19.7747 153.297 19.882 153.204 19.966C153.12 20.0407 153.003 20.078 152.854 20.078H151.3V23.648C151.3 24.1613 151.403 24.5347 151.608 24.768C151.823 24.992 152.14 25.118 152.56 25.146L152.938 25.174ZM157.826 19.014C159.534 19.014 160.388 19.91 160.388 21.702V25.51C160.388 25.678 160.337 25.8133 160.234 25.916C160.141 26.0187 160.01 26.07 159.842 26.07C159.674 26.07 159.539 26.0187 159.436 25.916C159.333 25.8133 159.282 25.678 159.282 25.51V24.838C159.105 25.2393 158.834 25.552 158.47 25.776C158.106 25.9907 157.686 26.098 157.21 26.098C156.771 26.098 156.365 26.0093 155.992 25.832C155.628 25.6547 155.339 25.4073 155.124 25.09C154.909 24.7727 154.802 24.4227 154.802 24.04C154.802 23.5267 154.933 23.13 155.194 22.85C155.455 22.5607 155.885 22.3553 156.482 22.234C157.079 22.1033 157.91 22.038 158.974 22.038H159.282V21.576C159.282 21.016 159.165 20.6053 158.932 20.344C158.708 20.0827 158.339 19.952 157.826 19.952C157.191 19.952 156.547 20.1247 155.894 20.47C155.642 20.6287 155.465 20.708 155.362 20.708C155.25 20.708 155.157 20.666 155.082 20.582C155.007 20.498 154.97 20.3907 154.97 20.26C154.97 20.1293 155.007 20.0173 155.082 19.924C155.166 19.8213 155.297 19.7187 155.474 19.616C155.801 19.4293 156.169 19.2847 156.58 19.182C157 19.07 157.415 19.014 157.826 19.014ZM157.364 25.202C157.924 25.202 158.381 25.0153 158.736 24.642C159.1 24.2593 159.282 23.7693 159.282 23.172V22.766H159.03C158.209 22.766 157.583 22.8033 157.154 22.878C156.725 22.9433 156.417 23.06 156.23 23.228C156.053 23.3867 155.964 23.6247 155.964 23.942C155.964 24.306 156.095 24.6093 156.356 24.852C156.627 25.0853 156.963 25.202 157.364 25.202ZM168.236 24.418C168.339 24.418 168.427 24.46 168.502 24.544C168.577 24.628 168.614 24.7353 168.614 24.866C168.614 25.0993 168.451 25.314 168.124 25.51C167.788 25.706 167.433 25.8553 167.06 25.958C166.687 26.0513 166.323 26.098 165.968 26.098C164.913 26.098 164.078 25.7853 163.462 25.16C162.855 24.5347 162.552 23.6713 162.552 22.57C162.552 21.87 162.687 21.254 162.958 20.722C163.229 20.1807 163.607 19.7607 164.092 19.462C164.587 19.1633 165.147 19.014 165.772 19.014C166.659 19.014 167.363 19.3033 167.886 19.882C168.409 20.4607 168.67 21.2447 168.67 22.234C168.67 22.4207 168.633 22.556 168.558 22.64C168.483 22.724 168.362 22.766 168.194 22.766H163.686C163.77 24.3713 164.531 25.174 165.968 25.174C166.332 25.174 166.645 25.1273 166.906 25.034C167.167 24.9313 167.447 24.796 167.746 24.628C167.989 24.488 168.152 24.418 168.236 24.418ZM165.786 19.896C165.189 19.896 164.708 20.0827 164.344 20.456C163.989 20.8293 163.779 21.3567 163.714 22.038H167.676C167.657 21.3473 167.485 20.82 167.158 20.456C166.831 20.0827 166.374 19.896 165.786 19.896ZM175.512 26.07C175.344 26.07 175.204 26.0233 175.092 25.93C174.99 25.8273 174.938 25.6873 174.938 25.51V16.62C174.938 16.4427 174.99 16.3073 175.092 16.214C175.204 16.1113 175.344 16.06 175.512 16.06C175.671 16.06 175.802 16.1113 175.904 16.214C176.016 16.3073 176.072 16.4427 176.072 16.62V25.51C176.072 25.6873 176.016 25.8273 175.904 25.93C175.802 26.0233 175.671 26.07 175.512 26.07ZM179.26 26.07C179.092 26.07 178.952 26.0233 178.84 25.93C178.738 25.8273 178.686 25.6873 178.686 25.51V19.602C178.686 19.4247 178.738 19.2893 178.84 19.196C178.952 19.0933 179.092 19.042 179.26 19.042C179.428 19.042 179.564 19.0933 179.666 19.196C179.769 19.2893 179.82 19.4247 179.82 19.602V25.51C179.82 25.6967 179.769 25.8367 179.666 25.93C179.564 26.0233 179.428 26.07 179.26 26.07ZM179.26 17.572C179.036 17.572 178.854 17.5067 178.714 17.376C178.574 17.2453 178.504 17.0727 178.504 16.858C178.504 16.6527 178.574 16.4847 178.714 16.354C178.854 16.2233 179.036 16.158 179.26 16.158C179.484 16.158 179.666 16.2233 179.806 16.354C179.946 16.4847 180.016 16.6527 180.016 16.858C180.016 17.0727 179.946 17.2453 179.806 17.376C179.666 17.5067 179.484 17.572 179.26 17.572ZM185.864 19.014C186.462 19.014 186.989 19.1587 187.446 19.448C187.904 19.7373 188.258 20.148 188.51 20.68C188.762 21.212 188.888 21.828 188.888 22.528C188.888 23.2373 188.762 23.8627 188.51 24.404C188.258 24.936 187.904 25.3513 187.446 25.65C186.989 25.9487 186.462 26.098 185.864 26.098C185.332 26.098 184.866 25.9813 184.464 25.748C184.072 25.5147 183.774 25.1833 183.568 24.754V25.51C183.568 25.678 183.517 25.8133 183.414 25.916C183.321 26.0187 183.186 26.07 183.008 26.07C182.831 26.07 182.691 26.0187 182.588 25.916C182.486 25.8133 182.434 25.678 182.434 25.51V16.606C182.434 16.4473 182.486 16.3167 182.588 16.214C182.691 16.1113 182.831 16.06 183.008 16.06C183.186 16.06 183.321 16.1113 183.414 16.214C183.517 16.3073 183.568 16.438 183.568 16.606V20.358C183.774 19.9287 184.072 19.5973 184.464 19.364C184.866 19.1307 185.332 19.014 185.864 19.014ZM185.64 25.16C186.303 25.16 186.816 24.9313 187.18 24.474C187.544 24.0073 187.726 23.3587 187.726 22.528C187.726 21.716 187.544 21.086 187.18 20.638C186.816 20.19 186.303 19.966 185.64 19.966C184.978 19.966 184.464 20.19 184.1 20.638C183.746 21.086 183.568 21.7253 183.568 22.556C183.568 23.3867 183.746 24.0307 184.1 24.488C184.464 24.936 184.978 25.16 185.64 25.16ZM196.355 24.418C196.458 24.418 196.546 24.46 196.621 24.544C196.696 24.628 196.733 24.7353 196.733 24.866C196.733 25.0993 196.57 25.314 196.243 25.51C195.907 25.706 195.552 25.8553 195.179 25.958C194.806 26.0513 194.442 26.098 194.087 26.098C193.032 26.098 192.197 25.7853 191.581 25.16C190.974 24.5347 190.671 23.6713 190.671 22.57C190.671 21.87 190.806 21.254 191.077 20.722C191.348 20.1807 191.726 19.7607 192.211 19.462C192.706 19.1633 193.266 19.014 193.891 19.014C194.778 19.014 195.482 19.3033 196.005 19.882C196.528 20.4607 196.789 21.2447 196.789 22.234C196.789 22.4207 196.752 22.556 196.677 22.64C196.602 22.724 196.481 22.766 196.313 22.766H191.805C191.889 24.3713 192.65 25.174 194.087 25.174C194.451 25.174 194.764 25.1273 195.025 25.034C195.286 24.9313 195.566 24.796 195.865 24.628C196.108 24.488 196.271 24.418 196.355 24.418ZM193.905 19.896C193.308 19.896 192.827 20.0827 192.463 20.456C192.108 20.8293 191.898 21.3567 191.833 22.038H195.795C195.776 21.3473 195.604 20.82 195.277 20.456C194.95 20.0827 194.493 19.896 193.905 19.896ZM202.328 19.042C202.72 19.014 202.916 19.1727 202.916 19.518C202.916 19.6673 202.874 19.7887 202.79 19.882C202.706 19.966 202.561 20.0173 202.356 20.036L201.936 20.078C201.31 20.134 200.844 20.358 200.536 20.75C200.237 21.1327 200.088 21.5853 200.088 22.108V25.51C200.088 25.6967 200.036 25.8367 199.934 25.93C199.831 26.0233 199.696 26.07 199.528 26.07C199.36 26.07 199.22 26.0233 199.108 25.93C199.005 25.8273 198.954 25.6873 198.954 25.51V19.602C198.954 19.4247 199.01 19.2893 199.122 19.196C199.234 19.0933 199.369 19.042 199.528 19.042C199.677 19.042 199.803 19.0933 199.906 19.196C200.008 19.2893 200.06 19.42 200.06 19.588V20.372C200.256 19.9613 200.531 19.6487 200.886 19.434C201.25 19.2193 201.665 19.0933 202.132 19.056L202.328 19.042ZM207.075 26.098C206.431 26.098 205.861 25.9533 205.367 25.664C204.881 25.3747 204.503 24.964 204.233 24.432C203.971 23.8907 203.841 23.2653 203.841 22.556C203.841 21.8467 203.971 21.226 204.233 20.694C204.503 20.1527 204.881 19.7373 205.367 19.448C205.861 19.1587 206.431 19.014 207.075 19.014C207.719 19.014 208.288 19.1587 208.783 19.448C209.277 19.7373 209.655 20.1527 209.917 20.694C210.187 21.226 210.323 21.8467 210.323 22.556C210.323 23.2653 210.187 23.8907 209.917 24.432C209.655 24.964 209.277 25.3747 208.783 25.664C208.288 25.9533 207.719 26.098 207.075 26.098ZM207.075 25.16C207.747 25.16 208.26 24.9407 208.615 24.502C208.979 24.054 209.161 23.4053 209.161 22.556C209.161 21.7253 208.979 21.086 208.615 20.638C208.251 20.1807 207.737 19.952 207.075 19.952C206.412 19.952 205.899 20.1807 205.535 20.638C205.171 21.086 204.989 21.7253 204.989 22.556C204.989 23.396 205.166 24.04 205.521 24.488C205.885 24.936 206.403 25.16 207.075 25.16ZM220.04 19.014C221.673 19.014 222.49 19.9147 222.49 21.716V25.51C222.49 25.6873 222.439 25.8273 222.336 25.93C222.243 26.0233 222.107 26.07 221.93 26.07C221.753 26.07 221.613 26.0233 221.51 25.93C221.407 25.8273 221.356 25.6873 221.356 25.51V21.786C221.356 21.1513 221.23 20.6893 220.978 20.4C220.735 20.1107 220.343 19.966 219.802 19.966C219.177 19.966 218.677 20.1573 218.304 20.54C217.931 20.9227 217.744 21.4407 217.744 22.094V25.51C217.744 25.6873 217.693 25.8273 217.59 25.93C217.497 26.0233 217.361 26.07 217.184 26.07C217.007 26.07 216.867 26.0233 216.764 25.93C216.661 25.8273 216.61 25.6873 216.61 25.51V19.602C216.61 19.434 216.661 19.2987 216.764 19.196C216.867 19.0933 217.007 19.042 217.184 19.042C217.352 19.042 217.483 19.0933 217.576 19.196C217.679 19.2987 217.73 19.4293 217.73 19.588V20.302C217.954 19.882 218.267 19.5647 218.668 19.35C219.069 19.126 219.527 19.014 220.04 19.014ZM230.339 24.418C230.442 24.418 230.53 24.46 230.605 24.544C230.68 24.628 230.717 24.7353 230.717 24.866C230.717 25.0993 230.554 25.314 230.227 25.51C229.891 25.706 229.536 25.8553 229.163 25.958C228.79 26.0513 228.426 26.098 228.071 26.098C227.016 26.098 226.181 25.7853 225.565 25.16C224.958 24.5347 224.655 23.6713 224.655 22.57C224.655 21.87 224.79 21.254 225.061 20.722C225.332 20.1807 225.71 19.7607 226.195 19.462C226.69 19.1633 227.25 19.014 227.875 19.014C228.762 19.014 229.466 19.3033 229.989 19.882C230.512 20.4607 230.773 21.2447 230.773 22.234C230.773 22.4207 230.736 22.556 230.661 22.64C230.586 22.724 230.465 22.766 230.297 22.766H225.789C225.873 24.3713 226.634 25.174 228.071 25.174C228.435 25.174 228.748 25.1273 229.009 25.034C229.27 24.9313 229.55 24.796 229.849 24.628C230.092 24.488 230.255 24.418 230.339 24.418ZM227.889 19.896C227.292 19.896 226.811 20.0827 226.447 20.456C226.092 20.8293 225.882 21.3567 225.817 22.038H229.779C229.76 21.3473 229.588 20.82 229.261 20.456C228.934 20.0827 228.477 19.896 227.889 19.896ZM235.752 26.098C235.117 26.098 234.553 25.9533 234.058 25.664C233.573 25.3747 233.195 24.964 232.924 24.432C232.663 23.9 232.532 23.284 232.532 22.584C232.532 21.884 232.667 21.2633 232.938 20.722C233.218 20.1807 233.605 19.7607 234.1 19.462C234.595 19.1633 235.164 19.014 235.808 19.014C236.163 19.014 236.513 19.0653 236.858 19.168C237.213 19.2613 237.521 19.4013 237.782 19.588C237.95 19.7 238.067 19.812 238.132 19.924C238.207 20.0267 238.244 20.1433 238.244 20.274C238.244 20.4047 238.207 20.512 238.132 20.596C238.067 20.68 237.978 20.722 237.866 20.722C237.801 20.722 237.731 20.7033 237.656 20.666C237.581 20.6287 237.516 20.5913 237.46 20.554C237.413 20.5167 237.381 20.4933 237.362 20.484C237.119 20.3253 236.886 20.1993 236.662 20.106C236.447 20.0127 236.181 19.966 235.864 19.966C235.183 19.966 234.651 20.1993 234.268 20.666C233.895 21.1233 233.708 21.7627 233.708 22.584C233.708 23.4053 233.895 24.04 234.268 24.488C234.651 24.936 235.183 25.16 235.864 25.16C236.181 25.16 236.452 25.1133 236.676 25.02C236.909 24.9267 237.143 24.8007 237.376 24.642C237.479 24.5767 237.577 24.5207 237.67 24.474C237.763 24.4273 237.843 24.404 237.908 24.404C238.011 24.404 238.095 24.446 238.16 24.53C238.235 24.614 238.272 24.7213 238.272 24.852C238.272 24.9733 238.239 25.0853 238.174 25.188C238.109 25.2813 237.987 25.3887 237.81 25.51C237.549 25.6873 237.231 25.832 236.858 25.944C236.494 26.0467 236.125 26.098 235.752 26.098ZM249.709 16.06C249.886 16.06 250.026 16.1113 250.129 16.214C250.232 16.3167 250.283 16.4473 250.283 16.606V25.51C250.283 25.678 250.232 25.8133 250.129 25.916C250.026 26.0187 249.886 26.07 249.709 26.07C249.532 26.07 249.392 26.0187 249.289 25.916C249.196 25.8133 249.149 25.678 249.149 25.51V24.754C248.944 25.1833 248.64 25.5147 248.239 25.748C247.847 25.9813 247.385 26.098 246.853 26.098C246.256 26.098 245.728 25.9487 245.271 25.65C244.814 25.3513 244.459 24.936 244.207 24.404C243.955 23.8627 243.829 23.2373 243.829 22.528C243.829 21.828 243.955 21.212 244.207 20.68C244.459 20.148 244.814 19.7373 245.271 19.448C245.728 19.1587 246.256 19.014 246.853 19.014C247.385 19.014 247.847 19.1307 248.239 19.364C248.64 19.5973 248.944 19.9287 249.149 20.358V16.606C249.149 16.438 249.196 16.3073 249.289 16.214C249.392 16.1113 249.532 16.06 249.709 16.06ZM247.077 25.16C247.74 25.16 248.248 24.936 248.603 24.488C248.967 24.0307 249.149 23.3867 249.149 22.556C249.149 21.7253 248.967 21.086 248.603 20.638C248.248 20.19 247.74 19.966 247.077 19.966C246.414 19.966 245.896 20.19 245.523 20.638C245.159 21.086 244.977 21.716 244.977 22.528C244.977 23.3587 245.159 24.0073 245.523 24.474C245.896 24.9313 246.414 25.16 247.077 25.16ZM255.705 26.098C255.061 26.098 254.492 25.9533 253.997 25.664C253.512 25.3747 253.134 24.964 252.863 24.432C252.602 23.8907 252.471 23.2653 252.471 22.556C252.471 21.8467 252.602 21.226 252.863 20.694C253.134 20.1527 253.512 19.7373 253.997 19.448C254.492 19.1587 255.061 19.014 255.705 19.014C256.349 19.014 256.919 19.1587 257.413 19.448C257.908 19.7373 258.286 20.1527 258.547 20.694C258.818 21.226 258.953 21.8467 258.953 22.556C258.953 23.2653 258.818 23.8907 258.547 24.432C258.286 24.964 257.908 25.3747 257.413 25.664C256.919 25.9533 256.349 26.098 255.705 26.098ZM255.705 25.16C256.377 25.16 256.891 24.9407 257.245 24.502C257.609 24.054 257.791 23.4053 257.791 22.556C257.791 21.7253 257.609 21.086 257.245 20.638C256.881 20.1807 256.368 19.952 255.705 19.952C255.043 19.952 254.529 20.1807 254.165 20.638C253.801 21.086 253.619 21.7253 253.619 22.556C253.619 23.396 253.797 24.04 254.151 24.488C254.515 24.936 255.033 25.16 255.705 25.16ZM261.711 26.07C261.543 26.07 261.403 26.0233 261.291 25.93C261.189 25.8273 261.137 25.6873 261.137 25.51V16.62C261.137 16.4427 261.189 16.3073 261.291 16.214C261.403 16.1113 261.543 16.06 261.711 16.06C261.87 16.06 262.001 16.1113 262.103 16.214C262.215 16.3073 262.271 16.4427 262.271 16.62V25.51C262.271 25.6873 262.215 25.8273 262.103 25.93C262.001 26.0233 261.87 26.07 261.711 26.07ZM267.713 26.098C267.069 26.098 266.5 25.9533 266.005 25.664C265.52 25.3747 265.142 24.964 264.871 24.432C264.61 23.8907 264.479 23.2653 264.479 22.556C264.479 21.8467 264.61 21.226 264.871 20.694C265.142 20.1527 265.52 19.7373 266.005 19.448C266.5 19.1587 267.069 19.014 267.713 19.014C268.357 19.014 268.927 19.1587 269.421 19.448C269.916 19.7373 270.294 20.1527 270.555 20.694C270.826 21.226 270.961 21.8467 270.961 22.556C270.961 23.2653 270.826 23.8907 270.555 24.432C270.294 24.964 269.916 25.3747 269.421 25.664C268.927 25.9533 268.357 26.098 267.713 26.098ZM267.713 25.16C268.385 25.16 268.899 24.9407 269.253 24.502C269.617 24.054 269.799 23.4053 269.799 22.556C269.799 21.7253 269.617 21.086 269.253 20.638C268.889 20.1807 268.376 19.952 267.713 19.952C267.051 19.952 266.537 20.1807 266.173 20.638C265.809 21.086 265.627 21.7253 265.627 22.556C265.627 23.396 265.805 24.04 266.159 24.488C266.523 24.936 267.041 25.16 267.713 25.16ZM276.519 19.042C276.911 19.014 277.107 19.1727 277.107 19.518C277.107 19.6673 277.065 19.7887 276.981 19.882C276.897 19.966 276.752 20.0173 276.547 20.036L276.127 20.078C275.502 20.134 275.035 20.358 274.727 20.75C274.428 21.1327 274.279 21.5853 274.279 22.108V25.51C274.279 25.6967 274.228 25.8367 274.125 25.93C274.022 26.0233 273.887 26.07 273.719 26.07C273.551 26.07 273.411 26.0233 273.299 25.93C273.196 25.8273 273.145 25.6873 273.145 25.51V19.602C273.145 19.4247 273.201 19.2893 273.313 19.196C273.425 19.0933 273.56 19.042 273.719 19.042C273.868 19.042 273.994 19.0933 274.097 19.196C274.2 19.2893 274.251 19.42 274.251 19.588V20.372C274.447 19.9613 274.722 19.6487 275.077 19.434C275.441 19.2193 275.856 19.0933 276.323 19.056L276.519 19.042ZM286.108 19.014C286.705 19.014 287.233 19.1633 287.69 19.462C288.147 19.7607 288.502 20.1807 288.754 20.722C289.006 21.254 289.132 21.8747 289.132 22.584C289.132 23.2933 289.006 23.914 288.754 24.446C288.502 24.9687 288.147 25.3747 287.69 25.664C287.242 25.9533 286.715 26.098 286.108 26.098C285.576 26.098 285.109 25.9813 284.708 25.748C284.316 25.5147 284.017 25.1833 283.812 24.754V28.044C283.812 28.212 283.761 28.3427 283.658 28.436C283.565 28.5387 283.429 28.59 283.252 28.59C283.075 28.59 282.935 28.5387 282.832 28.436C282.729 28.3333 282.678 28.2027 282.678 28.044V19.602C282.678 19.434 282.729 19.2987 282.832 19.196C282.935 19.0933 283.075 19.042 283.252 19.042C283.429 19.042 283.565 19.0933 283.658 19.196C283.761 19.2987 283.812 19.434 283.812 19.602V20.358C284.017 19.9287 284.316 19.5973 284.708 19.364C285.109 19.1307 285.576 19.014 286.108 19.014ZM285.884 25.16C286.547 25.16 287.06 24.936 287.424 24.488C287.788 24.04 287.97 23.4053 287.97 22.584C287.97 21.7627 287.788 21.1233 287.424 20.666C287.06 20.1993 286.547 19.966 285.884 19.966C285.221 19.966 284.708 20.19 284.344 20.638C283.989 21.086 283.812 21.7253 283.812 22.556C283.812 23.3867 283.989 24.0307 284.344 24.488C284.708 24.936 285.221 25.16 285.884 25.16ZM294.695 19.042C295.087 19.014 295.283 19.1727 295.283 19.518C295.283 19.6673 295.241 19.7887 295.157 19.882C295.073 19.966 294.928 20.0173 294.723 20.036L294.303 20.078C293.677 20.134 293.211 20.358 292.903 20.75C292.604 21.1327 292.455 21.5853 292.455 22.108V25.51C292.455 25.6967 292.403 25.8367 292.301 25.93C292.198 26.0233 292.063 26.07 291.895 26.07C291.727 26.07 291.587 26.0233 291.475 25.93C291.372 25.8273 291.321 25.6873 291.321 25.51V19.602C291.321 19.4247 291.377 19.2893 291.489 19.196C291.601 19.0933 291.736 19.042 291.895 19.042C292.044 19.042 292.17 19.0933 292.273 19.196C292.375 19.2893 292.427 19.42 292.427 19.588V20.372C292.623 19.9613 292.898 19.6487 293.253 19.434C293.617 19.2193 294.032 19.0933 294.499 19.056L294.695 19.042ZM301.892 24.418C301.994 24.418 302.083 24.46 302.158 24.544C302.232 24.628 302.27 24.7353 302.27 24.866C302.27 25.0993 302.106 25.314 301.78 25.51C301.444 25.706 301.089 25.8553 300.716 25.958C300.342 26.0513 299.978 26.098 299.624 26.098C298.569 26.098 297.734 25.7853 297.118 25.16C296.511 24.5347 296.208 23.6713 296.208 22.57C296.208 21.87 296.343 21.254 296.614 20.722C296.884 20.1807 297.262 19.7607 297.748 19.462C298.242 19.1633 298.802 19.014 299.428 19.014C300.314 19.014 301.019 19.3033 301.542 19.882C302.064 20.4607 302.326 21.2447 302.326 22.234C302.326 22.4207 302.288 22.556 302.214 22.64C302.139 22.724 302.018 22.766 301.85 22.766H297.342C297.426 24.3713 298.186 25.174 299.624 25.174C299.988 25.174 300.3 25.1273 300.562 25.034C300.823 24.9313 301.103 24.796 301.402 24.628C301.644 24.488 301.808 24.418 301.892 24.418ZM299.442 19.896C298.844 19.896 298.364 20.0827 298 20.456C297.645 20.8293 297.435 21.3567 297.37 22.038H301.332C301.313 21.3473 301.14 20.82 300.814 20.456C300.487 20.0827 300.03 19.896 299.442 19.896ZM307.6 25.174C307.926 25.202 308.09 25.3513 308.09 25.622C308.09 25.7807 308.029 25.902 307.908 25.986C307.796 26.0607 307.623 26.0887 307.39 26.07L307.012 26.042C306.265 25.986 305.714 25.762 305.36 25.37C305.005 24.978 304.828 24.3853 304.828 23.592V20.078H303.89C303.731 20.078 303.605 20.0407 303.512 19.966C303.428 19.882 303.386 19.7747 303.386 19.644C303.386 19.504 303.428 19.392 303.512 19.308C303.605 19.224 303.731 19.182 303.89 19.182H304.828V17.6C304.828 17.4227 304.879 17.2873 304.982 17.194C305.084 17.0913 305.224 17.04 305.402 17.04C305.57 17.04 305.705 17.0913 305.808 17.194C305.91 17.2873 305.962 17.4227 305.962 17.6V19.182H307.516C307.665 19.182 307.782 19.224 307.866 19.308C307.959 19.392 308.006 19.504 308.006 19.644C308.006 19.7747 307.959 19.882 307.866 19.966C307.782 20.0407 307.665 20.078 307.516 20.078H305.962V23.648C305.962 24.1613 306.064 24.5347 306.27 24.768C306.484 24.992 306.802 25.118 307.222 25.146L307.6 25.174ZM310.275 26.07C310.107 26.07 309.967 26.0233 309.855 25.93C309.753 25.8273 309.701 25.6873 309.701 25.51V19.602C309.701 19.4247 309.753 19.2893 309.855 19.196C309.967 19.0933 310.107 19.042 310.275 19.042C310.443 19.042 310.579 19.0933 310.681 19.196C310.784 19.2893 310.835 19.4247 310.835 19.602V25.51C310.835 25.6967 310.784 25.8367 310.681 25.93C310.579 26.0233 310.443 26.07 310.275 26.07ZM310.275 17.572C310.051 17.572 309.869 17.5067 309.729 17.376C309.589 17.2453 309.519 17.0727 309.519 16.858C309.519 16.6527 309.589 16.4847 309.729 16.354C309.869 16.2233 310.051 16.158 310.275 16.158C310.499 16.158 310.681 16.2233 310.821 16.354C310.961 16.4847 311.031 16.6527 311.031 16.858C311.031 17.0727 310.961 17.2453 310.821 17.376C310.681 17.5067 310.499 17.572 310.275 17.572ZM318.629 19.042C318.807 19.042 318.942 19.0933 319.035 19.196C319.138 19.2987 319.189 19.434 319.189 19.602V25.524C319.189 25.6827 319.138 25.8133 319.035 25.916C318.942 26.0187 318.807 26.07 318.629 26.07C318.461 26.07 318.326 26.0233 318.223 25.93C318.13 25.8273 318.083 25.6967 318.083 25.538V24.838C317.869 25.2487 317.565 25.5613 317.173 25.776C316.791 25.9907 316.357 26.098 315.871 26.098C315.059 26.098 314.448 25.874 314.037 25.426C313.627 24.9687 313.421 24.2967 313.421 23.41V19.602C313.421 19.434 313.473 19.2987 313.575 19.196C313.678 19.0933 313.818 19.042 313.995 19.042C314.173 19.042 314.308 19.0933 314.401 19.196C314.504 19.2987 314.555 19.434 314.555 19.602V23.382C314.555 23.9887 314.677 24.4367 314.919 24.726C315.162 25.006 315.545 25.146 316.067 25.146C316.665 25.146 317.145 24.9547 317.509 24.572C317.873 24.18 318.055 23.6667 318.055 23.032V19.602C318.055 19.434 318.107 19.2987 318.209 19.196C318.312 19.0933 318.452 19.042 318.629 19.042ZM329.379 19.014C330.891 19.014 331.647 19.9147 331.647 21.716V25.51C331.647 25.6873 331.596 25.8273 331.493 25.93C331.391 26.0233 331.255 26.07 331.087 26.07C330.919 26.07 330.779 26.0233 330.667 25.93C330.565 25.8273 330.513 25.6873 330.513 25.51V21.744C330.513 21.1187 330.401 20.666 330.177 20.386C329.953 20.106 329.603 19.966 329.127 19.966C328.558 19.966 328.11 20.1573 327.783 20.54C327.457 20.9227 327.293 21.4407 327.293 22.094V25.51C327.293 25.6873 327.237 25.8273 327.125 25.93C327.023 26.0233 326.887 26.07 326.719 26.07C326.551 26.07 326.416 26.0233 326.313 25.93C326.211 25.8273 326.159 25.6873 326.159 25.51V21.744C326.159 21.1187 326.047 20.666 325.823 20.386C325.599 20.106 325.245 19.966 324.759 19.966C324.199 19.966 323.751 20.1573 323.415 20.54C323.089 20.9227 322.925 21.4407 322.925 22.094V25.51C322.925 25.6873 322.874 25.8273 322.771 25.93C322.669 26.0233 322.533 26.07 322.365 26.07C322.197 26.07 322.057 26.0233 321.945 25.93C321.843 25.8273 321.791 25.6873 321.791 25.51V19.602C321.791 19.434 321.843 19.2987 321.945 19.196C322.057 19.0933 322.197 19.042 322.365 19.042C322.524 19.042 322.655 19.0933 322.757 19.196C322.86 19.2893 322.911 19.42 322.911 19.588V20.26C323.117 19.8587 323.401 19.5507 323.765 19.336C324.129 19.1213 324.549 19.014 325.025 19.014C326.089 19.014 326.785 19.462 327.111 20.358C327.307 19.9473 327.606 19.6207 328.007 19.378C328.409 19.1353 328.866 19.014 329.379 19.014ZM341.097 19.014C342.805 19.014 343.659 19.91 343.659 21.702V25.51C343.659 25.678 343.607 25.8133 343.505 25.916C343.411 26.0187 343.281 26.07 343.113 26.07C342.945 26.07 342.809 26.0187 342.707 25.916C342.604 25.8133 342.553 25.678 342.553 25.51V24.838C342.375 25.2393 342.105 25.552 341.741 25.776C341.377 25.9907 340.957 26.098 340.481 26.098C340.042 26.098 339.636 26.0093 339.263 25.832C338.899 25.6547 338.609 25.4073 338.395 25.09C338.18 24.7727 338.073 24.4227 338.073 24.04C338.073 23.5267 338.203 23.13 338.465 22.85C338.726 22.5607 339.155 22.3553 339.753 22.234C340.35 22.1033 341.181 22.038 342.245 22.038H342.553V21.576C342.553 21.016 342.436 20.6053 342.203 20.344C341.979 20.0827 341.61 19.952 341.097 19.952C340.462 19.952 339.818 20.1247 339.165 20.47C338.913 20.6287 338.735 20.708 338.633 20.708C338.521 20.708 338.427 20.666 338.353 20.582C338.278 20.498 338.241 20.3907 338.241 20.26C338.241 20.1293 338.278 20.0173 338.353 19.924C338.437 19.8213 338.567 19.7187 338.745 19.616C339.071 19.4293 339.44 19.2847 339.851 19.182C340.271 19.07 340.686 19.014 341.097 19.014ZM340.635 25.202C341.195 25.202 341.652 25.0153 342.007 24.642C342.371 24.2593 342.553 23.7693 342.553 23.172V22.766H342.301C341.479 22.766 340.854 22.8033 340.425 22.878C339.995 22.9433 339.687 23.06 339.501 23.228C339.323 23.3867 339.235 23.6247 339.235 23.942C339.235 24.306 339.365 24.6093 339.627 24.852C339.897 25.0853 340.233 25.202 340.635 25.202ZM346.803 26.07C346.635 26.07 346.495 26.0233 346.383 25.93C346.28 25.8273 346.229 25.6873 346.229 25.51V16.62C346.229 16.4427 346.28 16.3073 346.383 16.214C346.495 16.1113 346.635 16.06 346.803 16.06C346.961 16.06 347.092 16.1113 347.195 16.214C347.307 16.3073 347.363 16.4427 347.363 16.62V25.51C347.363 25.6873 347.307 25.8273 347.195 25.93C347.092 26.0233 346.961 26.07 346.803 26.07ZM350.551 26.07C350.383 26.07 350.243 26.0233 350.131 25.93C350.028 25.8273 349.977 25.6873 349.977 25.51V19.602C349.977 19.4247 350.028 19.2893 350.131 19.196C350.243 19.0933 350.383 19.042 350.551 19.042C350.719 19.042 350.854 19.0933 350.957 19.196C351.059 19.2893 351.111 19.4247 351.111 19.602V25.51C351.111 25.6967 351.059 25.8367 350.957 25.93C350.854 26.0233 350.719 26.07 350.551 26.07ZM350.551 17.572C350.327 17.572 350.145 17.5067 350.005 17.376C349.865 17.2453 349.795 17.0727 349.795 16.858C349.795 16.6527 349.865 16.4847 350.005 16.354C350.145 16.2233 350.327 16.158 350.551 16.158C350.775 16.158 350.957 16.2233 351.097 16.354C351.237 16.4847 351.307 16.6527 351.307 16.858C351.307 17.0727 351.237 17.2453 351.097 17.376C350.957 17.5067 350.775 17.572 350.551 17.572ZM359.199 19.042C359.376 19.042 359.516 19.0933 359.619 19.196C359.721 19.2987 359.773 19.434 359.773 19.602V28.044C359.773 28.2027 359.721 28.3333 359.619 28.436C359.516 28.5387 359.376 28.59 359.199 28.59C359.021 28.59 358.881 28.5387 358.779 28.436C358.685 28.3427 358.639 28.212 358.639 28.044V24.754C358.433 25.1833 358.13 25.5147 357.729 25.748C357.337 25.9813 356.875 26.098 356.343 26.098C355.736 26.098 355.204 25.9533 354.747 25.664C354.299 25.3747 353.949 24.9687 353.697 24.446C353.445 23.914 353.319 23.2933 353.319 22.584C353.319 21.8747 353.445 21.254 353.697 20.722C353.949 20.1807 354.303 19.7607 354.761 19.462C355.218 19.1633 355.745 19.014 356.343 19.014C356.875 19.014 357.337 19.1307 357.729 19.364C358.13 19.5973 358.433 19.9287 358.639 20.358V19.602C358.639 19.434 358.685 19.2987 358.779 19.196C358.881 19.0933 359.021 19.042 359.199 19.042ZM356.567 25.16C357.229 25.16 357.738 24.936 358.093 24.488C358.457 24.0307 358.639 23.3867 358.639 22.556C358.639 21.7253 358.457 21.086 358.093 20.638C357.738 20.19 357.229 19.966 356.567 19.966C355.904 19.966 355.386 20.1993 355.013 20.666C354.649 21.1233 354.467 21.7627 354.467 22.584C354.467 23.4053 354.649 24.04 355.013 24.488C355.386 24.936 355.904 25.16 356.567 25.16ZM367.547 19.042C367.725 19.042 367.86 19.0933 367.953 19.196C368.056 19.2987 368.107 19.434 368.107 19.602V25.524C368.107 25.6827 368.056 25.8133 367.953 25.916C367.86 26.0187 367.725 26.07 367.547 26.07C367.379 26.07 367.244 26.0233 367.141 25.93C367.048 25.8273 367.001 25.6967 367.001 25.538V24.838C366.787 25.2487 366.483 25.5613 366.091 25.776C365.709 25.9907 365.275 26.098 364.789 26.098C363.977 26.098 363.366 25.874 362.955 25.426C362.545 24.9687 362.339 24.2967 362.339 23.41V19.602C362.339 19.434 362.391 19.2987 362.493 19.196C362.596 19.0933 362.736 19.042 362.913 19.042C363.091 19.042 363.226 19.0933 363.319 19.196C363.422 19.2987 363.473 19.434 363.473 19.602V23.382C363.473 23.9887 363.595 24.4367 363.837 24.726C364.08 25.006 364.463 25.146 364.985 25.146C365.583 25.146 366.063 24.9547 366.427 24.572C366.791 24.18 366.973 23.6667 366.973 23.032V19.602C366.973 19.434 367.025 19.2987 367.127 19.196C367.23 19.0933 367.37 19.042 367.547 19.042ZM373.495 19.014C375.203 19.014 376.057 19.91 376.057 21.702V25.51C376.057 25.678 376.006 25.8133 375.903 25.916C375.81 26.0187 375.679 26.07 375.511 26.07C375.343 26.07 375.208 26.0187 375.105 25.916C375.002 25.8133 374.951 25.678 374.951 25.51V24.838C374.774 25.2393 374.503 25.552 374.139 25.776C373.775 25.9907 373.355 26.098 372.879 26.098C372.44 26.098 372.034 26.0093 371.661 25.832C371.297 25.6547 371.008 25.4073 370.793 25.09C370.578 24.7727 370.471 24.4227 370.471 24.04C370.471 23.5267 370.602 23.13 370.863 22.85C371.124 22.5607 371.554 22.3553 372.151 22.234C372.748 22.1033 373.579 22.038 374.643 22.038H374.951V21.576C374.951 21.016 374.834 20.6053 374.601 20.344C374.377 20.0827 374.008 19.952 373.495 19.952C372.86 19.952 372.216 20.1247 371.563 20.47C371.311 20.6287 371.134 20.708 371.031 20.708C370.919 20.708 370.826 20.666 370.751 20.582C370.676 20.498 370.639 20.3907 370.639 20.26C370.639 20.1293 370.676 20.0173 370.751 19.924C370.835 19.8213 370.966 19.7187 371.143 19.616C371.47 19.4293 371.838 19.2847 372.249 19.182C372.669 19.07 373.084 19.014 373.495 19.014ZM373.033 25.202C373.593 25.202 374.05 25.0153 374.405 24.642C374.769 24.2593 374.951 23.7693 374.951 23.172V22.766H374.699C373.878 22.766 373.252 22.8033 372.823 22.878C372.394 22.9433 372.086 23.06 371.899 23.228C371.722 23.3867 371.633 23.6247 371.633 23.942C371.633 24.306 371.764 24.6093 372.025 24.852C372.296 25.0853 372.632 25.202 373.033 25.202ZM386.215 19.014C387.727 19.014 388.483 19.9147 388.483 21.716V25.51C388.483 25.6873 388.432 25.8273 388.329 25.93C388.226 26.0233 388.091 26.07 387.923 26.07C387.755 26.07 387.615 26.0233 387.503 25.93C387.4 25.8273 387.349 25.6873 387.349 25.51V21.744C387.349 21.1187 387.237 20.666 387.013 20.386C386.789 20.106 386.439 19.966 385.963 19.966C385.394 19.966 384.946 20.1573 384.619 20.54C384.292 20.9227 384.129 21.4407 384.129 22.094V25.51C384.129 25.6873 384.073 25.8273 383.961 25.93C383.858 26.0233 383.723 26.07 383.555 26.07C383.387 26.07 383.252 26.0233 383.149 25.93C383.046 25.8273 382.995 25.6873 382.995 25.51V21.744C382.995 21.1187 382.883 20.666 382.659 20.386C382.435 20.106 382.08 19.966 381.595 19.966C381.035 19.966 380.587 20.1573 380.251 20.54C379.924 20.9227 379.761 21.4407 379.761 22.094V25.51C379.761 25.6873 379.71 25.8273 379.607 25.93C379.504 26.0233 379.369 26.07 379.201 26.07C379.033 26.07 378.893 26.0233 378.781 25.93C378.678 25.8273 378.627 25.6873 378.627 25.51V19.602C378.627 19.434 378.678 19.2987 378.781 19.196C378.893 19.0933 379.033 19.042 379.201 19.042C379.36 19.042 379.49 19.0933 379.593 19.196C379.696 19.2893 379.747 19.42 379.747 19.588V20.26C379.952 19.8587 380.237 19.5507 380.601 19.336C380.965 19.1213 381.385 19.014 381.861 19.014C382.925 19.014 383.62 19.462 383.947 20.358C384.143 19.9473 384.442 19.6207 384.843 19.378C385.244 19.1353 385.702 19.014 386.215 19.014ZM391.603 26.07C391.379 26.07 391.192 26 391.043 25.86C390.894 25.7107 390.819 25.5193 390.819 25.286C390.819 25.0527 390.894 24.8613 391.043 24.712C391.192 24.5627 391.379 24.488 391.603 24.488C391.818 24.488 391.995 24.5627 392.135 24.712C392.284 24.8613 392.359 25.0527 392.359 25.286C392.359 25.5193 392.284 25.7107 392.135 25.86C391.995 26 391.818 26.07 391.603 26.07Z" fill="#77838F"/>
<path d="M25.2232 22.6518C25.2827 22.7113 25.3125 22.7798 25.3125 22.8571C25.3125 22.9345 25.2827 23.003 25.2232 23.0625L21.0625 27.2232C21.003 27.2827 20.9345 27.3125 20.8571 27.3125C20.7798 27.3125 20.7113 27.2827 20.6518 27.2232L20.2054 26.7768C20.1458 26.7173 20.1161 26.6488 20.1161 26.5714C20.1161 26.494 20.1458 26.4256 20.2054 26.3661L23.7143 22.8571L20.2054 19.3482C20.1458 19.2887 20.1161 19.2202 20.1161 19.1429C20.1161 19.0655 20.1458 18.997 20.2054 18.9375L20.6518 18.4911C20.7113 18.4315 20.7798 18.4018 20.8571 18.4018C20.9345 18.4018 21.003 18.4315 21.0625 18.4911L25.2232 22.6518Z" fill="#4B6EE5"/>
</g>
<defs>
<filter id="filter0_d_0_57" x="-48" y="-46" width="553" height="137" filterUnits="userSpaceOnUse" color-interpolation-filters="sRGB">
<feFlood flood-opacity="0" result="BackgroundImageFix"/>
<feColorMatrix in="SourceAlpha" type="matrix" values="0 0 0 0 0 0 0 0 0 0 0 0 0 0 0 0 0 0 127 0" result="hardAlpha"/>
<feOffset dy="2"/>
<feGaussianBlur stdDeviation="24"/>
<feColorMatrix type="matrix" values="0 0 0 0 0 0 0 0 0 0 0 0 0 0 0 0 0 0 0.06 0"/>
<feBlend mode="normal" in2="BackgroundImageFix" result="effect1_dropShadow_0_57"/>
<feBlend mode="normal" in="SourceGraphic" in2="effect1_dropShadow_0_57" result="shape"/>
</filter>
<clipPath id="clip0_0_57">
<rect width="457" height="41" fill="white"/>
</clipPath>
</defs>
</svg>
