<svg width="457" height="41" viewBox="0 0 457 41" fill="none" xmlns="http://www.w3.org/2000/svg">
<g clip-path="url(#clip0_0_62)">
<g filter="url(#filter0_d_0_62)">
<rect width="457" height="41" rx="4" fill="white"/>
</g>
<path fill-rule="evenodd" clip-rule="evenodd" d="M0 4C0 1.79086 1.79086 0 4 0H47V41H4C1.79086 41 0 39.2091 0 37V4Z" fill="#EDF3FF"/>
<path d="M66.736 27.82C66.8013 27.9227 66.834 28.03 66.834 28.142C66.834 28.2727 66.7827 28.38 66.68 28.464C66.5773 28.548 66.456 28.59 66.316 28.59C66.0733 28.59 65.8773 28.4687 65.728 28.226L64.916 26.896C64.58 26.3733 64.0573 26.112 63.348 26.112C62.4333 26.112 61.6353 25.9067 60.954 25.496C60.282 25.0853 59.764 24.502 59.4 23.746C59.036 22.99 58.854 22.0987 58.854 21.072C58.854 20.036 59.0313 19.14 59.386 18.384C59.75 17.6187 60.268 17.0353 60.94 16.634C61.6213 16.2233 62.424 16.018 63.348 16.018C64.2627 16.018 65.056 16.2233 65.728 16.634C66.4093 17.0353 66.932 17.6187 67.296 18.384C67.66 19.14 67.842 20.0313 67.842 21.058C67.842 22.2527 67.5993 23.2653 67.114 24.096C66.638 24.9173 65.9567 25.4913 65.07 25.818C65.2753 25.8833 65.4573 25.9907 65.616 26.14C65.7747 26.2987 65.938 26.5133 66.106 26.784L66.736 27.82ZM60.03 21.058C60.03 22.3553 60.3193 23.3587 60.898 24.068C61.486 24.7773 62.3027 25.132 63.348 25.132C64.3933 25.132 65.2053 24.782 65.784 24.082C66.372 23.3727 66.666 22.3647 66.666 21.058C66.666 19.7513 66.3767 18.748 65.798 18.048C65.2193 17.348 64.4027 16.998 63.348 16.998C62.3027 16.998 61.486 17.3527 60.898 18.062C60.3193 18.762 60.03 19.7607 60.03 21.058ZM75.4155 19.042C75.5929 19.042 75.7282 19.0933 75.8215 19.196C75.9242 19.2987 75.9755 19.434 75.9755 19.602V25.524C75.9755 25.6827 75.9242 25.8133 75.8215 25.916C75.7282 26.0187 75.5929 26.07 75.4155 26.07C75.2475 26.07 75.1122 26.0233 75.0095 25.93C74.9162 25.8273 74.8695 25.6967 74.8695 25.538V24.838C74.6549 25.2487 74.3515 25.5613 73.9595 25.776C73.5769 25.9907 73.1429 26.098 72.6575 26.098C71.8455 26.098 71.2342 25.874 70.8235 25.426C70.4129 24.9687 70.2075 24.2967 70.2075 23.41V19.602C70.2075 19.434 70.2589 19.2987 70.3615 19.196C70.4642 19.0933 70.6042 19.042 70.7815 19.042C70.9589 19.042 71.0942 19.0933 71.1875 19.196C71.2902 19.2987 71.3415 19.434 71.3415 19.602V23.382C71.3415 23.9887 71.4629 24.4367 71.7055 24.726C71.9482 25.006 72.3309 25.146 72.8535 25.146C73.4509 25.146 73.9315 24.9547 74.2955 24.572C74.6595 24.18 74.8415 23.6667 74.8415 23.032V19.602C74.8415 19.434 74.8929 19.2987 74.9955 19.196C75.0982 19.0933 75.2382 19.042 75.4155 19.042ZM79.1513 26.07C78.9833 26.07 78.8433 26.0233 78.7313 25.93C78.6286 25.8273 78.5773 25.6873 78.5773 25.51V19.602C78.5773 19.4247 78.6286 19.2893 78.7313 19.196C78.8433 19.0933 78.9833 19.042 79.1513 19.042C79.3193 19.042 79.4546 19.0933 79.5573 19.196C79.66 19.2893 79.7113 19.4247 79.7113 19.602V25.51C79.7113 25.6967 79.66 25.8367 79.5573 25.93C79.4546 26.0233 79.3193 26.07 79.1513 26.07ZM79.1513 17.572C78.9273 17.572 78.7453 17.5067 78.6053 17.376C78.4653 17.2453 78.3953 17.0727 78.3953 16.858C78.3953 16.6527 78.4653 16.4847 78.6053 16.354C78.7453 16.2233 78.9273 16.158 79.1513 16.158C79.3753 16.158 79.5573 16.2233 79.6973 16.354C79.8373 16.4847 79.9073 16.6527 79.9073 16.858C79.9073 17.0727 79.8373 17.2453 79.6973 17.376C79.5573 17.5067 79.3753 17.572 79.1513 17.572ZM84.6213 26.098C84.192 26.098 83.7813 26.0467 83.3893 25.944C83.0067 25.8413 82.666 25.6967 82.3673 25.51C82.1993 25.398 82.078 25.2953 82.0033 25.202C81.938 25.0993 81.9053 24.978 81.9053 24.838C81.9053 24.7167 81.938 24.6187 82.0033 24.544C82.078 24.46 82.1713 24.418 82.2833 24.418C82.3953 24.418 82.5587 24.488 82.7733 24.628C83.0533 24.796 83.3287 24.9313 83.5993 25.034C83.8793 25.1273 84.2247 25.174 84.6353 25.174C85.1393 25.174 85.5313 25.0853 85.8113 24.908C86.0913 24.7307 86.2313 24.474 86.2313 24.138C86.2313 23.9327 86.18 23.7693 86.0773 23.648C85.9747 23.5173 85.7973 23.4053 85.5453 23.312C85.2933 23.2093 84.9247 23.1067 84.4393 23.004C83.618 22.8267 83.03 22.5887 82.6753 22.29C82.3207 21.9913 82.1433 21.5853 82.1433 21.072C82.1433 20.6707 82.2553 20.316 82.4793 20.008C82.7033 19.7 83.0113 19.4573 83.4033 19.28C83.8047 19.1027 84.2573 19.014 84.7613 19.014C85.1253 19.014 85.4753 19.0653 85.8113 19.168C86.1567 19.2613 86.46 19.3967 86.7213 19.574C87.0387 19.798 87.1973 20.0313 87.1973 20.274C87.1973 20.3953 87.16 20.498 87.0853 20.582C87.0107 20.666 86.922 20.708 86.8193 20.708C86.7073 20.708 86.5393 20.6287 86.3153 20.47C86.054 20.302 85.8067 20.1713 85.5733 20.078C85.34 19.9847 85.0507 19.938 84.7053 19.938C84.2667 19.938 83.912 20.036 83.6413 20.232C83.38 20.428 83.2493 20.6893 83.2493 21.016C83.2493 21.2213 83.296 21.3893 83.3893 21.52C83.492 21.6413 83.6553 21.7533 83.8793 21.856C84.1127 21.9493 84.444 22.0427 84.8733 22.136C85.508 22.276 85.998 22.43 86.3433 22.598C86.698 22.766 86.95 22.9713 87.0993 23.214C87.2487 23.4567 87.3233 23.7647 87.3233 24.138C87.3233 24.726 87.076 25.202 86.5813 25.566C86.0867 25.9207 85.4333 26.098 84.6213 26.098ZM95.02 19.042C95.1973 19.042 95.3373 19.0933 95.44 19.196C95.5427 19.2987 95.594 19.434 95.594 19.602V28.044C95.594 28.2027 95.5427 28.3333 95.44 28.436C95.3373 28.5387 95.1973 28.59 95.02 28.59C94.8427 28.59 94.7027 28.5387 94.6 28.436C94.5067 28.3427 94.46 28.212 94.46 28.044V24.754C94.2547 25.1833 93.9513 25.5147 93.55 25.748C93.158 25.9813 92.696 26.098 92.164 26.098C91.5573 26.098 91.0253 25.9533 90.568 25.664C90.12 25.3747 89.77 24.9687 89.518 24.446C89.266 23.914 89.14 23.2933 89.14 22.584C89.14 21.8747 89.266 21.254 89.518 20.722C89.77 20.1807 90.1247 19.7607 90.582 19.462C91.0393 19.1633 91.5667 19.014 92.164 19.014C92.696 19.014 93.158 19.1307 93.55 19.364C93.9513 19.5973 94.2547 19.9287 94.46 20.358V19.602C94.46 19.434 94.5067 19.2987 94.6 19.196C94.7027 19.0933 94.8427 19.042 95.02 19.042ZM92.388 25.16C93.0507 25.16 93.5593 24.936 93.914 24.488C94.278 24.0307 94.46 23.3867 94.46 22.556C94.46 21.7253 94.278 21.086 93.914 20.638C93.5593 20.19 93.0507 19.966 92.388 19.966C91.7253 19.966 91.2073 20.1993 90.834 20.666C90.47 21.1233 90.288 21.7627 90.288 22.584C90.288 23.4053 90.47 24.04 90.834 24.488C91.2073 24.936 91.7253 25.16 92.388 25.16ZM103.369 19.042C103.546 19.042 103.681 19.0933 103.775 19.196C103.877 19.2987 103.929 19.434 103.929 19.602V25.524C103.929 25.6827 103.877 25.8133 103.775 25.916C103.681 26.0187 103.546 26.07 103.369 26.07C103.201 26.07 103.065 26.0233 102.963 25.93C102.869 25.8273 102.823 25.6967 102.823 25.538V24.838C102.608 25.2487 102.305 25.5613 101.913 25.776C101.53 25.9907 101.096 26.098 100.611 26.098C99.7986 26.098 99.1872 25.874 98.7766 25.426C98.3659 24.9687 98.1606 24.2967 98.1606 23.41V19.602C98.1606 19.434 98.2119 19.2987 98.3146 19.196C98.4172 19.0933 98.5572 19.042 98.7346 19.042C98.9119 19.042 99.0472 19.0933 99.1406 19.196C99.2432 19.2987 99.2946 19.434 99.2946 19.602V23.382C99.2946 23.9887 99.4159 24.4367 99.6586 24.726C99.9012 25.006 100.284 25.146 100.807 25.146C101.404 25.146 101.885 24.9547 102.249 24.572C102.613 24.18 102.795 23.6667 102.795 23.032V19.602C102.795 19.434 102.846 19.2987 102.949 19.196C103.051 19.0933 103.191 19.042 103.369 19.042ZM111.808 24.418C111.911 24.418 112 24.46 112.074 24.544C112.149 24.628 112.186 24.7353 112.186 24.866C112.186 25.0993 112.023 25.314 111.696 25.51C111.36 25.706 111.006 25.8553 110.632 25.958C110.259 26.0513 109.895 26.098 109.54 26.098C108.486 26.098 107.65 25.7853 107.034 25.16C106.428 24.5347 106.124 23.6713 106.124 22.57C106.124 21.87 106.26 21.254 106.53 20.722C106.801 20.1807 107.179 19.7607 107.664 19.462C108.159 19.1633 108.719 19.014 109.344 19.014C110.231 19.014 110.936 19.3033 111.458 19.882C111.981 20.4607 112.242 21.2447 112.242 22.234C112.242 22.4207 112.205 22.556 112.13 22.64C112.056 22.724 111.934 22.766 111.766 22.766H107.258C107.342 24.3713 108.103 25.174 109.54 25.174C109.904 25.174 110.217 25.1273 110.478 25.034C110.74 24.9313 111.02 24.796 111.318 24.628C111.561 24.488 111.724 24.418 111.808 24.418ZM109.358 19.896C108.761 19.896 108.28 20.0827 107.916 20.456C107.562 20.8293 107.352 21.3567 107.286 22.038H111.248C111.23 21.3473 111.057 20.82 110.73 20.456C110.404 20.0827 109.946 19.896 109.358 19.896ZM119.085 26.07C118.917 26.07 118.777 26.0233 118.665 25.93C118.562 25.8273 118.511 25.6873 118.511 25.51V16.62C118.511 16.4427 118.562 16.3073 118.665 16.214C118.777 16.1113 118.917 16.06 119.085 16.06C119.243 16.06 119.374 16.1113 119.477 16.214C119.589 16.3073 119.645 16.4427 119.645 16.62V25.51C119.645 25.6873 119.589 25.8273 119.477 25.93C119.374 26.0233 119.243 26.07 119.085 26.07ZM127.439 19.042C127.616 19.042 127.751 19.0933 127.845 19.196C127.947 19.2987 127.999 19.434 127.999 19.602V25.524C127.999 25.6827 127.947 25.8133 127.845 25.916C127.751 26.0187 127.616 26.07 127.439 26.07C127.271 26.07 127.135 26.0233 127.033 25.93C126.939 25.8273 126.893 25.6967 126.893 25.538V24.838C126.678 25.2487 126.375 25.5613 125.983 25.776C125.6 25.9907 125.166 26.098 124.681 26.098C123.869 26.098 123.257 25.874 122.847 25.426C122.436 24.9687 122.231 24.2967 122.231 23.41V19.602C122.231 19.434 122.282 19.2987 122.385 19.196C122.487 19.0933 122.627 19.042 122.805 19.042C122.982 19.042 123.117 19.0933 123.211 19.196C123.313 19.2987 123.365 19.434 123.365 19.602V23.382C123.365 23.9887 123.486 24.4367 123.729 24.726C123.971 25.006 124.354 25.146 124.877 25.146C125.474 25.146 125.955 24.9547 126.319 24.572C126.683 24.18 126.865 23.6667 126.865 23.032V19.602C126.865 19.434 126.916 19.2987 127.019 19.196C127.121 19.0933 127.261 19.042 127.439 19.042ZM133.415 26.098C132.78 26.098 132.215 25.9533 131.721 25.664C131.235 25.3747 130.857 24.964 130.587 24.432C130.325 23.9 130.195 23.284 130.195 22.584C130.195 21.884 130.33 21.2633 130.601 20.722C130.881 20.1807 131.268 19.7607 131.763 19.462C132.257 19.1633 132.827 19.014 133.471 19.014C133.825 19.014 134.175 19.0653 134.521 19.168C134.875 19.2613 135.183 19.4013 135.445 19.588C135.613 19.7 135.729 19.812 135.795 19.924C135.869 20.0267 135.907 20.1433 135.907 20.274C135.907 20.4047 135.869 20.512 135.795 20.596C135.729 20.68 135.641 20.722 135.529 20.722C135.463 20.722 135.393 20.7033 135.319 20.666C135.244 20.6287 135.179 20.5913 135.123 20.554C135.076 20.5167 135.043 20.4933 135.025 20.484C134.782 20.3253 134.549 20.1993 134.325 20.106C134.11 20.0127 133.844 19.966 133.527 19.966C132.845 19.966 132.313 20.1993 131.931 20.666C131.557 21.1233 131.371 21.7627 131.371 22.584C131.371 23.4053 131.557 24.04 131.931 24.488C132.313 24.936 132.845 25.16 133.527 25.16C133.844 25.16 134.115 25.1133 134.339 25.02C134.572 24.9267 134.805 24.8007 135.039 24.642C135.141 24.5767 135.239 24.5207 135.333 24.474C135.426 24.4273 135.505 24.404 135.571 24.404C135.673 24.404 135.757 24.446 135.823 24.53C135.897 24.614 135.935 24.7213 135.935 24.852C135.935 24.9733 135.902 25.0853 135.837 25.188C135.771 25.2813 135.65 25.3887 135.473 25.51C135.211 25.6873 134.894 25.832 134.521 25.944C134.157 26.0467 133.788 26.098 133.415 26.098ZM140.958 25.174C141.284 25.202 141.448 25.3513 141.448 25.622C141.448 25.7807 141.387 25.902 141.266 25.986C141.154 26.0607 140.981 26.0887 140.748 26.07L140.37 26.042C139.623 25.986 139.072 25.762 138.718 25.37C138.363 24.978 138.186 24.3853 138.186 23.592V20.078H137.248C137.089 20.078 136.963 20.0407 136.87 19.966C136.786 19.882 136.744 19.7747 136.744 19.644C136.744 19.504 136.786 19.392 136.87 19.308C136.963 19.224 137.089 19.182 137.248 19.182H138.186V17.6C138.186 17.4227 138.237 17.2873 138.34 17.194C138.442 17.0913 138.582 17.04 138.76 17.04C138.928 17.04 139.063 17.0913 139.166 17.194C139.268 17.2873 139.32 17.4227 139.32 17.6V19.182H140.874C141.023 19.182 141.14 19.224 141.224 19.308C141.317 19.392 141.364 19.504 141.364 19.644C141.364 19.7747 141.317 19.882 141.224 19.966C141.14 20.0407 141.023 20.078 140.874 20.078H139.32V23.648C139.32 24.1613 139.422 24.5347 139.628 24.768C139.842 24.992 140.16 25.118 140.58 25.146L140.958 25.174ZM148.239 19.042C148.417 19.042 148.552 19.0933 148.645 19.196C148.748 19.2987 148.799 19.434 148.799 19.602V25.524C148.799 25.6827 148.748 25.8133 148.645 25.916C148.552 26.0187 148.417 26.07 148.239 26.07C148.071 26.07 147.936 26.0233 147.833 25.93C147.74 25.8273 147.693 25.6967 147.693 25.538V24.838C147.479 25.2487 147.175 25.5613 146.783 25.776C146.401 25.9907 145.967 26.098 145.481 26.098C144.669 26.098 144.058 25.874 143.647 25.426C143.237 24.9687 143.031 24.2967 143.031 23.41V19.602C143.031 19.434 143.083 19.2987 143.185 19.196C143.288 19.0933 143.428 19.042 143.605 19.042C143.783 19.042 143.918 19.0933 144.011 19.196C144.114 19.2987 144.165 19.434 144.165 19.602V23.382C144.165 23.9887 144.287 24.4367 144.529 24.726C144.772 25.006 145.155 25.146 145.677 25.146C146.275 25.146 146.755 24.9547 147.119 24.572C147.483 24.18 147.665 23.6667 147.665 23.032V19.602C147.665 19.434 147.717 19.2987 147.819 19.196C147.922 19.0933 148.062 19.042 148.239 19.042ZM153.697 26.098C153.268 26.098 152.857 26.0467 152.465 25.944C152.083 25.8413 151.742 25.6967 151.443 25.51C151.275 25.398 151.154 25.2953 151.079 25.202C151.014 25.0993 150.981 24.978 150.981 24.838C150.981 24.7167 151.014 24.6187 151.079 24.544C151.154 24.46 151.247 24.418 151.359 24.418C151.471 24.418 151.635 24.488 151.849 24.628C152.129 24.796 152.405 24.9313 152.675 25.034C152.955 25.1273 153.301 25.174 153.711 25.174C154.215 25.174 154.607 25.0853 154.887 24.908C155.167 24.7307 155.307 24.474 155.307 24.138C155.307 23.9327 155.256 23.7693 155.153 23.648C155.051 23.5173 154.873 23.4053 154.621 23.312C154.369 23.2093 154.001 23.1067 153.515 23.004C152.694 22.8267 152.106 22.5887 151.751 22.29C151.397 21.9913 151.219 21.5853 151.219 21.072C151.219 20.6707 151.331 20.316 151.555 20.008C151.779 19.7 152.087 19.4573 152.479 19.28C152.881 19.1027 153.333 19.014 153.837 19.014C154.201 19.014 154.551 19.0653 154.887 19.168C155.233 19.2613 155.536 19.3967 155.797 19.574C156.115 19.798 156.273 20.0313 156.273 20.274C156.273 20.3953 156.236 20.498 156.161 20.582C156.087 20.666 155.998 20.708 155.895 20.708C155.783 20.708 155.615 20.6287 155.391 20.47C155.13 20.302 154.883 20.1713 154.649 20.078C154.416 19.9847 154.127 19.938 153.781 19.938C153.343 19.938 152.988 20.036 152.717 20.232C152.456 20.428 152.325 20.6893 152.325 21.016C152.325 21.2213 152.372 21.3893 152.465 21.52C152.568 21.6413 152.731 21.7533 152.955 21.856C153.189 21.9493 153.52 22.0427 153.949 22.136C154.584 22.276 155.074 22.43 155.419 22.598C155.774 22.766 156.026 22.9713 156.175 23.214C156.325 23.4567 156.399 23.7647 156.399 24.138C156.399 24.726 156.152 25.202 155.657 25.566C155.163 25.9207 154.509 26.098 153.697 26.098ZM166.099 19.042C166.491 19.014 166.687 19.1727 166.687 19.518C166.687 19.6673 166.645 19.7887 166.561 19.882C166.477 19.966 166.333 20.0173 166.127 20.036L165.707 20.078C165.082 20.134 164.615 20.358 164.307 20.75C164.009 21.1327 163.859 21.5853 163.859 22.108V25.51C163.859 25.6967 163.808 25.8367 163.705 25.93C163.603 26.0233 163.467 26.07 163.299 26.07C163.131 26.07 162.991 26.0233 162.879 25.93C162.777 25.8273 162.725 25.6873 162.725 25.51V19.602C162.725 19.4247 162.781 19.2893 162.893 19.196C163.005 19.0933 163.141 19.042 163.299 19.042C163.449 19.042 163.575 19.0933 163.677 19.196C163.78 19.2893 163.831 19.42 163.831 19.588V20.372C164.027 19.9613 164.303 19.6487 164.657 19.434C165.021 19.2193 165.437 19.0933 165.903 19.056L166.099 19.042ZM168.729 26.07C168.561 26.07 168.421 26.0233 168.309 25.93C168.206 25.8273 168.155 25.6873 168.155 25.51V19.602C168.155 19.4247 168.206 19.2893 168.309 19.196C168.421 19.0933 168.561 19.042 168.729 19.042C168.897 19.042 169.032 19.0933 169.135 19.196C169.238 19.2893 169.289 19.4247 169.289 19.602V25.51C169.289 25.6967 169.238 25.8367 169.135 25.93C169.032 26.0233 168.897 26.07 168.729 26.07ZM168.729 17.572C168.505 17.572 168.323 17.5067 168.183 17.376C168.043 17.2453 167.973 17.0727 167.973 16.858C167.973 16.6527 168.043 16.4847 168.183 16.354C168.323 16.2233 168.505 16.158 168.729 16.158C168.953 16.158 169.135 16.2233 169.275 16.354C169.415 16.4847 169.485 16.6527 169.485 16.858C169.485 17.0727 169.415 17.2453 169.275 17.376C169.135 17.5067 168.953 17.572 168.729 17.572ZM174.199 26.098C173.77 26.098 173.359 26.0467 172.967 25.944C172.584 25.8413 172.244 25.6967 171.945 25.51C171.777 25.398 171.656 25.2953 171.581 25.202C171.516 25.0993 171.483 24.978 171.483 24.838C171.483 24.7167 171.516 24.6187 171.581 24.544C171.656 24.46 171.749 24.418 171.861 24.418C171.973 24.418 172.136 24.488 172.351 24.628C172.631 24.796 172.906 24.9313 173.177 25.034C173.457 25.1273 173.802 25.174 174.213 25.174C174.717 25.174 175.109 25.0853 175.389 24.908C175.669 24.7307 175.809 24.474 175.809 24.138C175.809 23.9327 175.758 23.7693 175.655 23.648C175.552 23.5173 175.375 23.4053 175.123 23.312C174.871 23.2093 174.502 23.1067 174.017 23.004C173.196 22.8267 172.608 22.5887 172.253 22.29C171.898 21.9913 171.721 21.5853 171.721 21.072C171.721 20.6707 171.833 20.316 172.057 20.008C172.281 19.7 172.589 19.4573 172.981 19.28C173.382 19.1027 173.835 19.014 174.339 19.014C174.703 19.014 175.053 19.0653 175.389 19.168C175.734 19.2613 176.038 19.3967 176.299 19.574C176.616 19.798 176.775 20.0313 176.775 20.274C176.775 20.3953 176.738 20.498 176.663 20.582C176.588 20.666 176.5 20.708 176.397 20.708C176.285 20.708 176.117 20.6287 175.893 20.47C175.632 20.302 175.384 20.1713 175.151 20.078C174.918 19.9847 174.628 19.938 174.283 19.938C173.844 19.938 173.49 20.036 173.219 20.232C172.958 20.428 172.827 20.6893 172.827 21.016C172.827 21.2213 172.874 21.3893 172.967 21.52C173.07 21.6413 173.233 21.7533 173.457 21.856C173.69 21.9493 174.022 22.0427 174.451 22.136C175.086 22.276 175.576 22.43 175.921 22.598C176.276 22.766 176.528 22.9713 176.677 23.214C176.826 23.4567 176.901 23.7647 176.901 24.138C176.901 24.726 176.654 25.202 176.159 25.566C175.664 25.9207 175.011 26.098 174.199 26.098ZM184.304 19.042C184.481 19.042 184.616 19.0933 184.71 19.196C184.812 19.2987 184.864 19.434 184.864 19.602V25.524C184.864 25.6827 184.812 25.8133 184.71 25.916C184.616 26.0187 184.481 26.07 184.304 26.07C184.136 26.07 184 26.0233 183.898 25.93C183.804 25.8273 183.758 25.6967 183.758 25.538V24.838C183.543 25.2487 183.24 25.5613 182.848 25.776C182.465 25.9907 182.031 26.098 181.546 26.098C180.734 26.098 180.122 25.874 179.712 25.426C179.301 24.9687 179.096 24.2967 179.096 23.41V19.602C179.096 19.434 179.147 19.2987 179.25 19.196C179.352 19.0933 179.492 19.042 179.67 19.042C179.847 19.042 179.982 19.0933 180.076 19.196C180.178 19.2987 180.23 19.434 180.23 19.602V23.382C180.23 23.9887 180.351 24.4367 180.594 24.726C180.836 25.006 181.219 25.146 181.742 25.146C182.339 25.146 182.82 24.9547 183.184 24.572C183.548 24.18 183.73 23.6667 183.73 23.032V19.602C183.73 19.434 183.781 19.2987 183.884 19.196C183.986 19.0933 184.126 19.042 184.304 19.042ZM189.762 26.098C189.332 26.098 188.922 26.0467 188.53 25.944C188.147 25.8413 187.806 25.6967 187.508 25.51C187.34 25.398 187.218 25.2953 187.144 25.202C187.078 25.0993 187.046 24.978 187.046 24.838C187.046 24.7167 187.078 24.6187 187.144 24.544C187.218 24.46 187.312 24.418 187.424 24.418C187.536 24.418 187.699 24.488 187.914 24.628C188.194 24.796 188.469 24.9313 188.74 25.034C189.02 25.1273 189.365 25.174 189.776 25.174C190.28 25.174 190.672 25.0853 190.952 24.908C191.232 24.7307 191.372 24.474 191.372 24.138C191.372 23.9327 191.32 23.7693 191.218 23.648C191.115 23.5173 190.938 23.4053 190.686 23.312C190.434 23.2093 190.065 23.1067 189.58 23.004C188.758 22.8267 188.17 22.5887 187.816 22.29C187.461 21.9913 187.284 21.5853 187.284 21.072C187.284 20.6707 187.396 20.316 187.62 20.008C187.844 19.7 188.152 19.4573 188.544 19.28C188.945 19.1027 189.398 19.014 189.902 19.014C190.266 19.014 190.616 19.0653 190.952 19.168C191.297 19.2613 191.6 19.3967 191.862 19.574C192.179 19.798 192.338 20.0313 192.338 20.274C192.338 20.3953 192.3 20.498 192.226 20.582C192.151 20.666 192.062 20.708 191.96 20.708C191.848 20.708 191.68 20.6287 191.456 20.47C191.194 20.302 190.947 20.1713 190.714 20.078C190.48 19.9847 190.191 19.938 189.846 19.938C189.407 19.938 189.052 20.036 188.782 20.232C188.52 20.428 188.39 20.6893 188.39 21.016C188.39 21.2213 188.436 21.3893 188.53 21.52C188.632 21.6413 188.796 21.7533 189.02 21.856C189.253 21.9493 189.584 22.0427 190.014 22.136C190.648 22.276 191.138 22.43 191.484 22.598C191.838 22.766 192.09 22.9713 192.24 23.214C192.389 23.4567 192.464 23.7647 192.464 24.138C192.464 24.726 192.216 25.202 191.722 25.566C191.227 25.9207 190.574 26.098 189.762 26.098ZM201.576 19.014C203.284 19.014 204.138 19.91 204.138 21.702V25.51C204.138 25.678 204.086 25.8133 203.984 25.916C203.89 26.0187 203.76 26.07 203.592 26.07C203.424 26.07 203.288 26.0187 203.186 25.916C203.083 25.8133 203.032 25.678 203.032 25.51V24.838C202.854 25.2393 202.584 25.552 202.22 25.776C201.856 25.9907 201.436 26.098 200.96 26.098C200.521 26.098 200.115 26.0093 199.742 25.832C199.378 25.6547 199.088 25.4073 198.874 25.09C198.659 24.7727 198.552 24.4227 198.552 24.04C198.552 23.5267 198.682 23.13 198.944 22.85C199.205 22.5607 199.634 22.3553 200.232 22.234C200.829 22.1033 201.66 22.038 202.724 22.038H203.032V21.576C203.032 21.016 202.915 20.6053 202.682 20.344C202.458 20.0827 202.089 19.952 201.576 19.952C200.941 19.952 200.297 20.1247 199.644 20.47C199.392 20.6287 199.214 20.708 199.112 20.708C199 20.708 198.906 20.666 198.832 20.582C198.757 20.498 198.72 20.3907 198.72 20.26C198.72 20.1293 198.757 20.0173 198.832 19.924C198.916 19.8213 199.046 19.7187 199.224 19.616C199.55 19.4293 199.919 19.2847 200.33 19.182C200.75 19.07 201.165 19.014 201.576 19.014ZM201.114 25.202C201.674 25.202 202.131 25.0153 202.486 24.642C202.85 24.2593 203.032 23.7693 203.032 23.172V22.766H202.78C201.958 22.766 201.333 22.8033 200.904 22.878C200.474 22.9433 200.166 23.06 199.98 23.228C199.802 23.3867 199.714 23.6247 199.714 23.942C199.714 24.306 199.844 24.6093 200.106 24.852C200.376 25.0853 200.712 25.202 201.114 25.202ZM209.858 25.174C210.184 25.202 210.348 25.3513 210.348 25.622C210.348 25.7807 210.287 25.902 210.166 25.986C210.054 26.0607 209.881 26.0887 209.648 26.07L209.27 26.042C208.523 25.986 207.972 25.762 207.618 25.37C207.263 24.978 207.086 24.3853 207.086 23.592V20.078H206.148C205.989 20.078 205.863 20.0407 205.77 19.966C205.686 19.882 205.644 19.7747 205.644 19.644C205.644 19.504 205.686 19.392 205.77 19.308C205.863 19.224 205.989 19.182 206.148 19.182H207.086V17.6C207.086 17.4227 207.137 17.2873 207.24 17.194C207.342 17.0913 207.482 17.04 207.66 17.04C207.828 17.04 207.963 17.0913 208.066 17.194C208.168 17.2873 208.22 17.4227 208.22 17.6V19.182H209.774C209.923 19.182 210.04 19.224 210.124 19.308C210.217 19.392 210.264 19.504 210.264 19.644C210.264 19.7747 210.217 19.882 210.124 19.966C210.04 20.0407 209.923 20.078 209.774 20.078H208.22V23.648C208.22 24.1613 208.322 24.5347 208.528 24.768C208.742 24.992 209.06 25.118 209.48 25.146L209.858 25.174ZM218.359 26.098C217.93 26.098 217.519 26.0467 217.127 25.944C216.744 25.8413 216.404 25.6967 216.105 25.51C215.937 25.398 215.816 25.2953 215.741 25.202C215.676 25.0993 215.643 24.978 215.643 24.838C215.643 24.7167 215.676 24.6187 215.741 24.544C215.816 24.46 215.909 24.418 216.021 24.418C216.133 24.418 216.296 24.488 216.511 24.628C216.791 24.796 217.066 24.9313 217.337 25.034C217.617 25.1273 217.962 25.174 218.373 25.174C218.877 25.174 219.269 25.0853 219.549 24.908C219.829 24.7307 219.969 24.474 219.969 24.138C219.969 23.9327 219.918 23.7693 219.815 23.648C219.712 23.5173 219.535 23.4053 219.283 23.312C219.031 23.2093 218.662 23.1067 218.177 23.004C217.356 22.8267 216.768 22.5887 216.413 22.29C216.058 21.9913 215.881 21.5853 215.881 21.072C215.881 20.6707 215.993 20.316 216.217 20.008C216.441 19.7 216.749 19.4573 217.141 19.28C217.542 19.1027 217.995 19.014 218.499 19.014C218.863 19.014 219.213 19.0653 219.549 19.168C219.894 19.2613 220.198 19.3967 220.459 19.574C220.776 19.798 220.935 20.0313 220.935 20.274C220.935 20.3953 220.898 20.498 220.823 20.582C220.748 20.666 220.66 20.708 220.557 20.708C220.445 20.708 220.277 20.6287 220.053 20.47C219.792 20.302 219.544 20.1713 219.311 20.078C219.078 19.9847 218.788 19.938 218.443 19.938C218.004 19.938 217.65 20.036 217.379 20.232C217.118 20.428 216.987 20.6893 216.987 21.016C216.987 21.2213 217.034 21.3893 217.127 21.52C217.23 21.6413 217.393 21.7533 217.617 21.856C217.85 21.9493 218.182 22.0427 218.611 22.136C219.246 22.276 219.736 22.43 220.081 22.598C220.436 22.766 220.688 22.9713 220.837 23.214C220.986 23.4567 221.061 23.7647 221.061 24.138C221.061 24.726 220.814 25.202 220.319 25.566C219.824 25.9207 219.171 26.098 218.359 26.098ZM228.562 24.418C228.664 24.418 228.753 24.46 228.828 24.544C228.902 24.628 228.94 24.7353 228.94 24.866C228.94 25.0993 228.776 25.314 228.45 25.51C228.114 25.706 227.759 25.8553 227.386 25.958C227.012 26.0513 226.648 26.098 226.294 26.098C225.239 26.098 224.404 25.7853 223.788 25.16C223.181 24.5347 222.878 23.6713 222.878 22.57C222.878 21.87 223.013 21.254 223.284 20.722C223.554 20.1807 223.932 19.7607 224.418 19.462C224.912 19.1633 225.472 19.014 226.098 19.014C226.984 19.014 227.689 19.3033 228.212 19.882C228.734 20.4607 228.996 21.2447 228.996 22.234C228.996 22.4207 228.958 22.556 228.884 22.64C228.809 22.724 228.688 22.766 228.52 22.766H224.012C224.096 24.3713 224.856 25.174 226.294 25.174C226.658 25.174 226.97 25.1273 227.232 25.034C227.493 24.9313 227.773 24.796 228.072 24.628C228.314 24.488 228.478 24.418 228.562 24.418ZM226.112 19.896C225.514 19.896 225.034 20.0827 224.67 20.456C224.315 20.8293 224.105 21.3567 224.04 22.038H228.002C227.983 21.3473 227.81 20.82 227.484 20.456C227.157 20.0827 226.7 19.896 226.112 19.896ZM238.749 19.014C240.261 19.014 241.017 19.9147 241.017 21.716V25.51C241.017 25.6873 240.965 25.8273 240.863 25.93C240.76 26.0233 240.625 26.07 240.457 26.07C240.289 26.07 240.149 26.0233 240.037 25.93C239.934 25.8273 239.883 25.6873 239.883 25.51V21.744C239.883 21.1187 239.771 20.666 239.547 20.386C239.323 20.106 238.973 19.966 238.497 19.966C237.927 19.966 237.479 20.1573 237.153 20.54C236.826 20.9227 236.663 21.4407 236.663 22.094V25.51C236.663 25.6873 236.607 25.8273 236.495 25.93C236.392 26.0233 236.257 26.07 236.089 26.07C235.921 26.07 235.785 26.0233 235.683 25.93C235.58 25.8273 235.529 25.6873 235.529 25.51V21.744C235.529 21.1187 235.417 20.666 235.193 20.386C234.969 20.106 234.614 19.966 234.129 19.966C233.569 19.966 233.121 20.1573 232.785 20.54C232.458 20.9227 232.295 21.4407 232.295 22.094V25.51C232.295 25.6873 232.243 25.8273 232.141 25.93C232.038 26.0233 231.903 26.07 231.735 26.07C231.567 26.07 231.427 26.0233 231.315 25.93C231.212 25.8273 231.161 25.6873 231.161 25.51V19.602C231.161 19.434 231.212 19.2987 231.315 19.196C231.427 19.0933 231.567 19.042 231.735 19.042C231.893 19.042 232.024 19.0933 232.127 19.196C232.229 19.2893 232.281 19.42 232.281 19.588V20.26C232.486 19.8587 232.771 19.5507 233.135 19.336C233.499 19.1213 233.919 19.014 234.395 19.014C235.459 19.014 236.154 19.462 236.481 20.358C236.677 19.9473 236.975 19.6207 237.377 19.378C237.778 19.1353 238.235 19.014 238.749 19.014ZM247.007 19.014C247.604 19.014 248.131 19.1633 248.589 19.462C249.046 19.7607 249.401 20.1807 249.653 20.722C249.905 21.254 250.031 21.8747 250.031 22.584C250.031 23.2933 249.905 23.914 249.653 24.446C249.401 24.9687 249.046 25.3747 248.589 25.664C248.141 25.9533 247.613 26.098 247.007 26.098C246.475 26.098 246.008 25.9813 245.607 25.748C245.215 25.5147 244.916 25.1833 244.711 24.754V28.044C244.711 28.212 244.659 28.3427 244.557 28.436C244.463 28.5387 244.328 28.59 244.151 28.59C243.973 28.59 243.833 28.5387 243.731 28.436C243.628 28.3333 243.577 28.2027 243.577 28.044V19.602C243.577 19.434 243.628 19.2987 243.731 19.196C243.833 19.0933 243.973 19.042 244.151 19.042C244.328 19.042 244.463 19.0933 244.557 19.196C244.659 19.2987 244.711 19.434 244.711 19.602V20.358C244.916 19.9287 245.215 19.5973 245.607 19.364C246.008 19.1307 246.475 19.014 247.007 19.014ZM246.783 25.16C247.445 25.16 247.959 24.936 248.323 24.488C248.687 24.04 248.869 23.4053 248.869 22.584C248.869 21.7627 248.687 21.1233 248.323 20.666C247.959 20.1993 247.445 19.966 246.783 19.966C246.12 19.966 245.607 20.19 245.243 20.638C244.888 21.086 244.711 21.7253 244.711 22.556C244.711 23.3867 244.888 24.0307 245.243 24.488C245.607 24.936 246.12 25.16 246.783 25.16ZM257.497 24.418C257.6 24.418 257.689 24.46 257.763 24.544C257.838 24.628 257.875 24.7353 257.875 24.866C257.875 25.0993 257.712 25.314 257.385 25.51C257.049 25.706 256.695 25.8553 256.321 25.958C255.948 26.0513 255.584 26.098 255.229 26.098C254.175 26.098 253.339 25.7853 252.723 25.16C252.117 24.5347 251.813 23.6713 251.813 22.57C251.813 21.87 251.949 21.254 252.219 20.722C252.49 20.1807 252.868 19.7607 253.353 19.462C253.848 19.1633 254.408 19.014 255.033 19.014C255.92 19.014 256.625 19.3033 257.147 19.882C257.67 20.4607 257.931 21.2447 257.931 22.234C257.931 22.4207 257.894 22.556 257.819 22.64C257.745 22.724 257.623 22.766 257.455 22.766H252.947C253.031 24.3713 253.792 25.174 255.229 25.174C255.593 25.174 255.906 25.1273 256.167 25.034C256.429 24.9313 256.709 24.796 257.007 24.628C257.25 24.488 257.413 24.418 257.497 24.418ZM255.047 19.896C254.45 19.896 253.969 20.0827 253.605 20.456C253.251 20.8293 253.041 21.3567 252.975 22.038H256.937C256.919 21.3473 256.746 20.82 256.419 20.456C256.093 20.0827 255.635 19.896 255.047 19.896ZM263.47 19.042C263.862 19.014 264.058 19.1727 264.058 19.518C264.058 19.6673 264.016 19.7887 263.932 19.882C263.848 19.966 263.704 20.0173 263.498 20.036L263.078 20.078C262.453 20.134 261.986 20.358 261.678 20.75C261.38 21.1327 261.23 21.5853 261.23 22.108V25.51C261.23 25.6967 261.179 25.8367 261.076 25.93C260.974 26.0233 260.838 26.07 260.67 26.07C260.502 26.07 260.362 26.0233 260.25 25.93C260.148 25.8273 260.096 25.6873 260.096 25.51V19.602C260.096 19.4247 260.152 19.2893 260.264 19.196C260.376 19.0933 260.512 19.042 260.67 19.042C260.82 19.042 260.946 19.0933 261.048 19.196C261.151 19.2893 261.202 19.42 261.202 19.588V20.372C261.398 19.9613 261.674 19.6487 262.028 19.434C262.392 19.2193 262.808 19.0933 263.274 19.056L263.47 19.042ZM271.925 26.098C271.496 26.098 271.085 26.0467 270.693 25.944C270.311 25.8413 269.97 25.6967 269.671 25.51C269.503 25.398 269.382 25.2953 269.307 25.202C269.242 25.0993 269.209 24.978 269.209 24.838C269.209 24.7167 269.242 24.6187 269.307 24.544C269.382 24.46 269.475 24.418 269.587 24.418C269.699 24.418 269.863 24.488 270.077 24.628C270.357 24.796 270.633 24.9313 270.903 25.034C271.183 25.1273 271.529 25.174 271.939 25.174C272.443 25.174 272.835 25.0853 273.115 24.908C273.395 24.7307 273.535 24.474 273.535 24.138C273.535 23.9327 273.484 23.7693 273.381 23.648C273.279 23.5173 273.101 23.4053 272.849 23.312C272.597 23.2093 272.229 23.1067 271.743 23.004C270.922 22.8267 270.334 22.5887 269.979 22.29C269.625 21.9913 269.447 21.5853 269.447 21.072C269.447 20.6707 269.559 20.316 269.783 20.008C270.007 19.7 270.315 19.4573 270.707 19.28C271.109 19.1027 271.561 19.014 272.065 19.014C272.429 19.014 272.779 19.0653 273.115 19.168C273.461 19.2613 273.764 19.3967 274.025 19.574C274.343 19.798 274.501 20.0313 274.501 20.274C274.501 20.3953 274.464 20.498 274.389 20.582C274.315 20.666 274.226 20.708 274.123 20.708C274.011 20.708 273.843 20.6287 273.619 20.47C273.358 20.302 273.111 20.1713 272.877 20.078C272.644 19.9847 272.355 19.938 272.009 19.938C271.571 19.938 271.216 20.036 270.945 20.232C270.684 20.428 270.553 20.6893 270.553 21.016C270.553 21.2213 270.6 21.3893 270.693 21.52C270.796 21.6413 270.959 21.7533 271.183 21.856C271.417 21.9493 271.748 22.0427 272.177 22.136C272.812 22.276 273.302 22.43 273.647 22.598C274.002 22.766 274.254 22.9713 274.403 23.214C274.553 23.4567 274.627 23.7647 274.627 24.138C274.627 24.726 274.38 25.202 273.885 25.566C273.391 25.9207 272.737 26.098 271.925 26.098ZM279.678 26.098C279.034 26.098 278.465 25.9533 277.97 25.664C277.485 25.3747 277.107 24.964 276.836 24.432C276.575 23.8907 276.444 23.2653 276.444 22.556C276.444 21.8467 276.575 21.226 276.836 20.694C277.107 20.1527 277.485 19.7373 277.97 19.448C278.465 19.1587 279.034 19.014 279.678 19.014C280.322 19.014 280.891 19.1587 281.386 19.448C281.881 19.7373 282.259 20.1527 282.52 20.694C282.791 21.226 282.926 21.8467 282.926 22.556C282.926 23.2653 282.791 23.8907 282.52 24.432C282.259 24.964 281.881 25.3747 281.386 25.664C280.891 25.9533 280.322 26.098 279.678 26.098ZM279.678 25.16C280.35 25.16 280.863 24.9407 281.218 24.502C281.582 24.054 281.764 23.4053 281.764 22.556C281.764 21.7253 281.582 21.086 281.218 20.638C280.854 20.1807 280.341 19.952 279.678 19.952C279.015 19.952 278.502 20.1807 278.138 20.638C277.774 21.086 277.592 21.7253 277.592 22.556C277.592 23.396 277.769 24.04 278.124 24.488C278.488 24.936 279.006 25.16 279.678 25.16ZM285.684 26.07C285.516 26.07 285.376 26.0233 285.264 25.93C285.161 25.8273 285.11 25.6873 285.11 25.51V16.62C285.11 16.4427 285.161 16.3073 285.264 16.214C285.376 16.1113 285.516 16.06 285.684 16.06C285.842 16.06 285.973 16.1113 286.076 16.214C286.188 16.3073 286.244 16.4427 286.244 16.62V25.51C286.244 25.6873 286.188 25.8273 286.076 25.93C285.973 26.0233 285.842 26.07 285.684 26.07ZM289.432 26.07C289.264 26.07 289.124 26.0233 289.012 25.93C288.909 25.8273 288.858 25.6873 288.858 25.51V16.62C288.858 16.4427 288.909 16.3073 289.012 16.214C289.124 16.1113 289.264 16.06 289.432 16.06C289.59 16.06 289.721 16.1113 289.824 16.214C289.936 16.3073 289.992 16.4427 289.992 16.62V25.51C289.992 25.6873 289.936 25.8273 289.824 25.93C289.721 26.0233 289.59 26.07 289.432 26.07ZM293.18 26.07C293.012 26.07 292.872 26.0233 292.76 25.93C292.657 25.8273 292.606 25.6873 292.606 25.51V19.602C292.606 19.4247 292.657 19.2893 292.76 19.196C292.872 19.0933 293.012 19.042 293.18 19.042C293.348 19.042 293.483 19.0933 293.586 19.196C293.688 19.2893 293.74 19.4247 293.74 19.602V25.51C293.74 25.6967 293.688 25.8367 293.586 25.93C293.483 26.0233 293.348 26.07 293.18 26.07ZM293.18 17.572C292.956 17.572 292.774 17.5067 292.634 17.376C292.494 17.2453 292.424 17.0727 292.424 16.858C292.424 16.6527 292.494 16.4847 292.634 16.354C292.774 16.2233 292.956 16.158 293.18 16.158C293.404 16.158 293.586 16.2233 293.726 16.354C293.866 16.4847 293.936 16.6527 293.936 16.858C293.936 17.0727 293.866 17.2453 293.726 17.376C293.586 17.5067 293.404 17.572 293.18 17.572ZM299.168 26.098C298.533 26.098 297.969 25.9533 297.474 25.664C296.989 25.3747 296.611 24.964 296.34 24.432C296.079 23.9 295.948 23.284 295.948 22.584C295.948 21.884 296.083 21.2633 296.354 20.722C296.634 20.1807 297.021 19.7607 297.516 19.462C298.011 19.1633 298.58 19.014 299.224 19.014C299.579 19.014 299.929 19.0653 300.274 19.168C300.629 19.2613 300.937 19.4013 301.198 19.588C301.366 19.7 301.483 19.812 301.548 19.924C301.623 20.0267 301.66 20.1433 301.66 20.274C301.66 20.4047 301.623 20.512 301.548 20.596C301.483 20.68 301.394 20.722 301.282 20.722C301.217 20.722 301.147 20.7033 301.072 20.666C300.997 20.6287 300.932 20.5913 300.876 20.554C300.829 20.5167 300.797 20.4933 300.778 20.484C300.535 20.3253 300.302 20.1993 300.078 20.106C299.863 20.0127 299.597 19.966 299.28 19.966C298.599 19.966 298.067 20.1993 297.684 20.666C297.311 21.1233 297.124 21.7627 297.124 22.584C297.124 23.4053 297.311 24.04 297.684 24.488C298.067 24.936 298.599 25.16 299.28 25.16C299.597 25.16 299.868 25.1133 300.092 25.02C300.325 24.9267 300.559 24.8007 300.792 24.642C300.895 24.5767 300.993 24.5207 301.086 24.474C301.179 24.4273 301.259 24.404 301.324 24.404C301.427 24.404 301.511 24.446 301.576 24.53C301.651 24.614 301.688 24.7213 301.688 24.852C301.688 24.9733 301.655 25.0853 301.59 25.188C301.525 25.2813 301.403 25.3887 301.226 25.51C300.965 25.6873 300.647 25.832 300.274 25.944C299.91 26.0467 299.541 26.098 299.168 26.098ZM304.121 26.07C303.953 26.07 303.813 26.0233 303.701 25.93C303.599 25.8273 303.547 25.6873 303.547 25.51V19.602C303.547 19.4247 303.599 19.2893 303.701 19.196C303.813 19.0933 303.953 19.042 304.121 19.042C304.289 19.042 304.425 19.0933 304.527 19.196C304.63 19.2893 304.681 19.4247 304.681 19.602V25.51C304.681 25.6967 304.63 25.8367 304.527 25.93C304.425 26.0233 304.289 26.07 304.121 26.07ZM304.121 17.572C303.897 17.572 303.715 17.5067 303.575 17.376C303.435 17.2453 303.365 17.0727 303.365 16.858C303.365 16.6527 303.435 16.4847 303.575 16.354C303.715 16.2233 303.897 16.158 304.121 16.158C304.345 16.158 304.527 16.2233 304.667 16.354C304.807 16.4847 304.877 16.6527 304.877 16.858C304.877 17.0727 304.807 17.2453 304.667 17.376C304.527 17.5067 304.345 17.572 304.121 17.572ZM310.555 25.174C310.881 25.202 311.045 25.3513 311.045 25.622C311.045 25.7807 310.984 25.902 310.863 25.986C310.751 26.0607 310.578 26.0887 310.345 26.07L309.967 26.042C309.22 25.986 308.669 25.762 308.315 25.37C307.96 24.978 307.783 24.3853 307.783 23.592V20.078H306.845C306.686 20.078 306.56 20.0407 306.467 19.966C306.383 19.882 306.341 19.7747 306.341 19.644C306.341 19.504 306.383 19.392 306.467 19.308C306.56 19.224 306.686 19.182 306.845 19.182H307.783V17.6C307.783 17.4227 307.834 17.2873 307.937 17.194C308.039 17.0913 308.179 17.04 308.357 17.04C308.525 17.04 308.66 17.0913 308.763 17.194C308.865 17.2873 308.917 17.4227 308.917 17.6V19.182H310.471C310.62 19.182 310.737 19.224 310.821 19.308C310.914 19.392 310.961 19.504 310.961 19.644C310.961 19.7747 310.914 19.882 310.821 19.966C310.737 20.0407 310.62 20.078 310.471 20.078H308.917V23.648C308.917 24.1613 309.019 24.5347 309.225 24.768C309.439 24.992 309.757 25.118 310.177 25.146L310.555 25.174ZM317.837 19.042C318.014 19.042 318.149 19.0933 318.243 19.196C318.345 19.2987 318.397 19.434 318.397 19.602V25.524C318.397 25.6827 318.345 25.8133 318.243 25.916C318.149 26.0187 318.014 26.07 317.837 26.07C317.669 26.07 317.533 26.0233 317.431 25.93C317.337 25.8273 317.291 25.6967 317.291 25.538V24.838C317.076 25.2487 316.773 25.5613 316.381 25.776C315.998 25.9907 315.564 26.098 315.079 26.098C314.267 26.098 313.655 25.874 313.245 25.426C312.834 24.9687 312.629 24.2967 312.629 23.41V19.602C312.629 19.434 312.68 19.2987 312.783 19.196C312.885 19.0933 313.025 19.042 313.203 19.042C313.38 19.042 313.515 19.0933 313.609 19.196C313.711 19.2987 313.763 19.434 313.763 19.602V23.382C313.763 23.9887 313.884 24.4367 314.127 24.726C314.369 25.006 314.752 25.146 315.275 25.146C315.872 25.146 316.353 24.9547 316.717 24.572C317.081 24.18 317.263 23.6667 317.263 23.032V19.602C317.263 19.434 317.314 19.2987 317.417 19.196C317.519 19.0933 317.659 19.042 317.837 19.042ZM326.472 16.06C326.65 16.06 326.79 16.1113 326.892 16.214C326.995 16.3167 327.046 16.4473 327.046 16.606V25.51C327.046 25.678 326.995 25.8133 326.892 25.916C326.79 26.0187 326.65 26.07 326.472 26.07C326.295 26.07 326.155 26.0187 326.052 25.916C325.959 25.8133 325.912 25.678 325.912 25.51V24.754C325.707 25.1833 325.404 25.5147 325.002 25.748C324.61 25.9813 324.148 26.098 323.616 26.098C323.019 26.098 322.492 25.9487 322.034 25.65C321.577 25.3513 321.222 24.936 320.97 24.404C320.718 23.8627 320.592 23.2373 320.592 22.528C320.592 21.828 320.718 21.212 320.97 20.68C321.222 20.148 321.577 19.7373 322.034 19.448C322.492 19.1587 323.019 19.014 323.616 19.014C324.148 19.014 324.61 19.1307 325.002 19.364C325.404 19.5973 325.707 19.9287 325.912 20.358V16.606C325.912 16.438 325.959 16.3073 326.052 16.214C326.155 16.1113 326.295 16.06 326.472 16.06ZM323.84 25.16C324.503 25.16 325.012 24.936 325.366 24.488C325.73 24.0307 325.912 23.3867 325.912 22.556C325.912 21.7253 325.73 21.086 325.366 20.638C325.012 20.19 324.503 19.966 323.84 19.966C323.178 19.966 322.66 20.19 322.286 20.638C321.922 21.086 321.74 21.716 321.74 22.528C321.74 23.3587 321.922 24.0073 322.286 24.474C322.66 24.9313 323.178 25.16 323.84 25.16ZM330.215 26.07C330.047 26.07 329.907 26.0233 329.795 25.93C329.692 25.8273 329.641 25.6873 329.641 25.51V19.602C329.641 19.4247 329.692 19.2893 329.795 19.196C329.907 19.0933 330.047 19.042 330.215 19.042C330.383 19.042 330.518 19.0933 330.621 19.196C330.724 19.2893 330.775 19.4247 330.775 19.602V25.51C330.775 25.6967 330.724 25.8367 330.621 25.93C330.518 26.0233 330.383 26.07 330.215 26.07ZM330.215 17.572C329.991 17.572 329.809 17.5067 329.669 17.376C329.529 17.2453 329.459 17.0727 329.459 16.858C329.459 16.6527 329.529 16.4847 329.669 16.354C329.809 16.2233 329.991 16.158 330.215 16.158C330.439 16.158 330.621 16.2233 330.761 16.354C330.901 16.4847 330.971 16.6527 330.971 16.858C330.971 17.0727 330.901 17.2453 330.761 17.376C330.621 17.5067 330.439 17.572 330.215 17.572ZM336.819 19.014C338.452 19.014 339.269 19.9147 339.269 21.716V25.51C339.269 25.6873 339.218 25.8273 339.115 25.93C339.022 26.0233 338.886 26.07 338.709 26.07C338.532 26.07 338.392 26.0233 338.289 25.93C338.186 25.8273 338.135 25.6873 338.135 25.51V21.786C338.135 21.1513 338.009 20.6893 337.757 20.4C337.514 20.1107 337.122 19.966 336.581 19.966C335.956 19.966 335.456 20.1573 335.083 20.54C334.71 20.9227 334.523 21.4407 334.523 22.094V25.51C334.523 25.6873 334.472 25.8273 334.369 25.93C334.276 26.0233 334.14 26.07 333.963 26.07C333.786 26.07 333.646 26.0233 333.543 25.93C333.44 25.8273 333.389 25.6873 333.389 25.51V19.602C333.389 19.434 333.44 19.2987 333.543 19.196C333.646 19.0933 333.786 19.042 333.963 19.042C334.131 19.042 334.262 19.0933 334.355 19.196C334.458 19.2987 334.509 19.4293 334.509 19.588V20.302C334.733 19.882 335.046 19.5647 335.447 19.35C335.848 19.126 336.306 19.014 336.819 19.014ZM342.4 26.07C342.176 26.07 341.989 26 341.84 25.86C341.691 25.7107 341.616 25.5193 341.616 25.286C341.616 25.0527 341.691 24.8613 341.84 24.712C341.989 24.5627 342.176 24.488 342.4 24.488C342.615 24.488 342.792 24.5627 342.932 24.712C343.081 24.8613 343.156 25.0527 343.156 25.286C343.156 25.5193 343.081 25.7107 342.932 25.86C342.792 26 342.615 26.07 342.4 26.07Z" fill="#77838F"/>
<path d="M25.2232 22.6518C25.2827 22.7113 25.3125 22.7798 25.3125 22.8571C25.3125 22.9345 25.2827 23.003 25.2232 23.0625L21.0625 27.2232C21.003 27.2827 20.9345 27.3125 20.8571 27.3125C20.7798 27.3125 20.7113 27.2827 20.6518 27.2232L20.2054 26.7768C20.1458 26.7173 20.1161 26.6488 20.1161 26.5714C20.1161 26.494 20.1458 26.4256 20.2054 26.3661L23.7143 22.8571L20.2054 19.3482C20.1458 19.2887 20.1161 19.2202 20.1161 19.1429C20.1161 19.0655 20.1458 18.997 20.2054 18.9375L20.6518 18.4911C20.7113 18.4315 20.7798 18.4018 20.8571 18.4018C20.9345 18.4018 21.003 18.4315 21.0625 18.4911L25.2232 22.6518Z" fill="#4B6EE5"/>
</g>
<defs>
<filter id="filter0_d_0_62" x="-48" y="-46" width="553" height="137" filterUnits="userSpaceOnUse" color-interpolation-filters="sRGB">
<feFlood flood-opacity="0" result="BackgroundImageFix"/>
<feColorMatrix in="SourceAlpha" type="matrix" values="0 0 0 0 0 0 0 0 0 0 0 0 0 0 0 0 0 0 127 0" result="hardAlpha"/>
<feOffset dy="2"/>
<feGaussianBlur stdDeviation="24"/>
<feColorMatrix type="matrix" values="0 0 0 0 0 0 0 0 0 0 0 0 0 0 0 0 0 0 0.06 0"/>
<feBlend mode="normal" in2="BackgroundImageFix" result="effect1_dropShadow_0_62"/>
<feBlend mode="normal" in="SourceGraphic" in2="effect1_dropShadow_0_62" result="shape"/>
</filter>
<clipPath id="clip0_0_62">
<rect width="457" height="41" fill="white"/>
</clipPath>
</defs>
</svg>
