<svg width="50" height="50" viewBox="0 0 50 50" fill="none" xmlns="http://www.w3.org/2000/svg">
<path fill-rule="evenodd" clip-rule="evenodd" d="M25 50C38.8071 50 50 38.8071 50 25C50 11.1929 38.8071 0 25 0C11.1929 0 0 11.1929 0 25C0 38.8071 11.1929 50 25 50Z" fill="#FFEDEC"/>
<path d="M32.3571 26.5625L20.5 33.1518C20.3631 33.2292 20.244 33.2381 20.1429 33.1786C20.0476 33.119 20 33.0119 20 32.8571V19.7143C20 19.5595 20.0476 19.4524 20.1429 19.3929C20.244 19.3333 20.3631 19.3423 20.5 19.4196L32.3571 26.0089C32.494 26.0863 32.5625 26.1786 32.5625 26.2857C32.5625 26.3929 32.494 26.4851 32.3571 26.5625Z" fill="#EC615B"/>
</svg>
