<svg width="8" height="6" viewBox="0 0 8 6" fill="none" xmlns="http://www.w3.org/2000/svg">
<path d="M7.51339 1.75L4.20089 5.05804C4.14435 5.11458 4.07738 5.14286 4 5.14286C3.92262 5.14286 3.85565 5.11458 3.79911 5.05804L0.486607 1.75C0.43006 1.69345 0.401786 1.62649 0.401786 1.54911C0.401786 1.46875 0.43006 1.4003 0.486607 1.34375L1.22768 0.607142C1.28423 0.550595 1.35119 0.522321 1.42857 0.522321C1.50595 0.522321 1.57292 0.550595 1.62946 0.607142L4 2.97768L6.37054 0.607142C6.42708 0.550595 6.49405 0.522321 6.57143 0.522321C6.64881 0.522321 6.71577 0.550595 6.77232 0.607142L7.51339 1.34375C7.56994 1.4003 7.59821 1.46875 7.59821 1.54911C7.59821 1.62649 7.56994 1.69345 7.51339 1.75Z" fill="#77838F"/>
</svg>
