<svg width="19" height="23" viewBox="0 0 19 23" fill="none" xmlns="http://www.w3.org/2000/svg">
<path d="M18.6563 16.7009C18.308 17.817 17.7589 18.933 17.0089 20.0491C15.8571 21.7991 14.7098 22.6741 13.567 22.6741C13.1295 22.6741 12.5045 22.5313 11.692 22.2455C10.9241 21.9598 10.25 21.817 9.66964 21.817C9.125 21.817 8.49107 21.9643 7.76786 22.2589C7.04464 22.5625 6.45536 22.7143 6 22.7143C4.64286 22.7143 3.29911 21.558 1.96875 19.2455C0.65625 16.9152 0 14.6696 0 12.5089C0 10.4732 0.504464 8.80357 1.51339 7.5C2.52232 6.21428 3.79018 5.57143 5.31696 5.57143C5.95982 5.57143 6.75 5.70536 7.6875 5.97321C8.61607 6.24107 9.23214 6.375 9.53571 6.375C9.9375 6.375 10.5759 6.22321 11.4509 5.91964C12.3616 5.61607 13.1339 5.46428 13.7679 5.46428C14.8304 5.46428 15.7813 5.75446 16.6205 6.33482C17.0848 6.65625 17.5491 7.10268 18.0134 7.67411C17.308 8.27232 16.7991 8.79911 16.4866 9.25446C15.9063 10.0937 15.6161 11.0179 15.6161 12.0268C15.6161 13.1339 15.9241 14.1295 16.5402 15.0134C17.1563 15.8973 17.8616 16.4598 18.6563 16.7009ZM13.6205 0.991071C13.6205 1.53571 13.4911 2.14286 13.2321 2.8125C12.9643 3.48214 12.5491 4.09821 11.9866 4.66071C11.5045 5.14286 11.0223 5.46428 10.5402 5.625C10.2098 5.72321 9.74554 5.79911 9.14732 5.85268C9.17411 4.52232 9.52232 3.375 10.192 2.41071C10.8527 1.45536 11.9688 0.794641 13.5402 0.42857C13.5491 0.455356 13.558 0.504463 13.567 0.575892C13.5848 0.647321 13.5982 0.696428 13.6071 0.723214C13.6071 0.758928 13.6071 0.803571 13.6071 0.857142C13.6161 0.910713 13.6205 0.955356 13.6205 0.991071Z" fill="white"/>
</svg>
