<svg width="21" height="21" viewBox="0 0 21 21" fill="none" xmlns="http://www.w3.org/2000/svg">
<path d="M10.2857 8.95536H19.9955C20.1027 9.55357 20.1563 10.125 20.1563 10.6696C20.1563 12.6071 19.75 14.3393 18.9375 15.8661C18.125 17.3839 16.9643 18.5714 15.4554 19.4286C13.9554 20.2857 12.2321 20.7143 10.2857 20.7143C8.88393 20.7143 7.54911 20.442 6.28125 19.8973C5.01339 19.3616 3.91964 18.6339 3 17.7143C2.08036 16.7946 1.34821 15.7009 0.803571 14.433C0.267857 13.1652 0 11.8304 0 10.4286C0 9.02679 0.267857 7.69196 0.803571 6.42411C1.34821 5.15625 2.08036 4.0625 3 3.14286C3.91964 2.22321 5.01339 1.49554 6.28125 0.959821C7.54911 0.415178 8.88393 0.142856 10.2857 0.142856C12.9643 0.142856 15.2634 1.04018 17.183 2.83482L14.3839 5.52678C13.2857 4.46428 11.9196 3.93303 10.2857 3.93303C9.13393 3.93303 8.06696 4.22321 7.08482 4.80357C6.11161 5.38393 5.33929 6.17411 4.76786 7.17411C4.19643 8.16518 3.91071 9.25 3.91071 10.4286C3.91071 11.6071 4.19643 12.6964 4.76786 13.6964C5.33929 14.6875 6.11161 15.4732 7.08482 16.0536C8.06696 16.6339 9.13393 16.9241 10.2857 16.9241C11.0625 16.9241 11.7768 16.817 12.4286 16.6027C13.0804 16.3884 13.6161 16.1205 14.0357 15.7991C14.4554 15.4777 14.8214 15.1116 15.1339 14.7009C15.4464 14.2902 15.6741 13.9018 15.817 13.5357C15.9688 13.1696 16.0714 12.8214 16.125 12.4911H10.2857V8.95536Z" fill="white"/>
</svg>
